<svg width="50" height="50" xmlns="http://www.w3.org/2000/svg" xmlns:xlink="http://www.w3.org/1999/xlink"><defs><path id="a" d="M0 0h50v50H0z"/></defs><g fill="none" fill-rule="evenodd" opacity=".5"><mask id="b" fill="#fff"><use xlink:href="#a"/></mask><path d="M28.733 18.885c-.374.04-.722.205-.99.468l-8.194 7.794-2.847-2.708a1.668 1.668 0 1 0-2.292 2.413l3.993 3.801a1.668 1.668 0 0 0 2.309 0l9.323-8.887a1.666 1.666 0 0 0-1.302-2.881m-6.51-15.17c6.404 4.601 13.114 5.823 18.888 7.081v18.451c-1.003 5.938-3.592 9.942-6.996 12.688-3.369 2.718-7.591 4.175-11.893 4.704-4.3-.53-8.524-1.986-11.892-4.704-3.404-2.746-5.993-6.75-6.997-12.688v-18.45c5.775-1.26 12.485-2.48 18.89-7.083M21.996.018a1.668 1.668 0 0 0-.8.347C14.785 5.382 7.863 6.325 1.303 7.828A1.666 1.666 0 0 0 0 9.46v19.995c-.001.088.005.174.017.261C1.13 36.4 4.201 41.29 8.23 44.54s8.953 4.886 13.802 5.45c.127.015.255.015.382 0 4.85-.564 9.774-2.2 13.803-5.45 4.028-3.25 7.1-8.14 8.211-14.824a1.71 1.71 0 0 0 .018-.26V9.46a1.666 1.666 0 0 0-1.303-1.632C36.583 6.324 29.661 5.382 23.247.365a1.666 1.666 0 0 0-1.25-.347M32.726 0a1.667 1.667 0 0 0-.695 3.159c5.022 2.532 10.152 3.526 14.636 4.513v18.242c-.544 3.208-1.671 5.977-3.073 8.21a1.666 1.666 0 1 0 2.812 1.77c1.638-2.608 2.963-5.82 3.577-9.51a1.76 1.76 0 0 0 .017-.261V6.335a1.667 1.667 0 0 0-1.302-1.614c-4.886-1.12-10.252-2.048-15.174-4.53A1.669 1.669 0 0 0 32.726 0" fill="#000" mask="url(#b)"/></g></svg>