<svg width="50" height="55" xmlns="http://www.w3.org/2000/svg"><g fill="none" fill-rule="evenodd" opacity=".5"><path d="M35.11 18.035l.123-12.245a4.267 4.267 0 0 0-4.213-4.297L8.53 1.267l-2.88-.03a4.2 4.2 0 0 0-4.24 4.155l-.058 5.74-.114 11.44a4.196 4.196 0 0 0 4.155 4.239l19.725.198M1.287 17.695l32.999.331M11.045 31.818l13.2.134m-6.55-5.016l-.05 4.948m13.972-8.934l14.31.143a2.332 2.332 0 0 1 2.31 2.356l-.26 25.859a2.33 2.33 0 0 1-2.356 2.308l-14.31-.143A2.331 2.331 0 0 1 29 51.118l.26-25.862a2.333 2.333 0 0 1 2.356-2.307zm-2.571 23.9l18.973.19" stroke="#000" stroke-linecap="round" stroke-linejoin="round" stroke-width="2.475"/><path d="M38.619 48.94a1.166 1.166 0 1 0-.024 2.332 1.166 1.166 0 0 0 .024-2.332" fill="#040404"/><path d="M38.619 48.94a1.166 1.166 0 1 0-.024 2.332 1.166 1.166 0 0 0 .024-2.332" stroke="#000" stroke-width=".825" stroke-linecap="round" stroke-linejoin="round"/></g></svg>