<svg xmlns="http://www.w3.org/2000/svg" xmlns:xlink="http://www.w3.org/1999/xlink" width="380" height="65"><defs><path id="a" d="M0 0h380v65H0z"/></defs><g fill="none" fill-rule="evenodd"><mask id="b" fill="#fff"><use xlink:href="#a"/></mask><path fill="#FFF" d="M316.886 33.638a3.63 3.63 0 0 0-1.355-.935 4.836 4.836 0 0 0-1.816-.325c-.41.004-.82.053-1.22.15-.402.1-.79.256-1.15.46a4.073 4.073 0 0 0-.963.771 3.82 3.82 0 0 0-.718 1.124 4.788 4.788 0 0 0-.474-1.029 3.125 3.125 0 0 0-.678-.772 2.883 2.883 0 0 0-.894-.5 3.59 3.59 0 0 0-1.111-.177 4.35 4.35 0 0 0-1.057.136c-.316.089-.62.218-.908.379a4.785 4.785 0 0 0-.8.569 7.468 7.468 0 0 0-.717.73l-.176-1.11a.636.636 0 0 0-.691-.5h-1.6v12.566h2.71v-9.276a4.562 4.562 0 0 1 1.152-1.03c.41-.243.878-.373 1.355-.378.613-.04 1.21.199 1.626.65.416.591.613 1.31.556 2.03v8.004h2.71v-8.003c-.004-.397.06-.791.19-1.165.121-.307.3-.587.528-.826.217-.225.48-.4.772-.514.308-.114.634-.174.962-.176a2.115 2.115 0 0 1 1.694.677c.42.58.62 1.29.569 2.004v8.003h2.71v-8.003a6.565 6.565 0 0 0-.285-2.018 3.856 3.856 0 0 0-.921-1.503v-.014zm4.336 11.537h2.71V32.581h-2.71v12.594zm2.574-17.604a1.876 1.876 0 0 0-.569-.393 1.77 1.77 0 0 0-.704-.135 1.687 1.687 0 0 0-.678.135 1.744 1.744 0 0 0-.542.393 1.702 1.702 0 0 0-.515 1.246c-.005.233.042.464.136.677.09.212.218.405.38.569.32.33.758.52 1.219.528.242 0 .482-.052.704-.15a1.828 1.828 0 0 0 .962-.947c.094-.213.141-.444.136-.677a1.653 1.653 0 0 0-.528-1.246zm-26.638 0a1.876 1.876 0 0 0-.57-.393 1.77 1.77 0 0 0-.704-.135 1.642 1.642 0 0 0-.677.135 1.728 1.728 0 0 0-.542.393 1.629 1.629 0 0 0-.38.555 1.68 1.68 0 0 0-.135.69c-.004.234.042.465.135.678a1.82 1.82 0 0 0 .922.948 1.665 1.665 0 0 0 1.382-.001 1.813 1.813 0 0 0 .962-.947c.093-.213.14-.444.135-.677a1.653 1.653 0 0 0-.528-1.246zM128.072 51.54c.301-.01.59-.114.827-.298a1.19 1.19 0 0 0 .352-.853V13.975a1.273 1.273 0 0 0-.61-1.232 1.212 1.212 0 0 0-.786-.217h-9.484a1.366 1.366 0 0 0-.854.27 1.46 1.46 0 0 0-.596.719l-.325.881c-.19.581-7.534 23.21-7.615 23.304-.176.367-.38.555-.596.555-.217 0-.705-.758-1.07-1.896-.218-.582-7.63-22.301-7.738-22.655a1.553 1.553 0 0 0-.542-.799c-.4-.267-.874-.4-1.355-.379h-9.186a.314.314 0 0 0-.217 0c-.354.058-.67.252-.88.543-.089.2-.144.416-.163.635-.02.285-.02.57 0 .853V49.21c-.02.393-.02.787 0 1.179.006.323.143.63.379.853.234.188.526.294.827.298h4.823c.315.044.634.017.935-.082a1.08 1.08 0 0 0 .827-.487 1.1 1.1 0 0 0 .216-.717v-23.02c0-.285.122-.706.448-.665a.7.7 0 0 1 .27.108l.217.19c.252.392.453.816.597 1.259 0 .068 7.75 21.924 7.858 22.156.285.677.732 1.203 1.355 1.203H111a1.19 1.19 0 0 0 1.03-.892c1.544-3.956 6.774-20.11 8.13-23.415a3.69 3.69 0 0 1 .473-.799c.068 0 .326-.216.434-.19.108.029.271.095.312.395a7.95 7.95 0 0 1 0 1.136v22.506c-.013.257.063.51.216.718.301.383.775.586 1.26.541l5.217.055zm166.47-6.351h2.71V32.595h-2.71v12.594zm-9.484-17.78h-2.846v17.766h10.271v-2.41H285.1l-.041-15.357zm77.585 11.632a4.207 4.207 0 0 0-1.016-.623c-.38-.176-.769-.33-1.166-.46l-1.151-.38a7.395 7.395 0 0 1-1.016-.379 2.5 2.5 0 0 1-.719-.515 1.097 1.097 0 0 1-.27-.744c0-.217.05-.431.148-.623a1.5 1.5 0 0 1 .42-.501c.208-.156.442-.27.692-.339.29-.085.592-.127.894-.122.358 0 .711.045 1.057.136.268.077.53.173.786.284l.569.298c.143.073.3.115.46.122.102.03.21.03.312 0a.763.763 0 0 0 .217-.244l.596-.961a4.972 4.972 0 0 0-1.734-1.11 6.103 6.103 0 0 0-2.317-.42 5.918 5.918 0 0 0-1.979.31 4.403 4.403 0 0 0-1.45.813 3.5 3.5 0 0 0-.894 1.206 3.47 3.47 0 0 0-.298 1.435c-.005.466.087.926.271 1.354.172.37.416.702.718.975a4.07 4.07 0 0 0 1.03.664c.38.173.77.327 1.165.46l1.166.366a6.93 6.93 0 0 1 1.03.392c.272.128.514.308.718.529.188.222.285.507.27.799.005.232-.042.463-.135.677a1.461 1.461 0 0 1-.42.555 2.076 2.076 0 0 1-.705.393 3.391 3.391 0 0 1-1.03.135 3.865 3.865 0 0 1-1.205-.163 4.172 4.172 0 0 1-.813-.365l-.596-.366a.957.957 0 0 0-.515-.162.654.654 0 0 0-.407.108.817.817 0 0 0-.284.284l-.624 1.016a6.098 6.098 0 0 0 1.884 1.097c.375.14.76.248 1.151.325.42.082.846.123 1.274.122a6.652 6.652 0 0 0 2.1-.312 4.154 4.154 0 0 0 1.545-.866 3.63 3.63 0 0 0 .935-1.355c.22-.517.332-1.075.325-1.638a2.917 2.917 0 0 0-.27-1.354 3.177 3.177 0 0 0-.678-.853h-.041zm10.84 0a4.207 4.207 0 0 0-1.017-.623c-.375-.174-.76-.327-1.151-.46l-1.166-.38a7.395 7.395 0 0 1-1.016-.379 2.5 2.5 0 0 1-.718-.515 1.097 1.097 0 0 1-.27-.744c0-.217.05-.431.148-.623a1.5 1.5 0 0 1 .42-.501c.207-.156.442-.27.691-.339.29-.085.592-.127.894-.122.358-.001.713.044 1.057.136.269.077.531.173.786.284l.57.298c.143.073.3.115.46.122.102.03.21.03.312 0a.627.627 0 0 0 .216-.244l.597-.961a4.83 4.83 0 0 0-1.735-1.11 6.051 6.051 0 0 0-2.317-.42 5.918 5.918 0 0 0-1.978.31 4.403 4.403 0 0 0-1.45.813 3.5 3.5 0 0 0-.894 1.206 3.47 3.47 0 0 0-.298 1.435c-.006.466.087.926.27 1.354.173.37.417.702.719.975.31.27.657.493 1.03.664.38.173.77.327 1.165.46l1.165.366c.354.103.698.234 1.03.392.274.132.522.31.732.529.183.226.279.509.27.799a1.874 1.874 0 0 1-.135.677 1.61 1.61 0 0 1-.42.555c-.211.176-.455.31-.718.393a3.391 3.391 0 0 1-1.03.135 3.704 3.704 0 0 1-1.192-.163 4.326 4.326 0 0 1-.827-.365l-.596-.366a.92.92 0 0 0-.515-.162.654.654 0 0 0-.406.108.817.817 0 0 0-.285.284l-.61 1.016c.262.227.543.432.84.61.327.194.673.357 1.03.487.376.14.76.248 1.152.325a7.032 7.032 0 0 0 3.374-.19 4.05 4.05 0 0 0 1.545-.866 3.63 3.63 0 0 0 .935-1.355c.22-.517.332-1.075.325-1.638a2.917 2.917 0 0 0-.271-1.354 2.948 2.948 0 0 0-.732-.853h.014zm6.002 3.399a1.703 1.703 0 0 0-.542-.38 1.766 1.766 0 0 0-1.355 0 1.72 1.72 0 0 0-.542.38 1.774 1.774 0 0 0-.352 1.895c.08.202.2.388.352.542.152.161.336.286.542.366.434.181.922.181 1.355 0 .206-.08.392-.205.542-.366.161-.153.29-.338.38-.542.088-.215.134-.444.135-.677a1.874 1.874 0 0 0-.135-.677 1.696 1.696 0 0 0-.393-.514l.013-.027zm-35.229-4.97a4.073 4.073 0 0 1 1.057-2.316 3.038 3.038 0 0 1 2.276-.826c.431-.005.86.072 1.26.23.354.155.668.386.922.677.253.293.442.633.555 1.002.14.396.208.814.204 1.233h-6.274zm7.127-3.589a4.781 4.781 0 0 0-1.693-1.11 6.51 6.51 0 0 0-4.662.108 5.646 5.646 0 0 0-1.87 1.354 5.869 5.869 0 0 0-1.192 1.977 7.293 7.293 0 0 0-.406 2.451c-.02.986.137 1.968.46 2.898a5.906 5.906 0 0 0 1.355 2.113 5.221 5.221 0 0 0 1.938 1.286 6.517 6.517 0 0 0 2.425.447c.454-.002.907-.04 1.355-.108a7.43 7.43 0 0 0 1.355-.339c.44-.164.863-.372 1.26-.623a4.413 4.413 0 0 0 1.07-.947l-.758-.975a.543.543 0 0 0-.488-.244c-.193.005-.38.067-.542.176l-.718.392c-.317.164-.648.3-.989.407a4.873 4.873 0 0 1-1.355.176 3.985 3.985 0 0 1-1.477-.258 2.94 2.94 0 0 1-1.138-.771 3.956 3.956 0 0 1-.759-1.355 6.223 6.223 0 0 1-.325-1.855h8.13a.569.569 0 0 0 .501-.216c.109-.262.156-.545.136-.826a6.627 6.627 0 0 0-.407-2.397 5.014 5.014 0 0 0-1.206-1.76zM215.061 50.632a1.163 1.163 0 0 1-.8 1.233 51.54 51.54 0 0 1-5.785 0 1.096 1.096 0 0 1-.786-.474 1.718 1.718 0 0 1-.258-.84V37.417c0-1.354 0-2.601-.162-3.751a4.754 4.754 0 0 0-5.04-4.755 5.419 5.419 0 0 0-5.543 4.782 40.663 40.663 0 0 0-.338 5.417v11.199c.01.279-.046.556-.163.81a1.17 1.17 0 0 1-.88.718c-.556.137-5.028.095-5.42 0a1.245 1.245 0 0 1-.881-.379 2.233 2.233 0 0 1-.366-1.435v-25.16a1.35 1.35 0 0 1 .312-.827c.216-.297.69-.433 1.558-.433h3.116c.88 0 1.965 0 2.1.84 0 .203.23 1.882.949 1.896a.687.687 0 0 0 .542-.271c.61-.63 1.282-1.197 2.005-1.693a13.08 13.08 0 0 1 10.935-.527 7.819 7.819 0 0 1 3.455 3.074 13.242 13.242 0 0 1 1.477 6.296c0 .636-.014 16.778-.027 17.414zm-32.126.745c-.26.358-.67.577-1.112.597h-5.948a1.615 1.615 0 0 1-.84-.326 1.25 1.25 0 0 1-.325-.826 10.517 10.517 0 0 1-.068-1.151V15.073a2.825 2.825 0 0 1 .258-1.49c.233-.33.6-.538 1.002-.568h6.125a.999.999 0 0 1 .826.405c.194.294.297.638.298.988v35.696a2.51 2.51 0 0 1-.216 1.273zM226.659 32.5C226.66 14.55 212.1 0 194.14 0s-32.519 14.55-32.519 32.5S176.18 65 194.14 65s32.52-14.55 32.52-32.5zm109.657 12.675h2.71V26.921h-2.71v18.254zm-3.008-2.451a.431.431 0 0 0-.23.081 1.481 1.481 0 0 1-.271.163c-.12.071-.247.131-.38.176a1.6 1.6 0 0 1-.542.081 1.168 1.168 0 0 1-.88-.352 1.446 1.446 0 0 1-.34-1.043v-7.15h3.497v-1.91h-3.496v-4.143h-1.355a.53.53 0 0 0-.393.136.64.64 0 0 0-.217.338l-.582 3.643-2.033.298v1.07a.56.56 0 0 0 .163.433c.104.092.24.14.38.135h1.354v7.34c-.055.911.25 1.806.854 2.491a3.19 3.19 0 0 0 2.412.88 5.072 5.072 0 0 0 1.734-.297 4.123 4.123 0 0 0 1.45-.826l-.786-1.354a.422.422 0 0 0-.339-.19zm-181.903-8.761a1.351 1.351 0 0 1-1.125.473h-9.2a2.208 2.208 0 0 1-1.206-.284.975.975 0 0 1-.352-.542 1.97 1.97 0 0 1 0-.69 6.288 6.288 0 0 1 6.381-4.7 6.017 6.017 0 0 1 5.61 4.375c.2.445.157.96-.108 1.367zm-5.99-11.403c-10.08.3-13.969 9.06-13.969 14.896 0 3.453 1.355 14.896 14.552 14.896 9.607 0 12.195-7.042 12.534-7.962.08-.206.108-.43.081-.65a.678.678 0 0 0 0-.256.65.65 0 0 0-.57-.584h-4.62c-.47.043-.902.278-1.192.65-.122.135-.27.339-.393.488a6.78 6.78 0 0 1-5.42 2.547c-5.311 0-6.856-3.55-7.045-5.417v-.408a1.357 1.357 0 0 1 .826-1.354c.195-.078.401-.124.61-.135h16.517c.366.021.731.021 1.097 0 .286-.035.56-.137.8-.298a1.07 1.07 0 0 0 .38-.718c.053-.448.08-.9.08-1.354.095-5.633-3.888-14.652-14.267-14.34zM23.972 44.877c-.18-.185-.42-.3-.678-.324a5.816 5.816 0 0 0-1.125-.136H10.15a1.584 1.584 0 0 1-1.531-.718 1.768 1.768 0 0 1-.136-.636 6.582 6.582 0 0 1 0-.732V13.975a1.661 1.661 0 0 0-.284-1.016 1.001 1.001 0 0 0-.84-.406H1.072a1.357 1.357 0 0 0-.881.542 1.701 1.701 0 0 0-.19.772V50.09c-.012.3.064.595.217.853.195.29.508.478.854.514.38 0 21.49.082 21.855.082a1.473 1.473 0 0 0 1.355-.826c.04-.2.04-.408 0-.61v-4.387a1.215 1.215 0 0 0-.311-.84zM222.513 2.52a3.033 3.033 0 1 1 0 6.065 3.034 3.034 0 1 1 0-6.065zm0 6.634a3.603 3.603 0 1 0-3.604-3.602 3.603 3.603 0 0 0 3.604 3.602zm-.61-4.563a.224.224 0 0 1 0-.095V4.4a.143.143 0 0 1 0-.068.296.296 0 0 1 .122-.093h.474a1.61 1.61 0 0 1 .38 0c.103.012.203.04.298.08.084.051.15.127.19.216a.428.428 0 0 1 0 .177.582.582 0 0 1 0 .216.463.463 0 0 1-.109.217.496.496 0 0 1-.149.137l-.23.066h-.773a.216.216 0 0 1-.19-.081.438.438 0 0 1 0-.258v-.42h-.013zm-.542 2.573v.08h.393a.13.13 0 0 0 .068-.08.19.19 0 0 0 0-.15V5.96a.475.475 0 0 1 0-.164.07.07 0 0 1 .081 0h.339a.23.23 0 0 1 .122 0 .37.37 0 0 1 .149.176l.135.203.515.826a.411.411 0 0 1 .095.149.548.548 0 0 0 .122.122h.15c.049.015.1.015.15 0h.135a.147.147 0 0 0 0-.15.459.459 0 0 0 0-.121l-.082-.122-.501-.772-.068-.108v-.108a.166.166 0 0 1 .068-.095.292.292 0 0 1 .108 0h.23c.09-.061.172-.134.244-.217a.758.758 0 0 0 .162-.296.777.777 0 0 0 0-.178.44.44 0 0 0 0-.188v-.232a1.336 1.336 0 0 0-.176-.406.47.47 0 0 0-.176-.135.946.946 0 0 0-.515-.19h-1.626a.17.17 0 0 0-.108.081v3.169a.25.25 0 0 0 0 .11l-.014-.15zM39.038 46.61c-3.063 0-6.775-2.464-6.775-9.072 0-6.609 3.55-9.1 7.344-9.1 3.794 0 6.666 3.25 6.666 9.14 0 7.421-4.295 9.032-7.235 9.032zm.257-23.995h-.19c-11.883 0-14.498 9.926-14.498 14.584a16.447 16.447 0 0 0 1.288 6.906c1.897 4.145 5.88 8.26 13.4 8.26 7.52 0 14.688-4.698 14.688-15.03v-.082c.291-7.794-5.797-14.349-13.596-14.64a14.683 14.683 0 0 0-1.092.002zm30.907 22.343c-3.672 0-6.355-2.857-6.355-8.964 0-5.065 3.022-7.651 6.314-7.651 2.954 0 6.775 2.546 6.775 7.705-.068 5.674-2.805 8.91-6.748 8.91h.014zm13.55-21.3a1.27 1.27 0 0 0-.8-.299h-4.824a1.56 1.56 0 0 0-.8.244 1.366 1.366 0 0 0-.297.515v.365c-.109.65-.339 1.178-.813 1.233a.825.825 0 0 1-.718-.325 9.322 9.322 0 0 0-7.141-2.843c-9.607 0-11.937 9.114-12.195 12.403v1.354c0 10.089 5.678 14.45 12.195 14.45a10.842 10.842 0 0 0 6.951-2.56c.084-.084.175-.161.271-.23a.984.984 0 0 1 .366-.204.8.8 0 0 1 .664 0c.38.217.447.678.38 1.355 0 0-.218 2.6-.285 2.938a5.826 5.826 0 0 1-5.42 5.025 6.073 6.073 0 0 1-6.545-3.25 1.356 1.356 0 0 0-1.097-.57c-.19 0-4.96-.08-5.325 0a1.47 1.47 0 0 0-.854.46 1.235 1.235 0 0 0-.135 1.07c.921 3.711 4.986 7.462 12.411 7.462h.136c11.26 0 14.294-6.419 14.294-13.054v-24.7a1.124 1.124 0 0 0-.42-.84zm180.683 13.798a4.065 4.065 0 0 1 1.057-2.315 3.08 3.08 0 0 1 2.277-.8c.43-.005.859.074 1.26.23.353.155.67.387.921.678.252.295.446.635.57 1.002.128.398.19.814.189 1.232l-6.274-.027zm7.141-3.588a4.96 4.96 0 0 0-1.707-1.11 6.51 6.51 0 0 0-4.661.108 5.646 5.646 0 0 0-1.87 1.354 6.073 6.073 0 0 0-1.192 1.977 7.259 7.259 0 0 0-.407 2.45c-.02.987.136 1.969.46 2.899a5.906 5.906 0 0 0 1.356 2.112 5.232 5.232 0 0 0 1.937 1.287 6.463 6.463 0 0 0 2.426.447 9.46 9.46 0 0 0 1.355-.109c.462-.07.914-.184 1.355-.338.443-.167.87-.375 1.273-.623.399-.26.755-.58 1.057-.948l-.759-.975a.543.543 0 0 0-.487-.244 1.008 1.008 0 0 0-.542.176l-.719.393c-.317.164-.649.3-.989.406a4.873 4.873 0 0 1-1.355.176 3.988 3.988 0 0 1-1.477-.27 2.785 2.785 0 0 1-1.124-.772 3.51 3.51 0 0 1-.759-1.355 6.223 6.223 0 0 1-.339-1.855h8.13a.569.569 0 0 0 .501-.217c.11-.26.156-.544.136-.826a6.627 6.627 0 0 0-.407-2.396 5.206 5.206 0 0 0-1.192-1.734v-.013zm-14.755 7.244a2.464 2.464 0 0 1-.61.935c-.325.28-.703.491-1.111.623a5.241 5.241 0 0 1-1.64.216h-3.59v-5.62h3.577a4.226 4.226 0 0 1 2.71.718c.574.493.888 1.222.853 1.977.006.392-.058.783-.19 1.151zM249.87 29.67h3.035a4.45 4.45 0 0 1 2.71.65c.61.53.926 1.321.853 2.126a2.45 2.45 0 0 1-.908 2.058c-.8.53-1.752.782-2.71.718h-2.98V29.67zm6.219 6.35c.51-.16.993-.393 1.436-.69a4.632 4.632 0 0 0 1.003-.907c.259-.335.46-.71.596-1.11a4.08 4.08 0 0 0 .19-1.206 5.024 5.024 0 0 0-.366-1.963 3.65 3.65 0 0 0-1.138-1.476 5.68 5.68 0 0 0-2.02-.935 11.407 11.407 0 0 0-2.912-.325h-5.894v17.767h6.517a8.708 8.708 0 0 0 2.71-.38 5.83 5.83 0 0 0 1.992-1.069c.53-.44.953-.995 1.233-1.625a5.04 5.04 0 0 0 .42-2.072c0-2.14-1.247-3.48-3.767-4.008z" mask="url(#b)"/></g></svg>