<svg xmlns="http://www.w3.org/2000/svg" viewBox="0 0 102 23.5" preserveAspectRatio="xMinYMin"><path d="M39.3 7.4c.1.2.5 1.1-.6 1.1-.3 0-2.4 0-2.6-.1-.3-.1-.3-.4-.4-.6-.4-1.1-1.7-2.4-3.7-2.3-4.1.2-4.5 4.3-4.5 5.7-.1 3.4 1.8 5.8 4.5 5.8s3.6-1.6 4.1-3.2c.2-.5.3-.6.6-.6h2.4c.7 0 .6.6.5.9-.1.3-1 6-7.4 6-3.2 0-8.3-1.8-8.3-9.2 0-5.1 3.7-8.6 8-8.6 5.9 0 7.1 4 7.4 5.1zm29.9-3.6h1.9c.9 0 .8.4.8.8v2c0 .8.3.9 1.5.9.8 0 1 0 1 .7v1.1c-.2.5-.3.4-1.2.4-.9 0-1.2 0-1.2.9v4.5c0 .6-.1 1.3.3 1.8.3.4.9.4 1.3.4s.8 0 .8.4c.1.4 0 1.2 0 1.6 0 .7-1 .6-2.2.5-1.1 0-2.1-.1-2.9-.8-.5-.5-.8-1.4-.8-2.1v-6.3c0-.9-.2-.9-1.4-.9-.2 0-.4-.1-.5-.2-.2-.4-.2-1.6 0-1.8.2-.3.4-.2.8-.2 1 0 1.2-.1 1.2-.9V4.2c0-.3.1-.4.6-.4zm25.7 15c.1.4.2.8-.3.9-.3.1-1.4 0-2.2 0-.5 0-.6-.2-.7-.4-.3-.7-.6-.4-1.2 0-.7.4-2 .7-2.9.7-.8 0-4.6.2-4.4-4.1.1-1.7 1.4-2.5 2.2-2.9 1-.4 3.3-.6 3.6-.7.2 0 1.6-.3 1.9-.6.6-.5.6-1.4.1-2-.6-.7-1.6-.7-2.4-.5-.5.1-1 .3-1.3.7-.3.3-.3 1-.8 1.1-.3.1-2.4.1-2.7 0-.4-.2-.2-.7-.1-.9.5-1.8 2.1-2.5 3-2.7.9-.2 1.9-.4 2.8-.4 1 0 2.1.2 3 .5 1.6.6 2.1 1.9 2.1 2.7.1.9 0 7.1 0 7.5.2.4.3 1 .3 1.1.1.2 0 0 0 0zm-3.5-4.3c0-.2-.1-.4-.4-.4-.2 0-1.1.2-1.3.2-.9.1-2.1.2-2.8.9-.6.6-.5 1.9.3 2.3.8.5 2.1.4 2.9 0 .9-.4 1.5-1.4 1.3-3zm5.4-10.7c0-.6 0-1 .5-1h2.2c.5 0 .7 0 .7.9V19c0 .5 0 .8-.9.8h-1.6c-.9 0-.9-.3-.9-.8V3.8zM11 1.1c-5.4 0-9.8 4.4-9.8 9.8s4.4 9.8 9.8 9.8 9.8-4.4 9.8-9.8c.1-5.4-4.3-9.8-9.8-9.8zm-.7 10.3L7.5 15c-.2.3-.4.2-.4-.1V13c0-.3-.3-.6-.6-.6H4.2c-.3 0-.6-.3-.6-.6V10c0-.3.3-.6.6-.6h2.3c.3 0 .6-.3.6-.6V7c0-.3.2-.4.4-.1l2.8 3.6c.2.2.2.6 0 .9zm7.5 1h-2.3c-.3 0-.6.3-.6.6v1.9c0 .3-.2.4-.4.1l-2.8-3.6c-.2-.3-.2-.7 0-.9l2.8-3.6c.2-.3.4-.2.4.1v1.9c0 .3.3.6.6.6h2.3c.3 0 .6.3.6.6v1.8c0 .3-.3.5-.6.5zm47.9 6.8c0 .3-.1.5-.3.5-.2.1-2.4 0-2.5 0-.2 0-.3-.1-.3-.2-.1-.1-.1-.2-.1-.4v-5.7c0-.6 0-1.1-.1-1.6 0-.5-.3-2.1-2.2-2.1-1.7 0-2.3 1.4-2.4 2.1-.1.7-.1 1.5-.1 2.4v4.9c0 .1 0 .3-.1.4-.1.2-.2.3-.4.3-.2.1-2.2 0-2.4 0-.2 0-.3-.1-.4-.2-.1-.1-.2-.3-.2-.6V8c0-.1.1-.3.1-.4.1-.1.3-.2.7-.2h1.4c.4 0 .9 0 .9.4 0 .1.1.8.4.8.1 0 .2 0 .2-.1 0 0 .5-.5.9-.7 1.2-.8 3.4-.8 4.7-.2.6.3 1.1.7 1.5 1.3.4.6.6 1.7.6 2.7.1.3.1 7.3.1 7.6zm-19-12.1c-4.4.1-6.1 4-6.1 6.5 0 1.5.6 6.5 6.4 6.5 4.2 0 5.3-3.1 5.5-3.5 0-.1.1-.6-.2-.7h-2c-.3 0-.4.2-.7.5-.2.3-1 1.1-2.4 1.1-2.3 0-3-1.6-3.1-2.3 0-.1-.1-.8.6-.8h7.2c.2 0 .7 0 .9-.2.2-.1.2-.7.2-.9-.1-2.4-1.8-6.4-6.3-6.2zm2.1 5.2h-4c-.8 0-.7-.6-.7-.7.1-.6.9-2.1 2.8-2.1 1.6 0 2.3 1.4 2.5 1.9 0 .3.1.9-.6.9zM83.1 8c0 1.3.1 1.9-.1 2.1-.1.1-.2.2-.6.2h-.8c-.4 0-.8.1-1.3.4-.8.4-1 .7-1.4 1.7-.2.5-.3 1.4-.3 2.5v4.2c0 .6-.3.7-.7.7h-2.2c-.6 0-.5-.7-.5-.9V8.1c0-.5.5-.6 1-.6h1.3c.2 0 .8 0 .8.5 0 .2 0 .5.1.7 0 .1 0 .3.2.3.1.1.3-.1.6-.4.3-.4.8-.7 1.1-.8.7-.4 1.5-.6 1.9-.6.3 0 .9 0 .9.8z" fill="#45B6F2"/></svg>