<svg width="183" height="39" xmlns="http://www.w3.org/2000/svg"><g fill="none"><g fill="#53565A"><path d="M45.67 13.023h-5.532c-.776 0-1.227.42-1.227 1.185v.543c0 .766.45 1.186 1.227 1.186h3.03v2.667c-.902.47-2.029.692-3.055.692-3.605 0-5.633-2.593-5.633-5.507 0-3.062 2.328-5.507 5.457-5.507 1.002 0 1.978.05 3.305.716.7.32 1.226.272 1.677-.346l.626-.79c.45-.617.376-1.234-.3-1.654-1.528-.889-3.23-1.334-5.308-1.334-5.482 0-9.437 4.05-9.437 8.94 0 4.84 3.88 8.889 9.537 8.889 2.078 0 4.207-.617 6.084-2 .576-.42.776-.89.776-1.506v-4.988c0-.766-.45-1.186-1.227-1.186zm10.19-3.556c-4.08 0-7.134 2.963-7.134 6.618 0 3.68 3.054 6.617 7.135 6.617 4.08 0 7.134-2.963 7.134-6.617 0-3.655-3.054-6.618-7.134-6.618zm0 10.149c-1.952 0-3.454-1.531-3.454-3.507 0-2 1.502-3.53 3.455-3.53 1.927 0 3.455 1.53 3.455 3.53 0 1.976-1.528 3.507-3.455 3.507z"/><path d="M74.762 7.27v-.94c0-.765-.45-1.185-1.227-1.185H61.57c-.776 0-1.202.42-1.202 1.185v.939c0 .765.426 1.185 1.202 1.185h4.005v12.791c0 .766.426 1.186 1.202 1.186h1.502c.777 0 1.202-.42 1.202-1.186V8.455h4.055c.776 0 1.227-.42 1.227-1.185z"/><path d="M79.269 9.467c-4.08 0-7.135 2.963-7.135 6.618 0 3.68 3.054 6.617 7.135 6.617 4.08 0 7.135-2.963 7.135-6.617 0-3.655-3.055-6.618-7.135-6.618zm0 10.149c-1.953 0-3.455-1.531-3.455-3.507 0-2 1.502-3.53 3.455-3.53 1.927 0 3.455 1.53 3.455 3.53 0 1.976-1.528 3.507-3.455 3.507zm27.438-14.47h-1.102c-.375 0-.626.148-.776.518l-6.133 14.001-6.134-14c-.15-.371-.4-.52-.775-.52h-1.102c-.4 0-.65.223-.676.618L88.483 21.74c-.026.444.2.691.65.691h.626c.426 0 .676-.222.726-.617l1.227-13.828 5.983 13.704c.15.346.4.519.776.519h.45c.376 0 .601-.173.751-.519l6.009-13.704 1.227 13.828c.05.395.3.617.725.617h.626c.45 0 .676-.247.65-.691l-1.526-15.977c-.026-.395-.275-.617-.676-.617zm11.116 4.691c-3.855 0-6.684 2.914-6.684 6.495 0 3.482 2.703 6.371 7.01 6.371 1.577 0 3.279-.395 4.731-1.605.426-.346.426-.741.15-1.038l-.2-.197c-.275-.272-.601-.296-.927-.074-1.151.864-2.428 1.235-3.754 1.235-3.08 0-5.257-2.025-5.082-4.766h10.339c.45 0 .726-.247.65-.667-.325-3.95-3.179-5.754-6.233-5.754zm-4.581 4.964c.726-2.272 2.679-3.284 4.631-3.284 1.728 0 3.68.74 4.256 3.284h-8.887zm19.452-4.964c-3.855 0-6.684 2.914-6.684 6.495 0 3.482 2.704 6.371 7.01 6.371 1.577 0 3.279-.395 4.731-1.605.426-.346.426-.741.15-1.038l-.2-.197c-.275-.272-.601-.296-.927-.074-1.151.864-2.428 1.235-3.754 1.235-3.08 0-5.257-2.025-5.082-4.766h10.339c.45 0 .726-.247.65-.667-.325-3.95-3.179-5.754-6.233-5.754zm-4.581 4.964c.726-2.272 2.679-3.284 4.631-3.284 1.728 0 3.68.74 4.256 3.284h-8.887zm23.834-4.691h-.576c-.425 0-.675.271-.675.666v10.989c0 .42.25.667.676.667h.575c.401 0 .651-.247.651-.667v-10.99c0-.419-.25-.666-.651-.666zm-.3-5.507c-.802 0-1.377.592-1.377 1.407 0 .79.575 1.383 1.377 1.383.775 0 1.376-.593 1.376-1.383 0-.815-.6-1.407-1.376-1.407zm10.839 5.234c-1.852 0-3.68.939-4.355 2.89v-1.951c0-.42-.25-.667-.676-.667h-.576c-.4 0-.65.272-.65.667v10.988c0 .42.25.667.65.667h.576c.425 0 .676-.247.676-.667v-5.309c.024-3.976 2.854-4.938 4.23-4.938 1.578 0 3.155.938 3.155 3.926v6.321c0 .42.25.667.676.667h.575c.426 0 .676-.247.676-.667v-6.321c0-4.074-2.303-5.606-4.957-5.606zm19.728.273h-.576c-.426 0-.65.271-.65.666v1.778c-1.127-1.852-2.88-2.717-4.907-2.717-3.83 0-6.233 2.914-6.233 6.446 0 3.53 2.453 6.42 6.233 6.42 2.003 0 3.78-.815 4.907-2.692v2.124c0 2.816-1.853 4.445-4.556 4.445-1.427 0-2.729-.296-3.956-1.086-.4-.272-.701-.223-.901.198l-.175.296c-.2.37-.126.691.2.914 1.251.84 2.728 1.333 4.831 1.333 3.53 0 6.459-2 6.459-5.951V10.776c0-.42-.25-.667-.676-.667zm-5.908 10.914c-2.879 0-4.556-2.149-4.556-4.741 0-2.593 1.652-4.766 4.531-4.766 2.83 0 4.731 2.05 4.731 4.766 0 2.765-1.952 4.74-4.706 4.74zm-28.419-10.922h-3.632V6.964c0-.37-.226-.568-.602-.568h-.325c-.35 0-.576.173-.627.544l-.375 3.162h-1.704c-.275 0-.4.148-.4.396v.716c0 .272.125.396.4.396h1.704v7.267c0 2.784 1.594 3.55 3.21 3.55h1.725c.426 0 .676-.248.676-.667v-.347c0-.395-.25-.642-.676-.642h-1.725c-.676 0-1.282-.386-1.282-1.668v-7.494h3.632c.25 0 .4-.123.4-.395v-.717c.001-.247-.149-.395-.4-.395z"/></g><path d="M23.663 15.925a3.758 3.758 0 0 0-4.074.144.752.752 0 0 1-.802.041l-3.691-2.102a.09.09 0 0 1 0-.159l3.67-2.09a.753.753 0 0 1 .807.044 3.76 3.76 0 0 0 4.083.16c1.673-.994 2.28-3.186 1.351-4.88-1-1.824-3.32-2.463-5.127-1.434a3.651 3.651 0 0 0-1.844 3.49.733.733 0 0 1-.365.705l-3.69 2.1a.093.093 0 0 1-.14-.079V7.661c0-.287.174-.545.439-.665 1.401-.636 2.332-2.108 2.137-3.767-.195-1.668-1.573-3.02-3.264-3.206C10.91-.222 9.01 1.503 9.01 3.665c0 1.477.886 2.75 2.162 3.33.266.12.439.378.439.666v4.204a.093.093 0 0 1-.14.08L7.784 9.843a.73.73 0 0 1-.365-.702A3.658 3.658 0 0 0 5.172 5.45c-1.56-.663-3.432-.162-4.44 1.188a3.638 3.638 0 0 0 1.127 5.36 3.759 3.759 0 0 0 4.022-.195.753.753 0 0 1 .808-.045l3.67 2.09a.09.09 0 0 1 0 .16l-3.691 2.101a.752.752 0 0 1-.803-.041 3.76 3.76 0 0 0-4.073-.144C.124 16.92-.48 19.11.447 20.801c1 1.823 3.32 2.462 5.128 1.432a3.652 3.652 0 0 0 1.842-3.512.731.731 0 0 1 .365-.707l3.691-2.103a.093.093 0 0 1 .14.08v4.204a.734.734 0 0 1-.438.665c-1.401.636-2.332 2.108-2.138 3.767.195 1.668 1.573 3.02 3.265 3.206 2.243.245 4.141-1.48 4.141-3.642 0-1.477-.886-2.75-2.162-3.33a.734.734 0 0 1-.439-.666V15.99c0-.071.078-.115.14-.08l3.691 2.103a.73.73 0 0 1 .365.707 3.652 3.652 0 0 0 1.842 3.512c1.808 1.03 4.128.39 5.128-1.432.927-1.691.323-3.88-1.345-4.876z" fill="#FF9800"/><g fill="#A7A8AA"><path d="M150.304 26.912c-.013.007-.026.01-.04.014l-.045.01c-.015.009-.03.013-.04.02-.011.007-.02.014-.021.025v.014c.005.006.008.008.01.012.007.013.012.023.02.032.01.008.018.018.029.028l.184.214.029.034c.008.01.018.022.02.034.01.015.006.03-.007.041l-.017.005c-.008 0-.02 0-.031.002a.15.15 0 0 1-.052 0l-.028-.005a.072.072 0 0 1-.03-.005.11.11 0 0 1-.042-.036c-.013-.014-.024-.029-.04-.038l-.19-.233c-.02-.017-.031-.035-.044-.053a.274.274 0 0 0-.058-.05.199.199 0 0 0-.045-.01l-.057-.001h-.028l-.042.008a.067.067 0 0 0-.031.013.12.12 0 0 0-.017.046v.294c.003.016 0 .03-.008.045-.002.007-.015.014-.03.019a.147.147 0 0 1-.048.007c-.017.002-.033 0-.051 0a.158.158 0 0 1-.043-.01c-.006-.008-.01-.01-.018-.021l-.003-.021v-.015c-.003-.006-.003-.018-.003-.03 0-.01.003-.02.003-.033v-.815c0-.013 0-.024.01-.033a.069.069 0 0 1 .038-.02h.35c.096 0 .182 0 .249.005.077.002.135.02.197.052a.239.239 0 0 1 .06.035.25.25 0 0 1 .065.113l.007.043v.021a.065.065 0 0 1 0 .051c-.003.025-.01.042-.013.052a.209.209 0 0 1-.06.084.484.484 0 0 1-.09.056zm-.432-.069c.039 0 .076 0 .107-.002.039 0 .072-.005.1-.006a.744.744 0 0 0 .084-.02.142.142 0 0 0 .06-.038.13.13 0 0 0 .035-.06.086.086 0 0 0 .007-.06c-.007-.02-.008-.036-.018-.049a.16.16 0 0 0-.071-.06c-.036-.01-.064-.019-.113-.024-.042-.003-.086-.008-.135-.008h-.15s-.007 0-.011.002c-.006.003-.01.003-.015.003a.071.071 0 0 0-.042.021c-.007.005-.007.014-.01.017 0 .007 0 .012-.004.018v.025c-.003.009-.006.02-.003.029v.116c-.002.031.003.057.017.07.014.016.036.024.068.024.032.002.063.002.094.002z"/><path d="M149.728 27.509a.746.746 0 0 1-.75-.742c0-.407.337-.738.75-.738.416 0 .75.33.75.738 0 .41-.334.742-.75.742zm0-1.363a.627.627 0 0 0-.632.621c0 .343.284.623.632.623.348 0 .632-.28.632-.623a.627.627 0 0 0-.632-.621zm-41.267 9.604v-.734a.256.256 0 0 0-.058-.169c-.022-.028-.07-.051-.144-.066a1.517 1.517 0 0 0-.234-.03 5.027 5.027 0 0 0-.259 0c-.094.006-.17.008-.231.008h-2.009c-.16 0-.267-.051-.32-.147a.503.503 0 0 1-.027-.131 1.302 1.302 0 0 1-.007-.15v-.114c0-.069-.01-.09-.007-.145.005-.056-.006-.134-.006-.192v-5.379a.352.352 0 0 0-.055-.21c-.04-.052-.098-.08-.179-.085a5.763 5.763 0 0 0-.246-.005h-.968c-.017.007-.03.01-.044.005a.082.082 0 0 0-.049.006c-.09.023-.15.06-.181.113a.36.36 0 0 0-.04.159 3.418 3.418 0 0 0-.006.203v7.237c0 .072.014.129.046.176a.238.238 0 0 0 .177.105c.08.012.174.019.28.019h4.271c.074 0 .131-.015.17-.046a.246.246 0 0 0 .113-.125.293.293 0 0 0 .02-.135c-.007-.052-.007-.108-.007-.169zm6.188-2.469v-.062a3.036 3.036 0 0 0-.112-.76 1.706 1.706 0 0 0-.06-.191c-.038-.104-.07-.205-.1-.298a1.152 1.152 0 0 0-.126-.265l-.154-.236a2.704 2.704 0 0 0-.167-.226 1.198 1.198 0 0 0-.224-.23 5.365 5.365 0 0 0-.254-.2 2.882 2.882 0 0 0-.474-.259c-.247-.167-.776-.281-1.386-.281l-.042.001h-.11c-.005 0-.012.003-.012.003-.067.003-.128.005-.187.011a.904.904 0 0 0-.13.01l-.01.003c-.387.04-.705.13-.886.247a1.76 1.76 0 0 0-.235.098 3.49 3.49 0 0 0-.7.569 2.799 2.799 0 0 0-.49.771 1.73 1.73 0 0 0-.09.275 6.086 6.086 0 0 1-.08.288.294.294 0 0 0-.025.108v.044l-.016.077a4.002 4.002 0 0 0-.045.49l-.001.065v.037c0 .393.056.741.144.95.013.052.028.105.039.154a.98.98 0 0 0 .085.215c.132.295.289.545.48.756.19.21.421.394.686.552.086.045.166.083.246.112.078.03.166.062.257.091.063.027.13.048.199.063.214.074.547.123.923.123.373 0 .709-.049.922-.124h.003a1.52 1.52 0 0 0 .285-.084c.363-.151.674-.339.935-.563.256-.225.467-.518.627-.88a1.25 1.25 0 0 0 .092-.242c.021-.086.05-.17.08-.254.002-.02.006-.039.01-.058a3.08 3.08 0 0 0 .103-.844v-.056zm-1.712.835c-.015.074-.037.15-.068.224a1.683 1.683 0 0 1-.308.475 1.252 1.252 0 0 1-.48.302c-.052.024-.114.029-.171.048-.071.02-.098.02-.155.031h-.063a.68.68 0 0 1-.153.007c-.035-.005-.069.007-.098 0-.03-.01-.038-.007-.07-.01a1.734 1.734 0 0 1-.288-.076.654.654 0 0 1-.179-.09 1.207 1.207 0 0 1-.414-.377 2.386 2.386 0 0 1-.21-.44c-.09-.185-.148-.506-.148-.87 0-.311.04-.592.11-.778a1.75 1.75 0 0 1 .303-.625c.12-.155.273-.275.464-.356a.508.508 0 0 1 .131-.052c.05-.01.1-.022.154-.04.02-.006.051-.01.081-.015.035-.004.025 0 .078-.006.069-.007.137-.002.205-.006a.656.656 0 0 1 .195.017c.052.016.102.028.148.04.045.01.092.023.137.04.19.083.343.193.458.332.114.137.212.307.295.5a1.07 1.07 0 0 1 .057.215c.06.187.096.446.096.733a2.535 2.535 0 0 1-.107.777zm17.278-5.87c-.036-.03-.094-.045-.166-.045h-1.964a.277.277 0 0 0-.177.056.306.306 0 0 0-.125.146l-.067.181c-.04.12-.077.24-.115.355-.041.115-.075.234-.115.354-.152.467-.305.93-.458 1.392l-.456 1.38a8.993 8.993 0 0 0-.165.513 13.66 13.66 0 0 1-.235.715.264.264 0 0 1-.04.081c-.037.075-.082.114-.126.114-.083 0-.159-.145-.214-.376a3.734 3.734 0 0 1-.121-.36 4.964 4.964 0 0 0-.159-.462 28.78 28.78 0 0 1-.51-1.452 37.19 37.19 0 0 0-.496-1.444 21.48 21.48 0 0 0-.263-.742 5.706 5.706 0 0 1-.068-.21.309.309 0 0 0-.113-.163.475.475 0 0 0-.292-.078h-1.87a.068.068 0 0 1-.045.005.073.073 0 0 0-.045.005c-.092.023-.153.06-.184.114a.472.472 0 0 0-.032.13.98.98 0 0 0-.012.173v7.109c0 .083.002.164.012.243.007.078.032.137.08.175a.285.285 0 0 0 .17.06c.067.003.143.007.228.007h.595c.06 0 .12 0 .182.005a.43.43 0 0 0 .17-.017c.085-.014.142-.048.172-.102.032-.035.046-.084.046-.146v-3.729a2.63 2.63 0 0 0 .011-.249v-.246c0-.06.005-.151 0-.207-.003-.056.002-.079 0-.133-.002-.074 0-.109 0-.161 0-.053.026-.142.092-.133.028.002.042.007.056.02.017.01.032.024.047.038a1.2 1.2 0 0 1 .125.259c.006.015.011.03.02.046l1.501 4.24.004-.002c.018.055.037.111.062.168.033.068.055.127.082.173.02.05.064.091.125.13a.28.28 0 0 0 .135.046c.063.007.13.01.202.01.07 0 .144 0 .216-.006.071-.004.135-.004.188-.004h.265c.067.002.104 0 .14-.004a.211.211 0 0 0 .126-.043.213.213 0 0 0 .07-.103c.017-.042.032-.062.049-.11l.05-.12 1.57-4.502.004-.008c.015-.04.027-.08.053-.12.02-.04.04-.063.067-.111.005-.009.01-.022.022-.038.013-.016.07-.047.093-.04.047.015.052.022.063.08.012.061.01.179.009.236-.005.069.01.126.007.189-.005.065-.005.127-.005.186v.289c0 .092.001.194.011.297v3.661c0 .063.014.112.046.147a.154.154 0 0 0 .108.079c.042.01.093.02.153.035h.859c.08 0 .158-.004.228-.007a.294.294 0 0 0 .17-.06c.046-.038.071-.097.073-.175.005-.08.008-.16.008-.243V28.5c0-.124-.044-.21-.127-.255zm-9.284 2.427c-.005-.086-.032-.147-.084-.184a.288.288 0 0 0-.167-.063 3.821 3.821 0 0 0-.221-.005h-.583c-.07 0-.138 0-.202.005a.357.357 0 0 0-.165.051.25.25 0 0 0-.063.106c-.005.026-.005.04-.01.074-.02.134-.069.242-.168.254a.17.17 0 0 1-.149-.066.54.54 0 0 1-.077-.063 1.462 1.462 0 0 0-.126-.112 1.738 1.738 0 0 1-.08-.064c-.023-.018-.046-.034-.07-.051a1.676 1.676 0 0 0-.325-.16c-.087-.052-.248-.093-.45-.114a2.016 2.016 0 0 0-.329-.02h-.03a2.81 2.81 0 0 0-.229.009h-.016c-.251.017-.456.061-.56.122a2.252 2.252 0 0 0-.731.389l-.068.067a1.59 1.59 0 0 0-.12.104.488.488 0 0 0-.1.11c-.052.07-.103.134-.153.197a1.52 1.52 0 0 0-.132.21 1.967 1.967 0 0 0-.186.383 2.472 2.472 0 0 0-.049.137 2.542 2.542 0 0 0-.174.755.178.178 0 0 0-.006.064v.003a4.875 4.875 0 0 0-.017.282v.125c0 .525.081.987.206 1.254l.023.049c.137.323.305.598.508.828.201.23.465.407.793.535.084.038.175.065.275.083.097.02.201.04.31.064a.297.297 0 0 0 .084.011c.025 0 .052.005.074.01h.09c.04.01.1.014.184.014a.768.768 0 0 0 .183-.014c.038-.005.078-.013.122-.016.038-.004.086-.01.13-.017l.262-.067c.082-.023.168-.051.249-.09.086-.037.162-.078.23-.124a2.814 2.814 0 0 0 .273-.201c.016-.015.035-.034.054-.048a.175.175 0 0 1 .077-.038.165.165 0 0 1 .137.006c.08.045.092.137.08.276l-.003.063a.57.57 0 0 0-.006.087c0 .083-.021.153-.025.232a1.434 1.434 0 0 1-.029.22c-.013.053-.026.1-.033.146a.935.935 0 0 1-.033.134c-.07.15-.157.283-.263.394-.067.07-.143.132-.23.184a.615.615 0 0 1-.131.07.309.309 0 0 1-.107.04 1.838 1.838 0 0 1-.873.04.896.896 0 0 1-.272-.097.552.552 0 0 1-.104-.058 1.36 1.36 0 0 1-.13-.098l-.015-.014a.804.804 0 0 1-.125-.151l-.024-.027a3.096 3.096 0 0 1-.136-.197c-.03-.05-.106-.088-.23-.118-.038 0-.068-.004-.096-.007a.51.51 0 0 0-.097-.006h-.387a6.43 6.43 0 0 1-.27-.005.973.973 0 0 0-.255.018.288.288 0 0 0-.177.094c-.045.05-.053.122-.03.22.007.015.01.035.01.055 0 .025.01.046.026.068.105.309.273.554.502.739a3.2 3.2 0 0 0 .774.455c.07.03.14.057.214.075.072.016.145.034.221.05.011.005.024.01.04.012.181.043.442.072.739.076.013.003.027.003.042.003h.043c.305 0 .579-.027.776-.068.08-.01.164-.023.244-.045.093-.024.18-.046.263-.07.083-.021.167-.05.253-.09a2.39 2.39 0 0 0 .735-.461c.2-.189.366-.424.497-.71.037-.084.067-.172.087-.264.017-.094.041-.195.072-.298.008-.06.015-.116.018-.164.003-.049.01-.104.016-.163 0-.059 0-.117.006-.175a3.28 3.28 0 0 0 .004-.175v-4.81c0-.09-.002-.177-.005-.264zm-1.525 2.704a2 2 0 0 1-.046.333 1.26 1.26 0 0 1-.08.258 1.67 1.67 0 0 1-.29.486 1.17 1.17 0 0 1-.463.315.542.542 0 0 1-.181.057s-.006 0-.008.002a1.19 1.19 0 0 1-.172.029c-.006 0-.01 0-.016.003h-.016c-.036.002-.072.005-.11.005a.117.117 0 0 1-.055.001c-.007-.001-.014-.001-.02-.003-.053 0-.103-.008-.15-.015h-.024l-.042-.01a1.02 1.02 0 0 1-.198-.066c-.028-.012-.056-.023-.082-.037a1.08 1.08 0 0 1-.41-.354 2.175 2.175 0 0 1-.249-.514c-.01-.035-.017-.07-.025-.104a2.032 2.032 0 0 1-.042-.23l-.004-.014v-.011a2.58 2.58 0 0 1-.017-.212 1.646 1.646 0 0 1-.003-.273c.003-.11.013-.202.026-.277.006-.059.016-.115.03-.167v-.006a.22.22 0 0 1 .024-.09v-.003c.027-.102.06-.186.098-.252.049-.105.103-.203.162-.297a.978.978 0 0 1 .458-.371l.035-.012c.114-.06.287-.097.478-.097.133 0 .256.019.354.048.17.035.314.092.424.173.2.143.352.345.457.609.022.046.04.093.058.146.014.052.032.106.045.157.004.02.007.038.007.052.008.04.014.079.02.119.021.086.032.178.034.28.004.111 0 .227-.007.342zm17.221-.525a2.623 2.623 0 0 0-.09-.42 3.057 3.057 0 0 0-.198-.555 1.298 1.298 0 0 0-.088-.183l-.021-.033a3.268 3.268 0 0 0-.304-.463c-.007-.007-.012-.016-.016-.023l-.005-.001a1.542 1.542 0 0 0-.27-.263 2.247 2.247 0 0 0-.206-.153 3.114 3.114 0 0 0-.75-.365l-.006-.001c-.192-.079-.519-.13-.888-.13l-.023.002h-.086c-.072.002-.14.006-.207.01-.04.003-.086.006-.131.014a1.674 1.674 0 0 0-.674.167 2.969 2.969 0 0 0-1.743 1.872c-.07.204-.118.458-.138.743l-.005.021v.02a2.463 2.463 0 0 0-.006.171l-.001.037v.043c0 .479.084.906.212 1.186.02.075.05.15.082.222.121.264.276.494.467.695.192.197.407.372.652.523.061.039.127.068.2.095.065.023.318.126.43.16.09.03.195.054.313.075a1.883 1.883 0 0 0 .389.045c.067.005.137.008.207.008h.078c.77-.045.891-.118 1.278-.25.253-.092.297-.133.474-.258.212-.151.401-.35.571-.597a1.885 1.885 0 0 0 .285-.53.313.313 0 0 0 .017-.135.132.132 0 0 0-.012-.053c-.012-.07-.062-.119-.12-.119h-.252a.237.237 0 0 0-.072-.003l-.03.003h-.378l-.06-.003c-.034 0-.066 0-.097.003h-.071a.39.39 0 0 0-.248.132c-.026.03-.058.071-.082.1-.043.05-.067.079-.112.128-.06.064-.07.066-.166.128a3.458 3.458 0 0 1-.259.145l-.003.002c-.084.043-.2.077-.337.1-.02.002-.04.01-.06.012h-.03a2.396 2.396 0 0 1-.346.01h-.006a1.448 1.448 0 0 1-.561-.12 1.175 1.175 0 0 1-.431-.349 1.528 1.528 0 0 1-.232-.437c-.003-.006-.016-.042-.02-.049-.013-.042-.016-.078-.025-.143-.001-.031-.005-.058-.005-.084a.208.208 0 0 1 .005-.083c.007-.04.02-.071.036-.086a.059.059 0 0 1 .019-.023c.014-.03.05-.06.112-.09a.389.389 0 0 1 .133-.023h2.941c.067 0 .145.002.233.005.089.006.177.006.263 0 .088-.003.167-.01.239-.021a.339.339 0 0 0 .165-.062c.04-.022.066-.073.08-.147a1.48 1.48 0 0 0 .017-.283c.01-.13-.003-.164-.027-.34zm-1.702-.246c-.038.061-.114.092-.23.095a9.17 9.17 0 0 1-.339.007h-1.577a.466.466 0 0 1-.25-.057.195.195 0 0 1-.075-.113.34.34 0 0 1-.005-.14.642.642 0 0 1 .04-.146 1.207 1.207 0 0 1 .793-.738.763.763 0 0 1 .129-.04c.052-.014.164-.03.197-.033.032-.004.507-.06.817.18.161.127.316.265.423.467.02.052.054.133.095.244.042.107.038.198-.018.274z"/><path d="M143.815 25.629c-3.744 0-6.78 2.991-6.78 6.685 0 3.692 3.036 6.686 6.78 6.686 3.742 0 6.776-2.994 6.776-6.686 0-3.694-3.034-6.685-6.776-6.685zm-2.327 10.552c-.027.052-.098.094-.204.124a.378.378 0 0 1-.172.01 1.99 1.99 0 0 0-.182-.01h-.675c-.083 0-.16-.003-.234-.011a.304.304 0 0 1-.176-.067.272.272 0 0 1-.07-.168 3.188 3.188 0 0 1-.01-.238v-6.738c0-.104 0-.227-.007-.37-.001-.144.016-.242.053-.303a.313.313 0 0 1 .148-.114.227.227 0 0 0 .061-.007.248.248 0 0 1 .054-.005h.98c.086 0 .164.002.241.005a.218.218 0 0 1 .17.085c.04.053.06.122.063.202.005.085.007.174.007.272v6.734c0 .1 0 .209.005.331a.456.456 0 0 1-.052.268zm6.696-3.39v2.827c0 .143-.001.282-.005.412-.005.131-.062.217-.165.252a.55.55 0 0 1-.16.023h-.804a1.85 1.85 0 0 1-.243-.016.242.242 0 0 1-.166-.097.326.326 0 0 1-.051-.174 3.679 3.679 0 0 1-.006-.23V33.32a7.79 7.79 0 0 0-.035-.773 1.249 1.249 0 0 0-.204-.602.815.815 0 0 0-.377-.284 1.124 1.124 0 0 0-.468-.087c-.223 0-.418.048-.514.116a.944.944 0 0 0-.206.11c-.244.172-.388.424-.433.753a8.197 8.197 0 0 0-.071 1.115v2.299a.359.359 0 0 1-.033.169.232.232 0 0 1-.183.146 1.837 1.837 0 0 1-.309.023h-.57a2.3 2.3 0 0 1-.25-.012c-.085-.006-.145-.032-.182-.079-.055-.067-.078-.163-.076-.291.004-.128.007-.25.007-.36v-4.587c0-.083 0-.159.002-.226a.293.293 0 0 1 .067-.17.134.134 0 0 1 .073-.049c.033-.01.071-.023.108-.028h.057a.65.65 0 0 1 .12-.01h.6c.06 0 .12 0 .176.004.057.003.11.011.156.03a.184.184 0 0 1 .109.1c.015.038.015.083.029.133.032.13.067.271.166.284a.161.161 0 0 0 .125-.05.57.57 0 0 0 .081-.08 1.04 1.04 0 0 1 .219-.194 1.717 1.717 0 0 1 .583-.276c.005 0 .014-.004.023-.007a.851.851 0 0 1 .194-.043 1.26 1.26 0 0 1 .09-.015 2.41 2.41 0 0 1 .67-.03c.32.019.595.08.827.19.305.142.545.352.719.63.055.082.096.172.127.265l.092.285c.013.063.024.117.028.172a.844.844 0 0 0 .027.156c0 .047.006.075.013.09.017.106.023.214.023.328v.324zm-53.04.334a.87.87 0 0 1 .022.232c0 .109-.003.186-.01.23a.741.741 0 0 1-.005.095.495.495 0 0 0-.007.096.667.667 0 0 0-.024.173.708.708 0 0 1-.023.176c0 .03-.005.083-.02.157a3.19 3.19 0 0 0-.064.277 1.29 1.29 0 0 1-.086.262 3.383 3.383 0 0 1-.513.88 2.113 2.113 0 0 1-1.021.654c-.07.02-.148.039-.232.063a.452.452 0 0 1-.142.023.888.888 0 0 0-.145.01h-.1a.463.463 0 0 1-.183.016.679.679 0 0 1-.183-.026h-.068a.98.98 0 0 0-.126-.018c-.044-.001-.091-.009-.136-.016a8.913 8.913 0 0 1-.398-.113 1.437 1.437 0 0 1-.343-.157c-.044-.03-.089-.059-.13-.09a1.066 1.066 0 0 1-.12-.102l-.067-.045a.35.35 0 0 0-.07-.033c-.067-.023-.11-.008-.126.046a.45.45 0 0 0-.072.185.27.27 0 0 1-.087.163.331.331 0 0 1-.16.05 3.68 3.68 0 0 1-.204.005h-.547c-.053 0-.11.002-.165.005a.412.412 0 0 1-.154-.016c-.107-.036-.165-.107-.176-.208a3.095 3.095 0 0 1-.018-.343v-7.115c0-.09.019-.161.056-.212.032-.054.085-.087.161-.103a.078.078 0 0 1 .051-.005c.02.004.036.002.05-.005h.72a3 3 0 0 1 .35.017c.1.012.167.069.195.174.025.075.03.173.025.298-.01.124-.012.23-.012.32v1.472c0 .083.006.154.022.215.007.038.017.07.023.096a.073.073 0 0 0 .056.05c.016.015.036.02.063.02.029 0 .05-.001.063-.01.054-.03.103-.06.149-.095.045-.033.095-.07.147-.106a2.247 2.247 0 0 1 .662-.305.612.612 0 0 1 .182-.039.829.829 0 0 0 .183-.029.623.623 0 0 1 .17-.022h.296c.022.007.05.009.08.006a.257.257 0 0 1 .09.007c.085.021.164.038.236.05.072.012.141.033.21.06.349.143.634.328.855.552.22.225.406.506.559.842.038.092.069.185.097.283.027.096.053.197.086.304a.8.8 0 0 1 .027.15.904.904 0 0 0 .028.164c.015.039.02.079.018.123a.458.458 0 0 0 .005.136v.076zm-1.687 1.056c.023-.073.045-.166.062-.28.02-.112.03-.226.034-.342a5.13 5.13 0 0 0 0-.348 1.286 1.286 0 0 0-.039-.298 1.026 1.026 0 0 1-.046-.215.518.518 0 0 0-.058-.19 1.862 1.862 0 0 0-.449-.668c-.194-.184-.476-.275-.85-.275a.554.554 0 0 0-.078.005.484.484 0 0 1-.08.007 6.56 6.56 0 0 0-.147.037 2.305 2.305 0 0 0-.138.041 1.09 1.09 0 0 0-.502.409 2.694 2.694 0 0 0-.284.602.593.593 0 0 0-.04.185 1.032 1.032 0 0 1-.03.186.457.457 0 0 0-.01.11.23.23 0 0 0-.006.091c.002.03.002.06-.005.09a.84.84 0 0 0-.014.248c.01.104.022.178.035.225.016.066.025.13.03.189a.57.57 0 0 0 .04.18 2.4 2.4 0 0 0 .245.546c.096.153.229.283.403.388.125.075.247.127.377.158a.22.22 0 0 1 .053.006.32.32 0 0 0 .06.005.907.907 0 0 0 .115.017.565.565 0 0 0 .138-.007c.074-.015.145-.029.208-.04a.89.89 0 0 0 .19-.05c.212-.096.376-.232.494-.405.119-.171.216-.373.292-.607zm1.923-3.686h1.092c.077 0 .141.016.195.044.093.06.153.155.188.283.034.128.07.244.108.348.038.09.072.185.096.282.03.096.06.19.096.279.06.174.12.343.173.513.053.168.11.334.17.501l.24.705c.022.069.042.139.063.21.019.07.044.14.074.207.02.06.047.128.075.202.024.075.082.109.164.102a.195.195 0 0 1 .038-.03c.014-.001.026-.012.04-.025a.747.747 0 0 0 .058-.114c.017-.036.031-.075.048-.112.037-.081.067-.17.09-.264a3.18 3.18 0 0 1 .078-.275 39.2 39.2 0 0 0 .31-.934c.098-.308.2-.617.306-.933.038-.103.07-.209.097-.309.026-.1.058-.2.096-.296.024-.06.044-.119.065-.176a.26.26 0 0 1 .108-.14.279.279 0 0 1 .169-.061c.07-.002.146-.006.228-.006h.695c.077 0 .147.006.219.011a.27.27 0 0 1 .16.069c.045.052.05.12.022.202-.016.06-.035.12-.058.18s-.045.122-.069.18c-.105.261-.21.53-.308.805-.098.273-.199.542-.307.804-.048.11-.088.225-.125.34a7.507 7.507 0 0 1-.125.344l-.114.304a11.82 11.82 0 0 0-.116.304c-.15.373-.292.75-.428 1.128a19.67 19.67 0 0 1-.425 1.118.73.73 0 0 0-.05.148.69.69 0 0 1-.054.133c-.06.143-.118.281-.168.417a5.555 5.555 0 0 1-.172.387 1.96 1.96 0 0 1-.217.344 1.424 1.424 0 0 1-.31.28 1.255 1.255 0 0 1-.323.163c-.117.043-.245.08-.382.12a.77.77 0 0 1-.184.021.726.726 0 0 0-.18.023h-.513c-.083 0-.165-.004-.245-.012a2.581 2.581 0 0 1-.217-.027.349.349 0 0 1-.141-.053.192.192 0 0 1-.072-.105 2.028 2.028 0 0 1-.043-.151v-.676c0-.142.046-.233.138-.268a.44.44 0 0 1 .153-.03.435.435 0 0 1 .166.02h.419a.293.293 0 0 1 .094-.013c.03 0 .059-.007.09-.023a.63.63 0 0 0 .455-.459.586.586 0 0 0 .044-.136.254.254 0 0 0 0-.156.397.397 0 0 1-.021-.114.316.316 0 0 0-.023-.111 7.93 7.93 0 0 0-.319-.876 7.004 7.004 0 0 1-.165-.429 6.661 6.661 0 0 0-.164-.427 2.44 2.44 0 0 1-.098-.27 2.359 2.359 0 0 0-.096-.268 13.012 13.012 0 0 1-.337-.878 11.719 11.719 0 0 0-.337-.876.2.2 0 0 1-.023-.072.1.1 0 0 0-.022-.064 3.193 3.193 0 0 1-.154-.41 3.27 3.27 0 0 0-.153-.398c-.018-.046-.04-.11-.072-.196a.305.305 0 0 1-.02-.22c.022-.06.072-.098.148-.113.017-.005.028-.006.04-.005.012 0 .025 0 .041-.01z"/></g></g></svg>