<svg width="220" height="40" xmlns="http://www.w3.org/2000/svg"><defs><filter x="-31%" y="-46.4%" width="161.9%" height="192.9%" filterUnits="objectBoundingBox" id="a"><feOffset in="SourceAlpha" result="shadowOffsetOuter1"/><feGaussianBlur stdDeviation="1.5" in="shadowOffsetOuter1" result="shadowBlurOuter1"/><feColorMatrix values="0 0 0 0 0 0 0 0 0 0 0 0 0 0 0 0 0 0 0.315868433 0" in="shadowBlurOuter1" result="shadowMatrixOuter1"/><feMerge><feMergeNode in="shadowMatrixOuter1"/><feMergeNode in="SourceGraphic"/></feMerge></filter></defs><g fill="none" fill-rule="evenodd"><path d="M46.36 13.482h-5.6a1.106 1.106 0 0 0-.914.315 1.14 1.14 0 0 0-.33.919v.565a1.14 1.14 0 0 0 .33.918c.242.24.578.356.913.315h3.067v2.775c-.96.482-2.02.729-3.092.72a5.413 5.413 0 0 1-4.093-1.596 5.568 5.568 0 0 1-1.61-4.134 5.62 5.62 0 0 1 1.565-4.051 5.468 5.468 0 0 1 3.96-1.68 6.521 6.521 0 0 1 3.347.746c.709.334 1.241.283 1.697-.36l.634-.822a1.098 1.098 0 0 0-.304-1.721 10.1 10.1 0 0 0-5.374-1.388c-5.55 0-9.556 4.214-9.556 9.301 0 5.037 3.93 9.25 9.658 9.25a10.127 10.127 0 0 0 6.16-2.081c.516-.345.815-.94.785-1.567v-5.19a1.14 1.14 0 0 0-.33-.919 1.106 1.106 0 0 0-.912-.315zm10.319-3.7c-4.131 0-7.224 3.084-7.224 6.887 0 3.828 3.093 6.885 7.224 6.885 4.132 0 7.224-3.083 7.224-6.885 0-3.803-3.092-6.887-7.224-6.887zm0 10.56a3.61 3.61 0 0 1-3.422-2.18 3.7 3.7 0 0 1 .714-4.034 3.579 3.579 0 0 1 3.957-.838 3.664 3.664 0 0 1 2.249 3.404 3.57 3.57 0 0 1-.988 2.574 3.474 3.474 0 0 1-2.51 1.075zM75.817 7.497V6.52a1.139 1.139 0 0 0-.329-.918 1.106 1.106 0 0 0-.912-.315H62.459a1.088 1.088 0 0 0-.903.318 1.12 1.12 0 0 0-.314.915v.977c-.039.337.077.675.314.915s.57.358.903.318h4.056v13.31a1.12 1.12 0 0 0 .314.915c.237.24.57.357.903.318h1.52c.334.04.666-.078.904-.318.237-.24.352-.578.313-.916V8.73h4.107c.335.04.67-.075.912-.315.241-.24.362-.577.33-.918zm4.564 2.286c-4.132 0-7.224 3.084-7.224 6.887 0 3.828 3.092 6.885 7.224 6.885 4.131 0 7.224-3.083 7.224-6.885 0-3.803-3.093-6.887-7.224-6.887zm0 10.56a3.61 3.61 0 0 1-3.422-2.18 3.7 3.7 0 0 1 .714-4.034 3.579 3.579 0 0 1 3.957-.838 3.664 3.664 0 0 1 2.249 3.404 3.571 3.571 0 0 1-.988 2.574 3.474 3.474 0 0 1-2.51 1.075zm24.005.412a.605.605 0 0 0-.938-.257 8.635 8.635 0 0 1-4.41 1.233c-4.79 0-7.554-3.417-7.554-7.451s2.763-7.451 7.554-7.451a8.634 8.634 0 0 1 4.41 1.233.605.605 0 0 0 .938-.257l.178-.334a.66.66 0 0 0-.254-.925 9.061 9.061 0 0 0-5.272-1.542c-6.032 0-9.582 4.266-9.582 9.276s3.55 9.275 9.582 9.275a9.017 9.017 0 0 0 5.4-1.618c.278-.18.303-.463.126-.848l-.178-.334zm8.214-10.586c-3.637.035-6.56 3.045-6.54 6.732.021 3.686 2.98 6.662 6.616 6.654 3.637-.007 6.584-2.993 6.591-6.68-.02-3.715-3.002-6.714-6.667-6.706zm0 11.64c-2.624-.052-4.71-2.248-4.664-4.908.082-2.61 2.223-4.663 4.798-4.603 2.574.06 4.62 2.212 4.583 4.822-.037 2.61-2.142 4.702-4.717 4.688zm15.083-11.64c-1.96-.085-3.748 1.133-4.41 3.006v-2.03a.64.64 0 0 0-.18-.51.622.622 0 0 0-.505-.183h-.583a.628.628 0 0 0-.484.195.646.646 0 0 0-.175.498v11.434a.634.634 0 0 0 .17.503.615.615 0 0 0 .49.19h.582a.622.622 0 0 0 .504-.182.64.64 0 0 0 .181-.511v-5.524c.025-4.137 2.89-5.139 4.283-5.139 1.598 0 3.194.977 3.194 4.085v6.578a.64.64 0 0 0 .181.51.622.622 0 0 0 .504.184h.583a.622.622 0 0 0 .504-.183.64.64 0 0 0 .18-.511V16c0-4.24-2.331-5.832-5.019-5.832zm14.246 0c-1.96-.085-3.747 1.133-4.41 3.006v-2.03a.64.64 0 0 0-.18-.51.622.622 0 0 0-.504-.183h-.583a.628.628 0 0 0-.485.195.646.646 0 0 0-.174.498v11.434a.634.634 0 0 0 .17.503.615.615 0 0 0 .489.19h.583a.622.622 0 0 0 .504-.182.64.64 0 0 0 .18-.511v-5.524c.026-4.137 2.89-5.139 4.284-5.139 1.597 0 3.194.977 3.194 4.085v6.578a.64.64 0 0 0 .18.51.622.622 0 0 0 .505.184h.582a.622.622 0 0 0 .504-.183.64.64 0 0 0 .18-.511V16c0-4.24-2.331-5.832-5.019-5.832zm13.183 0a6.571 6.571 0 0 0-4.794 1.927 6.755 6.755 0 0 0-1.974 4.83c0 3.623 2.738 6.63 7.097 6.63a7.19 7.19 0 0 0 4.79-1.67.696.696 0 0 0 .152-1.079l-.202-.206a.669.669 0 0 0-.937-.078 6.075 6.075 0 0 1-3.803 1.285c-3.118 0-5.323-2.107-5.145-4.959h10.468c.457 0 .735-.257.66-.693-.33-4.111-3.22-5.987-6.312-5.987zm-4.64 5.165c.617-2.087 2.543-3.49 4.69-3.418 1.75 0 3.726.77 4.31 3.418h-9zm20.128-3.418a5.99 5.99 0 0 1 2.89.77c.406.207.685.18.938-.179l.178-.231a.621.621 0 0 0-.203-.976 7.599 7.599 0 0 0-3.878-1.131c-4.588 0-7.123 3.057-7.123 6.809.025 3.648 2.636 6.577 7.123 6.577a7.462 7.462 0 0 0 3.549-.925c.633-.334.76-.796.506-1.156l-.152-.231a.629.629 0 0 0-.938-.205 5.995 5.995 0 0 1-2.89.77c-3.117 0-5.221-2.081-5.246-4.933.025-2.852 2.129-4.959 5.246-4.959zm12.901-1.466h-3.677V7.184a.553.553 0 0 0-.165-.444.537.537 0 0 0-.444-.148h-.33a.576.576 0 0 0-.437.144.592.592 0 0 0-.197.422l-.38 3.29h-1.725a.359.359 0 0 0-.302.105.37.37 0 0 0-.103.307v.745c0 .283.127.412.405.412h1.725v7.562c0 2.897 1.614 3.693 3.25 3.693h1.747a.622.622 0 0 0 .504-.183.64.64 0 0 0 .181-.51v-.361a.633.633 0 0 0-.188-.496.615.615 0 0 0-.497-.173h-1.746c-.685 0-1.298-.402-1.298-1.735v-7.797h3.677a.359.359 0 0 0 .303-.104.37.37 0 0 0 .103-.308v-.745a.381.381 0 0 0-.108-.302.37.37 0 0 0-.298-.11z" fill="#53565A" fill-rule="nonzero"/><path d="M23.96 16.57a3.72 3.72 0 0 0-4.124.15.745.745 0 0 1-.813.042l-3.737-2.187a.096.096 0 0 1 0-.165l3.716-2.175a.745.745 0 0 1 .816.046 3.72 3.72 0 0 0 4.135.166c1.702-1.065 2.3-3.284 1.368-5.078a3.742 3.742 0 0 0-4.389-1.842c-1.709.519-2.823 2.182-2.67 3.983a.767.767 0 0 1-.37.732l-3.735 2.186a.093.093 0 0 1-.094 0 .096.096 0 0 1-.047-.082V7.97a.764.764 0 0 1 .443-.692c1.606-.748 2.481-2.53 2.103-4.28C16.184 1.249 14.655.001 12.887 0 11.12 0 9.59 1.247 9.212 2.998c-.379 1.75.496 3.532 2.102 4.28a.766.766 0 0 1 .444.694v4.374a.096.096 0 0 1-.047.082.093.093 0 0 1-.094 0l-3.736-2.186a.766.766 0 0 1-.37-.73c.152-1.785-.941-3.437-2.629-3.97A3.74 3.74 0 0 0 .495 7.296a3.85 3.85 0 0 0 .75 4.72 3.722 3.722 0 0 0 4.71.266.746.746 0 0 1 .817-.047l3.716 2.175a.096.096 0 0 1 0 .165l-3.737 2.187a.745.745 0 0 1-.813-.043 3.72 3.72 0 0 0-4.124-.149C.116 17.637-.478 19.853.453 21.644a3.743 3.743 0 0 0 4.4 1.839c1.711-.525 2.822-2.198 2.657-4.002a.767.767 0 0 1 .37-.737l3.737-2.187a.093.093 0 0 1 .094 0c.03.017.047.049.047.083v4.374a.764.764 0 0 1-.443.692c-1.606.749-2.482 2.53-2.104 4.28.378 1.751 1.907 2.999 3.675 3 1.768 0 3.298-1.248 3.676-2.998.379-1.75-.496-3.532-2.102-4.281a.765.765 0 0 1-.444-.693V16.64c0-.034.018-.066.047-.083a.093.093 0 0 1 .094 0l3.737 2.187c.255.151.4.439.37.737-.165 1.804.946 3.477 2.657 4.002a3.743 3.743 0 0 0 4.4-1.839c.931-1.791.337-4.007-1.36-5.074z" fill="#C4D600" fill-rule="nonzero"/><path d="M96.587 30.491c.177.251.308.532.386.83.086.36.115.731.087 1.1a2.83 2.83 0 0 1-.386 1.21.904.904 0 0 1-.099.147c-.149.214-.34.394-.56.531a3.52 3.52 0 0 1-.744.346.99.99 0 0 1-.265.058 1.72 1.72 0 0 0-.277.047.815.815 0 0 1-.138.012.867.867 0 0 0-.139.011h-1.76a.416.416 0 0 0-.259.07.327.327 0 0 0-.115.287v1.947c0 .094.001.195.005.304a.458.458 0 0 1-.051.258.332.332 0 0 1-.208.128.427.427 0 0 1-.173.012 1.527 1.527 0 0 0-.185-.012h-.669c-.085 0-.164-.001-.236-.005a.291.291 0 0 1-.18-.065.258.258 0 0 1-.08-.181 2.647 2.647 0 0 1-.011-.251V30.28c0-.11-.003-.238-.007-.386a.598.598 0 0 1 .053-.316.337.337 0 0 1 .172-.117.083.083 0 0 1 .053-.006.076.076 0 0 0 .051-.006h3.335c.069 0 .138-.002.207-.006a.654.654 0 0 1 .197.018h.058a.32.32 0 0 0 .126.023c.044 0 .087.008.128.023a.515.515 0 0 0 .103.012c.036.001.071.01.104.024.123.039.246.076.369.11a1.6 1.6 0 0 1 .347.147c.039.032.081.06.126.082.05.026.096.057.139.093a.538.538 0 0 1 .098.077c.03.03.063.06.098.087l.069.07c.086.086.163.18.23.281zm-1.269 1.918a1.63 1.63 0 0 0 .017-.321 1.408 1.408 0 0 0-.214-.731 1.008 1.008 0 0 0-.311-.281 1.346 1.346 0 0 0-.427-.158 3.408 3.408 0 0 0-.548-.064c-.196-.008-.398-.01-.606-.006-.208.004-.404.006-.588.006a.525.525 0 0 1-.064.017.308.308 0 0 1-.063.006.244.244 0 0 0-.15.14.566.566 0 0 0-.046.252v1.707a.496.496 0 0 0 .058.263c.033.05.082.087.138.106a.68.68 0 0 0 .207.04c.077.005.16.005.249 0a5.56 5.56 0 0 1 .247-.005 9.8 9.8 0 0 0 1.12-.059c.303-.02.584-.168.773-.409a1.13 1.13 0 0 0 .115-.228c.031-.082.062-.174.093-.275zm8.095 2.117a.856.856 0 0 1 0 .398v.116a.61.61 0 0 0-.017.188.608.608 0 0 1-.018.187c-.014.05-.026.1-.034.152a7.03 7.03 0 0 0-.023.152c-.03.086-.058.174-.08.263a1.283 1.283 0 0 1-.094.252 2.568 2.568 0 0 1-.634.912 3.373 3.373 0 0 1-.946.584 1.488 1.488 0 0 1-.283.088c-.096.02-.194.041-.294.064a.328.328 0 0 1-.127.024.634.634 0 0 0-.127.012.526.526 0 0 0-.075.006.51.51 0 0 1-.075.006 1.43 1.43 0 0 1-.184.017.56.56 0 0 1-.196-.017h-.116a.41.41 0 0 0-.121-.006.255.255 0 0 1-.121-.018.354.354 0 0 0-.087-.012.497.497 0 0 1-.098-.011 2.453 2.453 0 0 0-.23-.059 1.025 1.025 0 0 1-.22-.07 6.07 6.07 0 0 1-.26-.094 1.979 1.979 0 0 1-.247-.117 2.955 2.955 0 0 1-.693-.573 2.906 2.906 0 0 1-.484-.783.873.873 0 0 1-.087-.222c-.02-.078-.04-.16-.064-.246a.3.3 0 0 1-.023-.105.29.29 0 0 0-.023-.106.829.829 0 0 1-.023-.192.795.795 0 0 0-.023-.194.54.54 0 0 1-.012-.105v-.105a.594.594 0 0 1-.017-.199.71.71 0 0 1 .029-.199v-.081a.457.457 0 0 0 .006-.124.262.262 0 0 1 .017-.122.565.565 0 0 0 .012-.111c0-.038.008-.076.023-.111.03-.102.057-.2.08-.299a1.91 1.91 0 0 1 .093-.286c.121-.293.289-.563.496-.801.208-.228.444-.426.703-.591.08-.04.16-.075.243-.105.085-.031.169-.066.254-.106.1-.039.205-.066.312-.081.112-.017.224-.04.334-.07a1.44 1.44 0 0 1 .173-.012c.054 0 .108-.004.162-.012.391-.014.782.033 1.16.14a3.088 3.088 0 0 1 1.13.626c.085.07.16.15.225.24.062.078.117.156.167.234l.156.245c.054.086.096.179.127.275.03.098.065.201.104.31.024.065.043.131.058.199l.046.21a.43.43 0 0 1 .011.094c0 .032.004.063.012.094a.244.244 0 0 1 .01.128.243.243 0 0 0 .013.129zm-1.615.421a1.32 1.32 0 0 0 0-.34v-.093a.344.344 0 0 1-.024-.129.658.658 0 0 0-.011-.128.179.179 0 0 0-.011-.07 2.752 2.752 0 0 1-.04-.193 1.089 1.089 0 0 0-.053-.193 2.15 2.15 0 0 0-.3-.52 1.21 1.21 0 0 0-.462-.346 1.826 1.826 0 0 0-.138-.04 4.593 4.593 0 0 1-.15-.042.651.651 0 0 0-.196-.017c-.07.004-.139.006-.207.006a.116.116 0 0 1-.082.017.176.176 0 0 0-.08.006 3.05 3.05 0 0 1-.156.041.456.456 0 0 0-.133.053c-.185.08-.346.206-.467.368a1.93 1.93 0 0 0-.283.556c-.023.08-.04.162-.052.245a5.77 5.77 0 0 1-.04.257.6.6 0 0 0-.012.118v.116a.852.852 0 0 0-.017.246c0 .083.01.165.03.246v.105c.014.06.025.12.034.181.008.062.02.122.034.182.061.198.145.388.248.567.108.162.252.297.421.392.055.04.115.07.179.093.066.024.134.043.202.059.026.007.054.01.08.006a.197.197 0 0 1 .082.006.716.716 0 0 0 .098.017.27.27 0 0 0 .098-.006h.092a1.52 1.52 0 0 1 .185-.035 1.28 1.28 0 0 0 .658-.363c.13-.144.235-.31.311-.49.03-.077.053-.155.069-.235a4.25 4.25 0 0 1 .058-.245.364.364 0 0 0 .011-.088c0-.03.005-.06.012-.088v-.11c0-.038.004-.075.012-.112zm1.933-3.204h.855c.084 0 .165.001.242.005.065 0 .129.019.185.053a.336.336 0 0 1 .11.123.759.759 0 0 1 .062.175l.046.199c.016.066.032.127.047.181.093.276.172.558.236.842.066.289.14.573.225.854a.979.979 0 0 1 .035.134c.008.046.02.091.035.135.038.117.07.236.098.357.027.12.06.24.098.357.015.054.035.116.057.187a.178.178 0 0 0 .128.128c.038.008.068-.013.092-.064a.932.932 0 0 1 .057-.111c.04-.11.068-.224.087-.34.019-.115.047-.228.086-.339.023-.07.043-.143.058-.216l.046-.216c.054-.187.102-.378.144-.573a8.68 8.68 0 0 1 .145-.573 4.12 4.12 0 0 0 .058-.246 2.28 2.28 0 0 1 .057-.234c.03-.117.061-.257.092-.42a.523.523 0 0 1 .173-.34.41.41 0 0 1 .185-.053c.07-.004.146-.006.23-.006h.601c.092 0 .176.004.254.012.07.006.138.03.196.07a.243.243 0 0 1 .08.123c.016.05.031.1.047.146.03.11.055.217.075.322.02.11.049.217.086.322.093.304.17.615.237.935.065.32.14.632.224.936.032.094.057.19.075.286.019.094.044.186.076.275.021.085.052.168.092.246a.063.063 0 0 0 .03.017.056.056 0 0 1 .028.03.15.15 0 0 0 .133-.077c.019-.042.04-.09.063-.146.047-.127.086-.258.116-.391a6.63 6.63 0 0 1 .103-.404c.023-.078.043-.154.057-.228a3.82 3.82 0 0 1 .058-.228c.085-.24.154-.487.208-.737.053-.245.118-.487.196-.725.044-.128.079-.259.104-.392a.517.517 0 0 1 .15-.31.376.376 0 0 1 .185-.07 2.2 2.2 0 0 1 .23-.012h.808a.55.55 0 0 1 .173.024c.068.02.118.08.127.152a.528.528 0 0 1-.034.234l-.156.52c-.05.168-.106.341-.167.52-.185.57-.364 1.141-.537 1.714a91.392 91.392 0 0 1-.536 1.713c-.04.125-.075.248-.11.369-.035.12-.071.243-.11.368-.03.086-.06.162-.086.228a.264.264 0 0 1-.156.146.579.579 0 0 1-.3.047 5.682 5.682 0 0 0-.335-.011c-.123 0-.277.002-.461.006a.891.891 0 0 1-.392-.053.373.373 0 0 1-.104-.135.898.898 0 0 1-.058-.17 1.98 1.98 0 0 1-.086-.32 3.733 3.733 0 0 0-.075-.323 1.933 1.933 0 0 1-.058-.216 1.375 1.375 0 0 0-.07-.228 7.925 7.925 0 0 1-.179-.702 6.59 6.59 0 0 0-.19-.713 3.526 3.526 0 0 1-.115-.445.713.713 0 0 0-.185-.374.133.133 0 0 0-.144.088c-.02.058-.04.119-.064.181a3.055 3.055 0 0 0-.12.468 3.038 3.038 0 0 1-.122.468 9.188 9.188 0 0 0-.213.86c-.057.29-.128.577-.214.86-.015.054-.03.116-.046.186-.016.07-.03.137-.046.2a.895.895 0 0 1-.063.175.381.381 0 0 1-.099.128.275.275 0 0 1-.161.053 4.05 4.05 0 0 1-.23.006h-.947a3.078 3.078 0 0 1-.127-.024.392.392 0 0 1-.103-.035.318.318 0 0 1-.116-.164l-.07-.21a51.1 51.1 0 0 1-.23-.737 61.528 61.528 0 0 1-.548-1.73 101.42 101.42 0 0 0-.536-1.732 15.135 15.135 0 0 1-.15-.456l-.139-.444a2.121 2.121 0 0 1-.052-.193.243.243 0 0 1 .017-.193.362.362 0 0 1 .15-.094.233.233 0 0 0 .092-.011zm14.815 2.97a.478.478 0 0 1 0 .21.22.22 0 0 1-.08.153.356.356 0 0 1-.167.064c-.08.012-.162.02-.243.024a2.969 2.969 0 0 1-.266 0 5.34 5.34 0 0 0-.235-.006h-2.972a.354.354 0 0 0-.132.023.306.306 0 0 0-.162.181.225.225 0 0 0-.012.123.6.6 0 0 1 .03.134.591.591 0 0 0 .028.135c.05.165.127.32.225.462.099.13.223.24.364.322a.524.524 0 0 0 .19.076c.068.012.136.03.202.052a1.52 1.52 0 0 0 .53.024h.105a2.391 2.391 0 0 0 .403-.117 2.93 2.93 0 0 0 .26-.153.809.809 0 0 0 .214-.186 2.4 2.4 0 0 1 .12-.158.369.369 0 0 1 .156-.111.607.607 0 0 1 .294-.053c.12.004.23.006.33.006.045 0 .094-.002.144-.006a.293.293 0 0 1 .132.017h.116a.419.419 0 0 1 .16.059.116.116 0 0 1 .053.105.328.328 0 0 1-.017.14 2.124 2.124 0 0 1-.289.55 2.34 2.34 0 0 1-.576.62 3.04 3.04 0 0 1-.808.398c-.082.03-.168.05-.254.058-.09.009-.179.025-.266.047a.275.275 0 0 1-.097.006.269.269 0 0 0-.099.006h-.126a.293.293 0 0 1-.133.017 1.18 1.18 0 0 1-.133-.017.55.55 0 0 0-.161 0 .342.342 0 0 1-.15-.012.335.335 0 0 0-.128-.024.328.328 0 0 1-.126-.023 5.558 5.558 0 0 1-.254-.053.851.851 0 0 1-.231-.087l-.237-.088a1.065 1.065 0 0 1-.201-.1 3.325 3.325 0 0 1-.658-.543 2.628 2.628 0 0 1-.473-.72 1.608 1.608 0 0 1-.093-.263 2.067 2.067 0 0 0-.092-.274.361.361 0 0 1-.012-.088.4.4 0 0 0-.01-.088 1.24 1.24 0 0 1-.058-.304l-.024-.327c0-.04-.001-.082-.005-.129a.461.461 0 0 1 .005-.129v-.14l.035-.28a9.94 9.94 0 0 0 .08-.387c.023-.12.058-.238.105-.35a3.038 3.038 0 0 1 1.684-1.72c.105-.046.216-.08.329-.1.111-.019.229-.044.352-.075.057-.008.115-.012.173-.012.058 0 .116-.004.173-.012a2.91 2.91 0 0 1 1.01.135 3.075 3.075 0 0 1 .963.538c.066.055.128.116.185.181.022.039.054.07.092.094.061.085.12.173.173.263.054.09.112.181.173.275.038.07.071.141.099.216l.086.24c.039.102.07.208.093.316.022.109.049.218.08.327a.69.69 0 0 1 .017.205.691.691 0 0 0 .017.204v.13zm-1.73-.69a.297.297 0 0 0 .017-.287 6.398 6.398 0 0 0-.098-.25 1.218 1.218 0 0 0-.427-.486 1.432 1.432 0 0 0-.738-.181.095.095 0 0 1-.08.011.148.148 0 0 0-.082 0 .424.424 0 0 1-.127.03.442.442 0 0 0-.127.029 1.237 1.237 0 0 0-.802.765.738.738 0 0 0-.04.153.366.366 0 0 0 .006.146.216.216 0 0 0 .075.117.474.474 0 0 0 .254.058h1.592c.108 0 .22-.001.34-.005.09.009.18-.028.237-.1zm5.907-2.421a.976.976 0 0 1 .225.023.262.262 0 0 1 .156.106c.055.097.079.21.069.321v.404c0 .086.002.183.006.292a.548.548 0 0 1-.04.257.21.21 0 0 1-.133.106.74.74 0 0 1-.196.023c-.073 0-.15-.004-.23-.011a.715.715 0 0 0-.226.011.75.75 0 0 1-.161.03.625.625 0 0 0-.15.029 1.74 1.74 0 0 0-.37.17.984.984 0 0 0-.288.25c-.038.063-.079.127-.121.194a3.376 3.376 0 0 0-.121.204 2.488 2.488 0 0 0-.064.193l-.052.193a.613.613 0 0 0-.022.17.614.614 0 0 1-.024.17.228.228 0 0 0-.005.087.164.164 0 0 1-.007.076v.188a.46.46 0 0 0-.01.18c.006.065.01.13.01.194v1.742c0 .102-.004.195-.01.281a.429.429 0 0 1-.07.21.142.142 0 0 1-.075.053.896.896 0 0 1-.11.03h-.057a.64.64 0 0 1-.127.011h-.624a.898.898 0 0 0-.144-.012h-.155a1.489 1.489 0 0 0-.116-.04.12.12 0 0 1-.08-.077.291.291 0 0 1-.053-.17 4.333 4.333 0 0 1-.005-.227v-5.187a.327.327 0 0 1 .046-.182.252.252 0 0 1 .173-.117c.091-.016.184-.024.277-.023h.588c.082 0 .162.005.243.018.067.01.127.05.161.11a.36.36 0 0 1 .04.164c.005.07.01.139.018.205.007.062.02.123.04.181.013.05.059.085.11.082a.067.067 0 0 1 .046-.023.065.065 0 0 0 .046-.023.659.659 0 0 0 .121-.135.56.56 0 0 1 .133-.135.537.537 0 0 0 .081-.076.497.497 0 0 1 .08-.076l.214-.14c.073-.047.148-.09.225-.129.077-.03.156-.058.236-.081.081-.024.164-.047.248-.07a.432.432 0 0 1 .133-.007c.066.005.106-.001.121-.017zm6.358 3.111a.478.478 0 0 1 0 .21.22.22 0 0 1-.08.153.356.356 0 0 1-.167.064c-.08.012-.162.02-.243.024a2.969 2.969 0 0 1-.266 0 5.34 5.34 0 0 0-.236-.006h-2.97a.354.354 0 0 0-.134.023.306.306 0 0 0-.161.181.225.225 0 0 0-.012.123.6.6 0 0 1 .029.134.59.59 0 0 0 .029.135c.05.165.126.32.225.462.099.13.223.24.364.322a.524.524 0 0 0 .19.076c.068.012.136.03.202.052a1.52 1.52 0 0 0 .53.024h.105a2.39 2.39 0 0 0 .403-.117 2.93 2.93 0 0 0 .26-.153.809.809 0 0 0 .213-.186 2.4 2.4 0 0 1 .122-.158.369.369 0 0 1 .155-.111.607.607 0 0 1 .294-.053c.12.004.23.006.33.006.045 0 .094-.002.144-.006a.293.293 0 0 1 .132.017h.116a.419.419 0 0 1 .16.059.116.116 0 0 1 .053.105.329.329 0 0 1-.017.14 2.123 2.123 0 0 1-.29.55 2.34 2.34 0 0 1-.575.62 3.031 3.031 0 0 1-.809.398 1 1 0 0 1-.253.058c-.09.009-.179.025-.266.047a.275.275 0 0 1-.097.006.269.269 0 0 0-.099.006h-.126a.293.293 0 0 1-.133.017 1.179 1.179 0 0 1-.133-.017.55.55 0 0 0-.161 0 .342.342 0 0 1-.15-.012.335.335 0 0 0-.128-.024.328.328 0 0 1-.126-.023 5.557 5.557 0 0 1-.254-.053.851.851 0 0 1-.231-.087l-.237-.088a1.065 1.065 0 0 1-.201-.1 3.326 3.326 0 0 1-.658-.543 2.628 2.628 0 0 1-.473-.72 1.608 1.608 0 0 1-.093-.263 2.066 2.066 0 0 0-.092-.274.361.361 0 0 1-.012-.088.4.4 0 0 0-.01-.088 1.24 1.24 0 0 1-.058-.304l-.024-.327c0-.04-.001-.082-.005-.129a.461.461 0 0 1 .005-.129v-.14l.035-.28a9.94 9.94 0 0 0 .08-.387c.023-.12.058-.238.105-.35a3.038 3.038 0 0 1 1.684-1.72c.105-.046.216-.08.329-.1a4.73 4.73 0 0 0 .352-.075c.057-.008.115-.012.173-.012.058 0 .116-.004.173-.012a2.91 2.91 0 0 1 1.01.135 3.075 3.075 0 0 1 .963.538c.066.055.128.116.184.181.023.039.055.07.093.094.061.085.119.173.173.263.054.09.112.181.173.275.038.07.071.141.099.216l.086.24c.039.102.07.208.092.316.023.109.05.218.08.327a.69.69 0 0 1 .018.205.691.691 0 0 0 .017.204v.13zm-1.73-.69a.297.297 0 0 0 .017-.287 6.385 6.385 0 0 0-.098-.25 1.218 1.218 0 0 0-.427-.486 1.432 1.432 0 0 0-.739-.181.095.095 0 0 1-.08.011.148.148 0 0 0-.081 0 .424.424 0 0 1-.127.03.442.442 0 0 0-.127.029 1.236 1.236 0 0 0-.802.765.738.738 0 0 0-.04.153.366.366 0 0 0 .006.146.216.216 0 0 0 .075.117.474.474 0 0 0 .253.058h1.593c.107 0 .22-.001.34-.005.09.009.18-.028.237-.1zm8.341 3.1v.32a.415.415 0 0 1-.07.253.278.278 0 0 1-.15.076 1.136 1.136 0 0 1-.207.017h-.634a3.56 3.56 0 0 1-.214-.006.261.261 0 0 1-.155-.053.21.21 0 0 1-.093-.152.827.827 0 0 0-.046-.187l-.04-.04-.04-.042a.25.25 0 0 0-.185.059l-.116.117a2.088 2.088 0 0 1-.15.1c-.046.027-.096.06-.15.099a2.358 2.358 0 0 1-.554.198.274.274 0 0 1-.104.024.367.367 0 0 0-.092.012.68.68 0 0 0-.098.006.7.7 0 0 1-.098.006h-.104a.614.614 0 0 1-.208.017.656.656 0 0 1-.196-.03.388.388 0 0 0-.144-.017.323.323 0 0 1-.133-.018 10.52 10.52 0 0 0-.27-.087 2.123 2.123 0 0 1-.26-.1 2.005 2.005 0 0 1-.721-.544 3.219 3.219 0 0 1-.503-.777 1.882 1.882 0 0 1-.092-.252 3.723 3.723 0 0 0-.08-.25.363.363 0 0 1-.012-.089.277.277 0 0 0-.023-.099 2.4 2.4 0 0 1-.04-.205 5.688 5.688 0 0 0-.04-.228.175.175 0 0 1-.006-.082.196.196 0 0 0-.006-.081v-.112a.568.568 0 0 0-.012-.11.69.69 0 0 1 0-.258.565.565 0 0 0 .012-.111v-.112a.386.386 0 0 0 .006-.11.22.22 0 0 1 .017-.112c.015-.085.029-.167.04-.245.012-.08.03-.158.052-.234a4.94 4.94 0 0 0 .08-.269 1.7 1.7 0 0 1 .093-.257c.11-.237.245-.461.404-.667a.233.233 0 0 1 .063-.064.259.259 0 0 0 .064-.065 1.318 1.318 0 0 1 .196-.198.262.262 0 0 0 .08-.065.252.252 0 0 1 .081-.064c.207-.14.433-.25.67-.328.055-.015.11-.027.167-.035.06-.008.12-.02.18-.035a.919.919 0 0 1 .207-.03 5.41 5.41 0 0 1 .254-.005c.084 0 .167.004.247.012.069.005.136.017.203.035.115.039.226.074.334.105.105.03.206.073.3.129l.15.11a6.491 6.491 0 0 0 .283.205c.049.04.118.04.167 0a.084.084 0 0 0 .046-.082c0-.04.008-.08.024-.116v-.117a.284.284 0 0 0 .01-.082v-1.684a7.74 7.74 0 0 0-.005-.287.39.39 0 0 1 .052-.24.225.225 0 0 1 .173-.116.063.063 0 0 1 .046-.006.063.063 0 0 0 .046-.006h.82c.084 0 .169.003.253.012a.229.229 0 0 1 .173.093.453.453 0 0 1 .058.24v7.316zm-1.57-2.293a.278.278 0 0 0 .007-.1.9.9 0 0 1-.006-.099c0-.078-.004-.156-.011-.234a1.48 1.48 0 0 0-.035-.21 9.21 9.21 0 0 1-.04-.234.7.7 0 0 0-.064-.199 1.54 1.54 0 0 0-.467-.667 1.38 1.38 0 0 0-1.068-.222c-.061.016-.117.03-.167.041a.652.652 0 0 0-.144.053 1.022 1.022 0 0 0-.485.397c-.12.19-.213.394-.277.609a1.24 1.24 0 0 0-.046.234 1.575 1.575 0 0 1-.046.245v.164c-.017.094-.02.19-.012.286.003.09.015.177.035.264 0 .021.002.043.006.064a.271.271 0 0 1 .005.052c.016.063.03.121.041.176l.04.175c.107.374.345.694.67.9.126.082.267.138.415.165a.642.642 0 0 0 .139.012c.035.01.072.015.109.017a.38.38 0 0 0 .12-.006 1.52 1.52 0 0 1 .186-.035.82.82 0 0 0 .184-.047c.176-.074.333-.185.462-.327a1.823 1.823 0 0 0 .37-.72 8.83 8.83 0 0 0 .045-.24.36.36 0 0 0 .006-.11.23.23 0 0 1 .018-.112.284.284 0 0 0 .01-.082v-.21zm11.62-.363c.019.079.026.16.023.24.001.08-.002.16-.011.24a.707.707 0 0 1-.006.1.724.724 0 0 0-.006.099.748.748 0 0 0-.023.181.781.781 0 0 1-.023.181.984.984 0 0 1-.023.164c-.023.094-.045.19-.064.287a1.297 1.297 0 0 1-.086.275 3.436 3.436 0 0 1-.52.912 2.126 2.126 0 0 1-1.032.684l-.237.064a.453.453 0 0 1-.144.024.86.86 0 0 0-.144.012h-.104a.513.513 0 0 1-.185.017.708.708 0 0 1-.184-.03h-.07a1.002 1.002 0 0 0-.127-.017 1.653 1.653 0 0 1-.138-.018 9.04 9.04 0 0 1-.404-.116 1.39 1.39 0 0 1-.346-.164 3.41 3.41 0 0 1-.132-.094.95.95 0 0 1-.121-.105 5.289 5.289 0 0 1-.07-.047.287.287 0 0 0-.07-.035c-.068-.023-.111-.007-.126.047a.437.437 0 0 0-.075.193.267.267 0 0 1-.086.17.315.315 0 0 1-.162.052 3.276 3.276 0 0 1-.208.006h-.553c-.054 0-.11.002-.168.006a.403.403 0 0 1-.156-.018.247.247 0 0 1-.179-.216 3.26 3.26 0 0 1-.017-.357v-7.403a.375.375 0 0 1 .058-.222.222.222 0 0 1 .162-.105.075.075 0 0 1 .051-.006.078.078 0 0 0 .052-.006h.728c.119-.001.238.005.357.017.098.01.177.084.196.182a.938.938 0 0 1 .023.31 5.353 5.353 0 0 0-.011.333v1.532a1.295 1.295 0 0 0 .046.322.07.07 0 0 0 .058.052c.017.017.04.025.063.024a.141.141 0 0 0 .063-.012c.052-.03.102-.063.15-.1l.15-.11a2.132 2.132 0 0 1 .67-.316.624.624 0 0 1 .184-.041.965.965 0 0 0 .185-.03.627.627 0 0 1 .173-.023h.3a.18.18 0 0 0 .08.006.241.241 0 0 1 .092.006c.078.022.157.04.237.053a.848.848 0 0 1 .214.064c.324.128.619.323.865.573.238.256.43.553.566.877.038.095.071.193.098.292.027.102.055.207.086.316a.796.796 0 0 1 .029.158.99.99 0 0 0 .029.17.28.28 0 0 1 .017.128.562.562 0 0 0 .006.14v.082zm-1.708 1.1a2.82 2.82 0 0 0 .098-.65c.004-.12.004-.24 0-.362a1.453 1.453 0 0 0-.04-.31 1.185 1.185 0 0 1-.046-.222.603.603 0 0 0-.058-.199 1.968 1.968 0 0 0-.456-.696 1.183 1.183 0 0 0-.86-.286.536.536 0 0 0-.08.005.445.445 0 0 1-.08.006c-.054.016-.104.03-.151.042a1.826 1.826 0 0 0-.138.04 1.134 1.134 0 0 0-.508.427 2.8 2.8 0 0 0-.288.626.656.656 0 0 0-.04.193c-.004.065-.014.13-.03.193a.41.41 0 0 0-.011.117.254.254 0 0 0-.006.094.252.252 0 0 1-.006.093.888.888 0 0 0-.01.257c.002.08.013.158.034.234.014.066.024.132.028.2a.644.644 0 0 0 .041.186c.06.199.143.389.248.567.102.167.243.305.41.404.116.076.245.13.38.164a.23.23 0 0 1 .052.006.268.268 0 0 0 .063.005c.038.01.077.016.116.018a.508.508 0 0 0 .138-.006c.077-.015.149-.03.214-.04.065-.013.128-.03.19-.053a1.2 1.2 0 0 0 .502-.422c.127-.195.226-.408.294-.631zm1.948-3.837h1.108a.389.389 0 0 1 .196.047c.097.07.165.175.19.293.035.132.071.254.11.362.038.096.071.193.098.293.026.1.059.197.098.292.061.18.12.357.173.532.054.176.111.35.173.521l.242.737c.023.07.044.142.064.216.02.074.044.146.075.217l.075.21c.02.074.093.12.167.105a.113.113 0 0 1 .04-.029.113.113 0 0 0 .04-.03.88.88 0 0 0 .059-.116l.046-.117c.039-.089.07-.18.092-.275.023-.098.05-.193.08-.287.108-.327.212-.65.312-.97.1-.32.204-.644.311-.971a3.75 3.75 0 0 0 .099-.322c.026-.105.06-.208.098-.31.023-.062.044-.122.063-.18a.284.284 0 0 1 .11-.147.281.281 0 0 1 .173-.064 4.05 4.05 0 0 1 .23-.006h.705c.073 0 .146.003.219.012a.26.26 0 0 1 .161.07c.047.06.056.141.024.21a1.906 1.906 0 0 1-.058.187l-.07.188c-.107.272-.211.551-.311.836-.1.284-.204.563-.312.836a5.443 5.443 0 0 0-.126.357c-.04.12-.082.24-.128.356-.038.11-.076.215-.114.316a8.15 8.15 0 0 0-.116.316c-.154.39-.298.781-.433 1.175s-.279.782-.432 1.164a1 1 0 0 0-.052.152.726.726 0 0 1-.052.14c-.062.148-.12.293-.173.433-.054.14-.112.275-.174.404-.06.126-.133.245-.218.356a1.434 1.434 0 0 1-.64.462 5.93 5.93 0 0 1-.387.123.76.76 0 0 1-.185.023.73.73 0 0 0-.185.024h-.519a2.677 2.677 0 0 1-.468-.041.343.343 0 0 1-.143-.053.207.207 0 0 1-.075-.11 7.662 7.662 0 0 1-.04-.159v-.701c0-.148.045-.242.137-.281a.5.5 0 0 1 .157-.03.437.437 0 0 1 .167.018h.427a.363.363 0 0 1 .092-.011.204.204 0 0 0 .092-.024.647.647 0 0 0 .462-.48.733.733 0 0 0 .046-.14.29.29 0 0 0 0-.163.312.312 0 0 1-.023-.118c0-.04-.008-.08-.023-.116a9.192 9.192 0 0 0-.324-.913 6.656 6.656 0 0 1-.167-.444 7.07 7.07 0 0 0-.167-.444 2.673 2.673 0 0 1-.098-.281 2.694 2.694 0 0 0-.098-.281c-.123-.296-.237-.6-.34-.912a13.45 13.45 0 0 0-.34-.912.18.18 0 0 1-.024-.076.125.125 0 0 0-.023-.065 3.474 3.474 0 0 1-.156-.427 2.923 2.923 0 0 0-.156-.415 5.063 5.063 0 0 0-.074-.204.318.318 0 0 1-.018-.229.184.184 0 0 1 .15-.117.05.05 0 0 1 .04-.005.052.052 0 0 0 .04-.006zm11.868-2.28h.981c.085 0 .165.004.242.012a.279.279 0 0 1 .174.07.37.37 0 0 1 .063.17 2.83 2.83 0 0 1 .023.497 5.156 5.156 0 0 0-.006.234v4.339c0 .179.002.364.006.555a2.01 2.01 0 0 1-.052.52.229.229 0 0 0-.017.112.238.238 0 0 1-.017.11 1.88 1.88 0 0 0-.058.217c-.016.075-.04.147-.07.216a2.134 2.134 0 0 1-.727.983c-.11.08-.227.146-.351.199-.127.054-.26.105-.398.152a3.483 3.483 0 0 1-.18.04 3.157 3.157 0 0 0-.178.042.83.83 0 0 1-.202.023.97.97 0 0 0-.213.023h-.128a.536.536 0 0 1-.19.018.75.75 0 0 1-.19-.03 1.017 1.017 0 0 1-.185-.011 2.232 2.232 0 0 0-.225-.035 1.46 1.46 0 0 1-.201-.035 3.172 3.172 0 0 0-.255-.082 1.328 1.328 0 0 1-.242-.093 2.333 2.333 0 0 1-.67-.45 2.006 2.006 0 0 1-.46-.662 2.773 2.773 0 0 1-.081-.234 9.947 9.947 0 0 1-.07-.245.628.628 0 0 1-.022-.14.214.214 0 0 1-.018-.106.213.213 0 0 0-.017-.105.145.145 0 0 1-.012-.064v-.182a.62.62 0 0 1-.011-.122v-.123c0-.11.003-.213.01-.31 0-.081.039-.158.105-.205a.459.459 0 0 1 .248-.058h.294c.07 0 .15-.002.243-.006.092-.004.182-.004.27 0 .082.003.163.013.243.03a.207.207 0 0 1 .144.081c.057.09.08.198.064.304a1.18 1.18 0 0 0 .017.351.638.638 0 0 1 .03.134 1.574 1.574 0 0 0 .144.433c.046.09.113.169.196.228.115.081.244.14.38.175a.968.968 0 0 0 .497.012.28.28 0 0 1 .103-.023.201.201 0 0 0 .093-.023.768.768 0 0 0 .461-.48.732.732 0 0 0 .058-.216c.007-.074.019-.154.034-.24v-.134c0-.046.004-.09.012-.135a.496.496 0 0 0 .005-.135 1.827 1.827 0 0 1-.005-.146v-4.819a6.47 6.47 0 0 0-.006-.268.406.406 0 0 1 .052-.234.336.336 0 0 1 .173-.117.244.244 0 0 0 .092-.012zm4.316.082c.059.08.088.18.08.28v.68a.258.258 0 0 1-.08.221.324.324 0 0 1-.18.07 2.325 2.325 0 0 1-.236.012h-.646c-.075 0-.15-.003-.225-.011a.31.31 0 0 1-.167-.07.21.21 0 0 1-.064-.135 1.76 1.76 0 0 1-.023-.222 2.696 2.696 0 0 1 0-.252c.004-.086.006-.16.006-.222s.002-.119.006-.17a.302.302 0 0 1 .04-.134.165.165 0 0 1 .063-.07l.087-.047c.02 0 .039-.002.058-.006a.387.387 0 0 1 .058-.006h.841c.074 0 .147.004.22.012a.26.26 0 0 1 .162.07zm.08 7.614c0 .156-.004.288-.01.397a.248.248 0 0 1-.209.223.375.375 0 0 1-.15.017 2.616 2.616 0 0 0-.173-.006h-.647c-.067 0-.134-.003-.201-.011a.204.204 0 0 1-.144-.07.333.333 0 0 1-.075-.205 5.54 5.54 0 0 1-.006-.263v-5.17a.259.259 0 0 1 .057-.2.252.252 0 0 1 .185-.092.106.106 0 0 1 .063-.006.108.108 0 0 0 .065-.006h.576c.047 0 .098-.002.156-.006a.569.569 0 0 1 .144.006h.093a.97.97 0 0 0 .126.035.14.14 0 0 1 .093.07.288.288 0 0 1 .052.164c.003.07.005.145.005.222v4.9zm.9-5.392h.843c.084 0 .165.002.242.006.068.002.136.02.196.053.096.071.16.179.179.298.03.128.067.255.11.38.084.257.165.52.242.79.077.268.157.535.242.8.062.188.12.379.173.574.054.195.116.382.185.561l.075.222a.162.162 0 0 0 .168.117.145.145 0 0 1 .034-.029.163.163 0 0 0 .034-.03.794.794 0 0 0 .058-.116c.016-.04.03-.082.046-.129.039-.086.068-.176.087-.269.019-.091.044-.181.075-.269.108-.328.21-.657.306-.988.096-.331.198-.66.305-.988a1.81 1.81 0 0 0 .092-.287c.022-.093.05-.185.082-.275.015-.063.034-.126.057-.187a.356.356 0 0 1 .104-.152.972.972 0 0 1 .15-.07.38.38 0 0 1 .15-.018c.054.004.104.006.15.006h.565c.085 0 .164.002.237.006.062 0 .121.022.167.064a.173.173 0 0 1 .052.17 1.155 1.155 0 0 1-.04.181c-.039.11-.078.225-.116.345a9.778 9.778 0 0 1-.115.345 1.004 1.004 0 0 0-.052.158c-.012.05-.025.1-.04.146a2.36 2.36 0 0 0-.098.258 8.075 8.075 0 0 1-.087.257.379.379 0 0 0-.017.076.193.193 0 0 1-.029.076 3.827 3.827 0 0 0-.12.357c-.036.12-.073.24-.111.356a18.39 18.39 0 0 0-.242.72c-.077.245-.162.485-.254.719a5.48 5.48 0 0 0-.104.322 6.806 6.806 0 0 1-.138.42c-.008.028-.02.06-.035.1a6.08 6.08 0 0 0-.087.263c-.026.09-.055.178-.086.263a7.198 7.198 0 0 0-.104.24.282.282 0 0 1-.173.158.472.472 0 0 1-.196.03 4.064 4.064 0 0 0-.208-.007h-.998a.466.466 0 0 1-.214-.047.32.32 0 0 1-.114-.146 2.932 2.932 0 0 1-.07-.193 2.954 2.954 0 0 1-.104-.292 3.502 3.502 0 0 0-.104-.292.29.29 0 0 1-.028-.088.446.446 0 0 0-.03-.1 3.254 3.254 0 0 1-.103-.292 4.657 4.657 0 0 0-.104-.304.642.642 0 0 1-.034-.111.725.725 0 0 0-.036-.111 2.195 2.195 0 0 1-.08-.217 7.866 7.866 0 0 0-.07-.216.133.133 0 0 1-.022-.076.134.134 0 0 0-.024-.076 1.64 1.64 0 0 1-.075-.21 2.306 2.306 0 0 0-.074-.223 11.2 11.2 0 0 1-.196-.555l-.185-.568a6.462 6.462 0 0 1-.22-.637 9.632 9.632 0 0 0-.207-.637l-.104-.316a.436.436 0 0 1-.017-.088.175.175 0 0 1 .017-.1.224.224 0 0 1 .162-.116.193.193 0 0 0 .08-.012zm11.677 2.959a.478.478 0 0 1 0 .21.22.22 0 0 1-.08.153.356.356 0 0 1-.168.064c-.08.012-.161.02-.242.024a2.969 2.969 0 0 1-.266 0 5.34 5.34 0 0 0-.236-.006h-2.971a.354.354 0 0 0-.133.023.306.306 0 0 0-.161.181.225.225 0 0 0-.012.123.6.6 0 0 1 .029.134.591.591 0 0 0 .029.135c.05.165.126.32.224.462.1.13.223.24.364.322a.524.524 0 0 0 .19.076c.069.012.136.03.202.052a1.52 1.52 0 0 0 .531.024h.104a2.392 2.392 0 0 0 .404-.117c.089-.046.175-.097.26-.153a.81.81 0 0 0 .213-.186c.038-.055.079-.108.121-.158a.369.369 0 0 1 .156-.111.607.607 0 0 1 .294-.053c.12.004.229.006.329.006.046 0 .094-.002.144-.006a.293.293 0 0 1 .133.017h.116a.419.419 0 0 1 .16.059.116.116 0 0 1 .053.105.328.328 0 0 1-.017.14 2.123 2.123 0 0 1-.29.55 2.34 2.34 0 0 1-.576.62c-.248.173-.52.307-.808.398-.082.03-.167.05-.254.058-.09.009-.178.025-.265.047a.275.275 0 0 1-.098.006.269.269 0 0 0-.098.006h-.127a.293.293 0 0 1-.132.017 1.179 1.179 0 0 1-.133-.017.55.55 0 0 0-.162 0 .342.342 0 0 1-.15-.012.335.335 0 0 0-.127-.024.328.328 0 0 1-.127-.023 5.558 5.558 0 0 1-.253-.053.851.851 0 0 1-.231-.087l-.237-.088a1.065 1.065 0 0 1-.202-.1 3.326 3.326 0 0 1-.658-.543 2.628 2.628 0 0 1-.472-.72 1.608 1.608 0 0 1-.093-.263 2.066 2.066 0 0 0-.092-.274.361.361 0 0 1-.012-.088.4.4 0 0 0-.011-.088 1.24 1.24 0 0 1-.058-.304l-.023-.327c0-.04-.002-.082-.006-.129a.46.46 0 0 1 .006-.129v-.14l.035-.28a9.94 9.94 0 0 0 .08-.387c.022-.12.057-.238.104-.35a3.039 3.039 0 0 1 1.685-1.72c.105-.046.215-.08.328-.1.112-.019.23-.044.353-.075.057-.008.115-.012.173-.012.058 0 .115-.004.172-.011a2.91 2.91 0 0 1 1.01.134 3.075 3.075 0 0 1 .964.538c.066.055.128.116.184.181.023.039.055.07.093.094.06.085.119.173.173.263.053.09.111.181.173.275.038.07.07.142.098.216l.086.24c.04.102.07.208.093.316.023.109.05.218.08.327a.69.69 0 0 1 .018.205.692.692 0 0 0 .017.205v.128zm-1.73-.69a.297.297 0 0 0 .017-.287 6.385 6.385 0 0 0-.099-.25 1.218 1.218 0 0 0-.426-.486 1.432 1.432 0 0 0-.739-.181.095.095 0 0 1-.08.011.148.148 0 0 0-.081 0 .424.424 0 0 1-.127.03.442.442 0 0 0-.127.029 1.236 1.236 0 0 0-.802.765.738.738 0 0 0-.04.153.366.366 0 0 0 .005.146.216.216 0 0 0 .075.117.474.474 0 0 0 .254.058h1.592c.108 0 .221-.001.34-.005a.268.268 0 0 0 .237-.1z" fill="#A7A8AA" fill-rule="nonzero"/><g transform="translate(194 5)"><rect fill="#FF9800" width="25.463" height="13.278" rx="1.812"/><g filter="url(#a)" transform="translate(2)" fill="#FFF" font-family="ProximaNova-Semibold, Proxima Nova" font-size="8.458" font-weight="500"><text><tspan x="1.113" y="9">NEW</tspan></text></g></g></g></svg>