<svg width="312" height="68" xmlns="http://www.w3.org/2000/svg"><g fill="none" fill-rule="evenodd"><path d="M77.978 0v2.297c8.846 3.438 14.78 12.142 14.712 21.84-.07-.15-.138-.3-.214-.45-1.722-7.308-7.333-13.083-14.498-14.958v1.79c4.77 1.377 8.748 4.651 11.086 8.97-5.028-4.146-13.302-5.331-21.443-2.455-11.177 3.95-17.86 14.058-14.933 22.576 2.235 6.5 9.426 10.19 17.676 9.82 5.462-2.062 9.798-5.601 12.387-9.678-.467 2.699-1.719 5.365-3.598 7.779 8.02-3.147 13.539-9.496 14.534-15.982.358-1.176.644-2.39.836-3.641C96.413 15.574 89.212 3.948 77.978 0" fill="#3AAA48"/><path d="M84.447 26.077c1.126 4.886-3.126 10.09-9.498 11.619-6.378 1.529-12.46-1.194-13.592-6.078-1.126-4.886 3.133-10.087 9.505-11.616 6.374-1.53 12.455 1.189 13.585 6.075" fill="#0A0B09"/><path d="M79.458 25.197c.443 1.897-1.224 3.923-3.718 4.517-2.493.593-4.872-.464-5.317-2.36-.44-1.903 1.226-3.925 3.72-4.523 2.494-.592 4.873.464 5.315 2.366" fill="#FFFFFE"/><path d="M113.03 64.698c.117 0 .219.05.305.147l.861.99a5.544 5.544 0 0 1-1.999 1.602c-.789.375-1.733.563-2.831.563-.975 0-1.856-.178-2.642-.534a5.81 5.81 0 0 1-2.013-1.49c-.555-.636-.982-1.395-1.282-2.277-.298-.882-.449-1.853-.449-2.911s.16-2.03.477-2.915a6.766 6.766 0 0 1 1.342-2.284 6.02 6.02 0 0 1 2.073-1.484c.805-.353 1.692-.53 2.66-.53.962 0 1.812.166 2.55.496a6.28 6.28 0 0 1 1.92 1.318l-.713 1.068a.826.826 0 0 1-.176.186.447.447 0 0 1-.277.079c-.124 0-.264-.06-.42-.182a6.591 6.591 0 0 0-.603-.402 4.569 4.569 0 0 0-.916-.402c-.367-.12-.825-.181-1.374-.181a4.27 4.27 0 0 0-1.749.353 3.79 3.79 0 0 0-1.37 1.03c-.382.45-.68.999-.892 1.646-.214.646-.32 1.38-.32 2.204 0 .83.111 1.57.333 2.22.223.65.528 1.199.917 1.646.388.447.845.788 1.37 1.024a4.087 4.087 0 0 0 1.692.353c.37 0 .702-.022.996-.064a3.644 3.644 0 0 0 1.508-.563c.219-.145.437-.32.652-.53.124-.118.247-.176.37-.176m12.22-3.39c0-.752-.102-1.43-.308-2.03a4.294 4.294 0 0 0-.883-1.53 3.844 3.844 0 0 0-1.395-.965c-.546-.225-1.16-.338-1.841-.338-.675 0-1.285.113-1.83.338a3.891 3.891 0 0 0-1.4.964c-.388.42-.685.93-.894 1.53-.208.601-.313 1.279-.313 2.03 0 .76.105 1.44.313 2.04.209.601.506 1.11.894 1.526.386.416.852.734 1.4.956.545.221 1.155.332 1.83.332.682 0 1.295-.111 1.84-.332a3.816 3.816 0 0 0 1.396-.956c.383-.416.677-.925.883-1.526.206-.6.309-1.28.309-2.04zm2.201 0c0 .972-.16 1.867-.48 2.686a6.184 6.184 0 0 1-1.347 2.117 6.146 6.146 0 0 1-2.09 1.388c-.813.334-1.716.501-2.711.501-.988 0-1.888-.167-2.701-.5a6.197 6.197 0 0 1-2.094-1.39 6.157 6.157 0 0 1-1.353-2.116c-.32-.82-.479-1.714-.479-2.686 0-.97.16-1.867.479-2.686.32-.82.77-1.527 1.353-2.122a6.188 6.188 0 0 1 2.094-1.393c.813-.334 1.713-.5 2.7-.5.996 0 1.9.166 2.712.5.814.334 1.51.799 2.09 1.393a6.237 6.237 0 0 1 1.348 2.122c.32.82.479 1.715.479 2.686zm13.255-6.702V68h-1.12a.956.956 0 0 1-.432-.089 1.004 1.004 0 0 1-.34-.292l-7.442-9.45a10.092 10.092 0 0 1 .056 1.022V68h-1.938V54.606h1.148c.094 0 .174.004.24.014a.682.682 0 0 1 .183.05.56.56 0 0 1 .16.112c.05.05.104.112.16.186l7.453 9.461a11.054 11.054 0 0 1-.057-1.089v-8.734h1.929m14.274 0V68h-1.12a.965.965 0 0 1-.432-.089 1.002 1.002 0 0 1-.339-.292l-7.442-9.45a10.883 10.883 0 0 1 .056 1.022V68h-1.938V54.606h1.148c.094 0 .174.004.24.014a.69.69 0 0 1 .183.05.56.56 0 0 1 .16.112c.05.05.104.112.16.186l7.452 9.461a11.879 11.879 0 0 1-.057-1.089v-8.734h1.93m11.215 11.636L166.187 68h-8.148V54.606h8.148v1.757h-6.015v4.038h4.808v1.701h-4.808v4.14h6.024m11.069-1.544a.4.4 0 0 1 .306.147l.86.99a5.555 5.555 0 0 1-1.998 1.602c-.79.375-1.734.563-2.833.563-.975 0-1.855-.178-2.641-.534a5.813 5.813 0 0 1-2.013-1.49c-.555-.636-.983-1.395-1.281-2.277-.3-.882-.45-1.853-.45-2.911s.159-2.03.478-2.915a6.75 6.75 0 0 1 1.34-2.284 6.02 6.02 0 0 1 2.073-1.484c.805-.353 1.693-.53 2.66-.53.963 0 1.813.166 2.55.496.738.33 1.378.769 1.921 1.318l-.713 1.068a.823.823 0 0 1-.176.186.448.448 0 0 1-.277.079c-.123 0-.264-.06-.422-.182a6.456 6.456 0 0 0-.6-.402 4.586 4.586 0 0 0-.917-.402c-.367-.12-.825-.181-1.374-.181-.636 0-1.219.118-1.749.353a3.787 3.787 0 0 0-1.37 1.03c-.382.45-.68.999-.893 1.646-.212.646-.319 1.38-.319 2.204 0 .83.111 1.57.333 2.22.222.65.528 1.199.916 1.646a3.95 3.95 0 0 0 1.37 1.024 4.09 4.09 0 0 0 1.693.353 7.1 7.1 0 0 0 .995-.064 3.593 3.593 0 0 0 1.508-.563c.22-.145.437-.32.653-.53.123-.118.247-.176.37-.176m12.382-8.278h-4.044V68h-2.1V56.42h-4.052v-1.814h10.196v1.813" fill="#3AAA48"/><path d="M112.531 46.364c-7.74 0-10.57-4.692-10.57-11.694v-4.43c0-6.667 2.955-11.694 10.82-11.694 2.705 0 5.077.745 6.409 1.714.874.633 1.331 1.303 1.331 1.824 0 .782-.582 1.49-1.705 1.49-.709 0-1.083-.559-2.248-1.155-.791-.41-1.914-.819-3.787-.819-4.869 0-7.074 2.98-7.074 8.714v4.32c0 6.032 2.08 8.677 6.824 8.677 4.37 0 6.2-2.384 6.2-6.144v-1.974h-4.993c-.957 0-1.706-.708-1.706-1.565 0-.856.749-1.563 1.706-1.563h6.825c.999 0 1.79.707 1.79 1.675v3.352c0 5.25-2.955 9.273-9.822 9.273m24.423-16.125c-.694 0-1.06-.265-2.488-.265-1.713 0-3.874.493-4.568 3.414v11.305c0 .948-.774 1.67-1.754 1.67-.978 0-1.794-.722-1.794-1.67V31.91c0-1.518-.489-1.973-1.265-2.39-.448-.228-.693-.607-.693-1.1 0-.91.653-1.442 1.795-1.442 1.55 0 2.773 1.176 3.263 2.352 1.753-2.276 4.16-2.542 5.628-2.542 1.672 0 3.589.493 3.589 1.783 0 .91-.612 1.67-1.713 1.67m14.745 7.339h-4.233c-3.386 0-4.272 1.4-4.272 2.953v.265c0 1.628.967 2.99 4.151 2.99 2.7 0 4.354-1.286 4.354-3.974V37.58zm3.546 8.784a3.1 3.1 0 0 1-1.813-.568c-.444-.34-.846-.833-1.048-1.363-1.492 1.553-3.87 1.93-5.644 1.93-4.957 0-7.054-2.46-7.054-5.603v-.265c0-3.142 2.298-5.49 7.458-5.49h4.555v-.947c0-2.992-.766-4.506-4.152-4.506-1.41 0-2.338.19-3.104.493-.887.34-1.33.643-1.894.643-.847 0-1.451-.605-1.451-1.325 0-.796.806-1.402 1.935-1.818 1.45-.568 3.224-.757 4.756-.757 5.724 0 7.416 2.613 7.416 7.573v7.081c0 1.514.363 1.969 1.13 2.347.442.266.685.644.685 1.136 0 .985-.726 1.439-1.775 1.439zm11.473 0c-2.639 0-4.158-.302-5.677-.833-.84-.265-1.12-1.136-.88-1.855.28-.795 1.16-1.174 2-.872 1.239.455 2.397.72 4.597.72 2.918 0 4.237-1.174 4.237-2.877 0-2.386-2.838-2.5-5.636-3.105-2.64-.568-5.158-1.515-5.158-5.112 0-3.635 2.998-5.642 6.836-5.642 2.239 0 3.678.264 5.197.833.84.265 1.16 1.098.88 1.855-.28.72-1.08 1.136-1.919.871-1.36-.492-2.439-.757-3.998-.757-2.438 0-3.678 1.136-3.678 2.689 0 2.12 2.439 2.385 5.077 2.915 2.798.53 5.757 1.363 5.757 5.339 0 3.938-3.278 5.83-7.635 5.83m16.313.001c-2.638 0-4.158-.302-5.677-.833-.84-.265-1.12-1.136-.88-1.855.28-.795 1.16-1.174 2-.872 1.24.455 2.398.72 4.597.72 2.918 0 4.238-1.174 4.238-2.877 0-2.386-2.839-2.5-5.637-3.105-2.638-.568-5.157-1.515-5.157-5.112 0-3.635 2.998-5.642 6.836-5.642 2.24 0 3.678.264 5.197.833.84.265 1.16 1.098.88 1.855-.28.72-1.08 1.136-1.92.871-1.36-.492-2.439-.757-3.998-.757-2.438 0-3.678 1.136-3.678 2.689 0 2.12 2.44 2.385 5.078 2.915 2.799.53 5.757 1.363 5.757 5.339 0 3.938-3.279 5.83-7.636 5.83m26.229-1.03c-1.004 0-1.84-.696-1.84-1.613V33.37c0-2.312-.753-3.964-3.974-3.964-2.385 0-4.1.918-5.061 2.312v12c0 .918-.838 1.614-1.842 1.614-1.003 0-1.798-.696-1.798-1.613V20.16c0-.917.795-1.615 1.798-1.615 1.004 0 1.842.698 1.842 1.615v7.964c1.38-1.101 3.303-1.762 5.855-1.762 5.27 0 6.819 2.862 6.819 6.716V43.72c0 .917-.795 1.613-1.8 1.613m17.421-10.669c0-2.953-1.422-4.809-4.915-4.809-3.45 0-4.872 1.856-4.872 4.809v3.862c0 2.953 1.422 4.809 4.872 4.809 3.493 0 4.916-1.856 4.916-4.81v-3.861zm-4.915 11.7c-6.123 0-8.667-3.521-8.667-7.838v-3.9c0-4.317 2.544-7.838 8.667-7.838 6.165 0 8.666 3.521 8.666 7.838v3.9c0 4.317-2.501 7.838-8.666 7.838zm24.291-11.972c0-3.088-1.234-4.67-4.684-4.67-1.277 0-2.853.501-4.3 1.582v10.731c1.362 1.312 3.193 1.775 4.429 1.775 3.236 0 4.555-1.93 4.555-5.211v-4.207zm-3.916 12.352c-1.576 0-3.493-.425-5.068-1.506v6.639c0 .965-.809 1.699-1.873 1.699-1.023 0-1.831-.734-1.831-1.7v-20.07c0-1.544-.384-2.007-1.193-2.432-.469-.232-.724-.618-.724-1.12 0-1.003.767-1.466 1.831-1.466.682 0 1.534.27 2.257.81.298.27.554.58.767.927 1.703-1.158 3.703-1.737 5.578-1.737 5.62 0 7.92 2.818 7.92 7.797v3.512c0 5.173-2.044 8.647-7.664 8.647zm24.31-12.352c0-3.088-1.236-4.67-4.685-4.67-1.278 0-2.854.501-4.3 1.582v10.731c1.362 1.312 3.193 1.775 4.428 1.775 3.236 0 4.556-1.93 4.556-5.211v-4.207zm-3.918 12.352c-1.576 0-3.493-.425-5.068-1.506v6.639c0 .965-.809 1.699-1.873 1.699-1.022 0-1.831-.734-1.831-1.7v-20.07c0-1.544-.384-2.007-1.192-2.432-.47-.232-.725-.618-.725-1.12 0-1.003.767-1.466 1.832-1.466.68 0 1.532.27 2.256.81.298.27.554.58.766.927 1.704-1.158 3.705-1.737 5.58-1.737 5.62 0 7.92 2.818 7.92 7.797v3.512c0 5.173-2.045 8.647-7.665 8.647zm17.923-17.268c-3.239 0-4.608 1.931-4.608 4.847v.644h9.173v-.682c0-2.916-1.162-4.81-4.565-4.81zm8.094 6.815c0 .796-.624 1.288-1.37 1.288h-11.332v1.023c0 2.99 1.452 4.96 4.774 4.96 1.784 0 2.905-.265 3.694-.53.954-.303 1.453-.681 2.116-.681.832 0 1.371.567 1.371 1.362 0 .757-.872 1.401-2.117 1.856-1.453.53-3.446.795-5.272.795-5.978 0-8.178-3.711-8.178-8.027v-3.522c0-4.279 2.366-8.027 8.178-8.027 6.018 0 8.136 3.559 8.136 8.027v1.476zm14.601-7.081c-.694 0-1.06-.265-2.488-.265-1.713 0-3.874.493-4.568 3.414v11.305c0 .949-.774 1.67-1.753 1.67-.98 0-1.795-.721-1.795-1.67V30.88c0-1.517-.49-1.972-1.264-2.39-.45-.227-.694-.606-.694-1.1 0-.91.653-1.441 1.795-1.441 1.55 0 2.773 1.175 3.263 2.352 1.754-2.276 4.16-2.542 5.627-2.542 1.673 0 3.59.493 3.59 1.783 0 .91-.612 1.67-1.713 1.67m6.796-2.554c0-.152-.09-.359-.45-.359h-.506v.87h.485c.369 0 .47-.207.47-.367v-.144zm-.076.841l.465.883a.226.226 0 0 1 .028.096.23.23 0 0 1-.233.228c-.089 0-.156-.04-.197-.13l-.52-1.015h-.423v.917a.228.228 0 0 1-.224.228.223.223 0 0 1-.22-.228v-2.35c0-.125.097-.229.22-.229h.75c.648 0 .88.373.88.738v.187c0 .296-.17.572-.526.675zm-.422-2.324c-1.16 0-2.102.959-2.102 2.131 0 1.172.942 2.124 2.102 2.124s2.102-.952 2.102-2.124c0-1.172-.942-2.131-2.102-2.131zm0 4.704c-1.406 0-2.546-1.152-2.546-2.573 0-1.42 1.14-2.579 2.546-2.579 1.405 0 2.552 1.158 2.552 2.58a2.565 2.565 0 0 1-2.552 2.572z" fill="#0A0B09"/><rect fill="#3E94CB" y="2" width="55" height="21" rx="5"/><path d="M17.138 18l-5.724-8.064V18H8.858V5.994h2.628l5.562 7.776V5.994h2.556V18h-2.466zm4.682 0V5.994h8.496V8.19h-5.94v2.61h5.814v2.196h-5.814v2.79h5.94V18H21.82zm19.514 0l-2.106-8.244L37.14 18h-2.718L30.984 5.994h2.862l2.106 8.676 2.286-8.676h1.998l2.268 8.676 2.088-8.676h2.88L44.052 18h-2.718z" fill="#FFF" fill-rule="nonzero"/></g></svg>