<svg xmlns="http://www.w3.org/2000/svg" viewBox="0 0 60 22.1" preserveAspectRatio="xMinYMin"><path d="M37.2 8.6c0 4.9-4 5.3-6.1 5.3h-2.6c-.5 0-.8.1-.8.8v4.5c0 .4-.3.6-.5.6h-2.5c-.1 0-.5 0-.5-.6V4.1c0-.7.5-.7.8-.7h7.4c1.4 0 4.8 1.2 4.8 5.2zm-3.5.6c0-.2.2-1.8-.8-2.5-.5-.4-1.2-.7-4.5-.6-.5 0-.7.2-.7.8v3.6c.1.6.3.6 2.1.6 2.7-.1 3.4-.2 3.9-1.9 0-.2-.1.2 0 0zm12.4-.8c0 1.2.1 1.9-.1 2.1-.1.1-.2.2-.6.2h-.8c-.4 0-.8.1-1.3.4-.7.4-1 .7-1.4 1.7-.2.5-.3 1.4-.3 2.4v4.1c0 .6-.2.7-.6.7h-2.1c-.6 0-.5-.7-.5-.8V8.7c0-.5.5-.6 1-.6h1.3c.2 0 .8 0 .8.5 0 .2 0 .5.1.7 0 .1 0 .3.2.3 0-.2.2-.3.5-.6.3-.4.8-.7 1-.8.7-.4 1.4-.6 1.9-.6.3 0 .9 0 .9.8zm-35-6.6c-5.2 0-9.5 4.2-9.5 9.5 0 5.2 4.2 9.5 9.5 9.5 5.2 0 9.5-4.2 9.5-9.5s-4.3-9.5-9.5-9.5zM4.8 14.4c-.7 0-1.3-.6-1.3-1.3 0-.7.6-1.3 1.3-1.3.7 0 1.3.6 1.3 1.3 0 .7-.6 1.3-1.3 1.3zm4.1-1.7c-1.2 0-2.2-1-2.2-2.2 0-1.2 1-2.2 2.2-2.2 1.2 0 2.2 1 2.2 2.2 0 1.2-1 2.2-2.2 2.2zm6.7 1.2c-1.7 0-3.1-1.4-3.1-3.1s1.4-3.1 3.1-3.1c1.7 0 3.1 1.4 3.1 3.1s-1.4 3.1-3.1 3.1zM52 7.6c-5 0-6.1 4.1-6.1 6.1 0 3.5 2.1 6.4 6.2 6.4 3.2 0 6.2-2 6.2-6.3-.1-2.1-1.3-6.2-6.3-6.2zm-.1 10.1c-1.3 0-2.8-1-2.8-3.8s1.5-3.8 3.1-3.8c1.5 0 2.8 1.4 2.8 3.8 0 3.1-1.8 3.8-3.1 3.8z" fill="#45B6F2"/></svg>