<svg xmlns="http://www.w3.org/2000/svg" viewBox="0 0 189 43" preserveAspectRatio="xMinYMin"><path d="M69.8 36.6c.1.3-.1 1-.8 1h-3.7c-1.2 0-1.6-.1-2-1.4-.1-.4-.7-6-.8-6.4-.6-3-2-4-4.3-4.2-1.1-.1-6-.1-6.6.1-.5.1-.9.3-.9 1.4v8.6c0 1.1-.1 1.8-1 1.8h-4.2c-1.2 0-1.6-.4-1.6-1V7.8c0-.6.4-1 1.5-1H61c6.1 0 8.4 5.4 8.4 8.2 0 3.4-.9 4.9-2.5 6.5-.3.3-1.2.8-1.4 1.2-.3.5.2.8.6 1.1 1.2.8 1.9 2.2 2.2 2.8.5 1.2.7 2.5.8 3.8 0 .3.2 3.5.3 4.2.1.7.2 1.3.4 2M59.2 12.1c-1-.1-5.8-.1-6.8-.1-1.5 0-1.8.3-1.8 1v6.2c0 1 .3 1.6 2.2 1.6.6 0 6.5-.1 6.8-.1.5-.1 3.2-.7 3.1-4.6-.1-3.1-2.6-4-3.5-4zm45.6 2.6c-2.3.1-4.4.6-6.2 1.6-2.2 1.3-3.4 4.3-2.5 7.1 1.4 4.4 7.6 3.9 11.8 5.6 1.8.7 3.4 3.1.1 4.6-.4.2-2.3.8-4.5 0-2-.8-2.2-2.3-2.5-2.7-.4-.6-1.2-.5-1.8-.5h-2.7c-2.3 0-.2 3.9.6 4.7 3.1 3.1 8.3 3.1 8.9 3.1 4.2 0 7.5-1.7 8.7-3.5.6-.9 2.5-5.2-.3-8-1.8-1.8-4.8-2.3-6-2.5-1.1-.2-2.3-.4-3.4-.8-.9-.3-3.2-.9-3-2.7.2-1.9 3.1-1.9 3.3-1.9 1-.1 2.5.3 3.3 1 .6.5.5 1.3 1.4 1.9.4.3 4 .2 4.3.1.7-.1.8-.5.8-1 0-.6-.9-3.5-3.5-4.8 0-.1-2.4-1.4-6.8-1.3zm41.4.7c.8 0 1.3.2 1.3 1.7 0 0-.1 10.9.1 12.5.2 1.3.5 3.8 4.2 3.8 3.6 0 4.3-3.2 4.4-5.2.1-1.4 0-11.6 0-11.6 0-.7.4-1.2.9-1.2h3.9c.8 0 1.3.2 1.3 1v20.1c0 .6-.3 1.1-.9 1.1-.5 0-3.3.1-4 0-.6-.1-.7-.6-.8-1.2-.1-.3-.1-.6-.4-.8-.3-.2-.7.2-.9.4-.6.5-2 2.4-6.4 2.2-3.6-.1-7.3-1.7-7.4-8.2V16.7c0-.8.4-1.2 1.1-1.2l3.6-.1zm-7.3 5.8c.1.4.5 1.8-.8 1.8h-4c-.5 0-.9-.7-1-1-.6-1.4-1.9-2.9-4.5-2.8-4.4.2-5 5.1-5.1 7-.1 4.5 1.9 7.2 5.4 7.2 2.7 0 3.8-1.5 4.5-3.7.2-.6 1.1-.7 1.5-.7h3.1c.9 0 1.2.8 1.2 1.1-.1.3-1.3 8-10.2 8-4.7 0-11.6-2.3-11.6-12 0-6.7 5-11.5 11.2-11.5 7.8.2 9.8 4.8 10.3 6.6zm36.6-6.5c-7.9.2-11 7.1-11 11.7 0 2.7 1.1 11.7 11.4 11.7 7.5 0 9.6-5.5 9.9-6.3.1-.2.2-1.1-.4-1.2h-3.6c-.5 0-.8.3-1.2.9-.4.5-1.8 2-4.2 2-4.2 0-5.4-2.8-5.5-4.2 0-.2-.2-1.5 1.1-1.5h13c.3 0 1.3-.1 1.6-.4.3-.3.3-1.3.3-1.6-.1-4.3-3.2-11.4-11.4-11.1zm3.9 9.3h-7.2c-1.5 0-1.3-1-1.3-1.2.1-1.1 1.6-3.7 5-3.7 3 0 4.1 2.5 4.4 3.4.2.5.3 1.5-.9 1.5zm-96.5-9.3c-7.9.2-11 7.1-11 11.7C71.9 29.1 73 38 83.3 38c7.5 0 9.6-5.5 9.9-6.3.1-.2.2-1.1-.4-1.2h-3.6c-.5 0-.8.3-1.2.9-.4.5-1.8 2-4.2 2-4.2 0-5.4-2.8-5.5-4.2 0-.2-.2-1.5 1.1-1.5h13c.3 0 1.3-.1 1.6-.4.3-.3.3-1.3.3-1.6-.2-4.2-3.3-11.3-11.4-11zm3.8 9.3h-7.2c-1.5 0-1.3-1-1.3-1.2.1-1.1 1.6-3.7 5-3.7 3 0 4.1 2.5 4.4 3.4.2.5.3 1.5-.9 1.5zM19.5 3.9c-9.8 0-17.7 7.9-17.7 17.7 0 9.8 7.9 17.7 17.7 17.7 9.8 0 17.7-7.9 17.7-17.7 0-9.8-7.9-17.7-17.7-17.7zM32 24.1c0 .8-.7 1.7-1.8 1.7h-6.6v6.6c0 .8-.7 1.7-1.6 1.7h-5c-1.1 0-1.8-.9-1.8-1.8v-6.6H8.7c-1 0-1.6-.8-1.6-1.8v-4.8c0-.9.7-1.7 1.5-1.7h6.6v-6.5c0-.7.7-1.5 1.8-1.5h5c1 0 1.6.7 1.6 1.5v6.6h6.6c.8 0 1.7.6 1.7 1.8v4.8z" fill="#45B6F2"/></svg>