<svg width="217" height="41" xmlns="http://www.w3.org/2000/svg" xmlns:xlink="http://www.w3.org/1999/xlink"><defs><path id="a" d="M0 .39h216.552V41H0z"/></defs><g fill="none" fill-rule="evenodd"><mask id="b" fill="#fff"><use xlink:href="#a"/></mask><path d="M179.629 20.37c0-6.286.016-12.573-.02-18.858-.006-.885.24-1.141 1.103-1.119 2.155.06 4.313.045 6.468.006.731-.015 1.009.165 1.007.978a10429.66 10429.66 0 0 0 0 37.938c0 .777-.217 1.026-.986 1.01a133.521 133.521 0 0 0-6.577.004c-.87.024-1.015-.315-1.01-1.1.028-6.286.015-12.574.015-18.859zm-97.573-8.185c2.199.057 4.464.39 6.65 1.225.657.25.944.522.717 1.292a59.688 59.688 0 0 0-1.062 4.215c-.14.648-.352.759-.95.486a13.53 13.53 0 0 0-4.546-1.185c-.845-.07-1.685-.023-2.48.304-.727.299-1.232.795-1.327 1.628-.1.84.294 1.43.95 1.872 1.015.687 2.163 1.072 3.301 1.476 1.384.492 2.741 1.04 3.969 1.875 4.687 3.202 4.71 10.183.042 13.425-1.739 1.204-3.696 1.77-5.757 1.995-3.58.393-7.07.034-10.446-1.335-.764-.31-.964-.695-.723-1.502.411-1.387.744-2.8 1.058-4.215.147-.664.323-.83 1-.495a15.533 15.533 0 0 0 6.11 1.63 8.923 8.923 0 0 0 1.643-.06c1.406-.184 2.194-.802 2.365-1.793.192-1.107-.303-1.95-1.625-2.595a21.088 21.088 0 0 0-2.24-.906c-1.385-.49-2.731-1.05-3.99-1.83-6.002-3.723-4.275-10.715-.177-13.433 2.261-1.5 4.767-2.016 7.518-2.074zm121.526 11.21h4.276c.416 0 .76.008.779-.625.076-2.491-1.888-4.735-4.333-4.885-2.76-.171-5.168 1.94-5.537 4.807-.076.591.16.71.651.705 1.387-.012 2.777-.003 4.164-.003zm3.946 5.888c-2.635 0-5.268.023-7.899-.013-.766-.01-.956.204-.73.96.466 1.525 1.439 2.559 2.809 3.258 2.363 1.209 4.888 1.087 7.414.877 1.35-.112 2.685-.354 3.972-.8.602-.21.918-.169 1.03.595.205 1.395.5 2.78.806 4.16.138.632-.029.95-.645 1.148-4.917 1.575-9.9 2.11-14.893.558-5.009-1.557-7.806-5.18-8.569-10.402-.7-4.785.216-9.204 3.33-12.978 3.787-4.587 11.305-5.946 16.449-3.008 3.354 1.917 4.933 5.055 5.657 8.742.375 1.914.326 3.846.204 5.784-.054.855-.328 1.206-1.258 1.18-2.556-.073-5.119-.025-7.677-.025v-.036zm-147.97.122c0-.446-.021-.893.006-1.335.029-.507-.13-.77-.674-.728-1.781.135-3.575.225-5.2 1.106-1.751.948-2.466 2.853-1.751 4.61.604 1.478 2.35 2.182 4.186 1.685 2.372-.64 3.433-2.292 3.433-5.34v.002zm.458 8.164c-2.786 2.952-6.086 3.806-9.757 3.192-3.456-.579-5.832-2.63-6.676-6.11-.862-3.553-.032-6.746 2.817-9.166 2.672-2.265 5.921-2.97 9.269-3.333.907-.099 1.827-.18 2.736-.15.819.026.909-.352.793-1.023-.224-1.29-1.247-2.27-2.816-2.62-1.676-.375-3.348-.234-5.008.108-1.332.273-2.636.663-3.829 1.324-.68.378-.85.158-1.01-.496a56.712 56.712 0 0 0-1.105-3.855c-.188-.582-.079-.88.47-1.125 4.773-2.126 9.71-2.814 14.772-1.46 4.202 1.125 6.72 4.515 6.997 9.354.185 3.266.082 6.548.095 9.822.013 2.493-.027 4.99.345 7.463.099.67-.137.832-.747.825-1.901-.027-3.806-.06-5.705.012-.884.033-1.265-.257-1.318-1.14-.032-.473-.182-.938-.323-1.62v-.002zm77.537-8.074c0-.52-.004-1.038.003-1.557.008-.414-.159-.621-.58-.593-1.823.117-3.652.213-5.306 1.116-1.722.94-2.41 2.756-1.746 4.523.566 1.507 2.28 2.247 4.135 1.782 2.385-.6 3.497-2.274 3.496-5.271h-.002zm.503 8.023c-2.723 2.95-5.935 3.783-9.482 3.303-3.66-.495-6.3-2.98-7.071-6.394-.822-3.635.52-7.284 3.522-9.43 2.624-1.88 5.65-2.542 8.774-2.854.906-.09 1.823-.156 2.735-.145.69.007.792-.312.714-.896-.179-1.338-1.206-2.355-2.834-2.736-1.673-.393-3.346-.243-5.005.095-1.364.276-2.698.69-3.927 1.368-.534.295-.751.17-.902-.392a107.449 107.449 0 0 0-1.16-4.07c-.166-.54-.037-.821.46-1.04 4.84-2.14 9.843-2.876 14.972-1.41 4.123 1.179 6.164 4.29 6.75 8.473.149 1.064.178 2.148.207 3.225.12 5.016-.274 10.046.321 15.051.064.528-.129.647-.586.645-2.118-.013-4.24-.012-6.36.003-.53.006-.694-.274-.766-.729-.097-.615-.214-1.224-.362-2.067zM101.7 15.96c.275-.219.393-.288.48-.385 2.943-3.224 6.544-4.155 10.591-2.823 3.925 1.291 5.448 4.561 6.078 8.42.253 1.553.202 3.116.203 4.678.003 4.468-.018 8.935.02 13.4.008.815-.18 1.102-1.027 1.08-2.157-.06-4.315-.06-6.472 0-.85.022-1.038-.284-1.032-1.093.032-4.54.013-9.082.013-13.624 0-1.005-.036-2.007-.274-2.993-.59-2.433-2.193-3.657-4.528-3.44a4.473 4.473 0 0 0-4.038 4.4c-.046 3.797-.014 7.595-.014 11.391 0 1.49-.018 2.978.006 4.467.01.582-.11.89-.772.88-2.342-.03-4.683-.03-7.023 0-.683.011-.765-.314-.76-.884.018-2.567.007-5.136.007-7.704 0-10.05.01-20.102-.02-30.152-.004-.912.208-1.218 1.138-1.186a97.77 97.77 0 0 0 6.362 0c.907-.03 1.085.303 1.077 1.146-.036 4.356-.015 8.71-.015 13.065v1.357zm55.956 10.63h-.032c0 .856-.04 1.715.01 2.567.137 2.385 1.78 4.371 3.988 4.878 2.323.534 4.701-.45 5.771-2.619 1.587-3.219 1.606-6.547.03-9.777-1-2.097-3.338-3.23-5.628-2.722-2.237.489-3.915 2.388-4.127 4.773-.082.96-.012 1.933-.012 2.9zm-.048-10.687c4.084-3.888 8.975-4.76 13.253-2.51 2.308 1.216 3.953 3.095 4.907 5.512 2.07 5.244 1.996 10.504-.542 15.553-2.814 5.592-9.557 8.036-14.895 5.603-1.566-.716-2.762-1.866-3.899-3.561-.115 1.245-.229 2.15-.273 3.06-.024.58-.264.763-.812.756a180.875 180.875 0 0 0-5.705.004c-.676.015-.771-.29-.753-.873.4-12.65.103-25.305.168-37.956.003-.903.272-1.117 1.11-1.095 2.158.054 4.317.048 6.475 0 .772-.015.986.25.982 1.017-.03 4.355-.016 8.71-.016 13.065v1.425zM31.894 11.417c-2.445 9.076-5.437 17.982-8.114 26.985-.31 1.038-.743 1.416-1.812 1.344-1.491-.1-2.995-.044-4.494-.015-.557.009-.849-.146-1.007-.74-2.456-9.147-5.246-18.205-6.96-27.544-.102-.111-.119-.39-.375-.195-.217 9.336-.792 18.655-1.199 27.984-.032.781-.218 1.117-1.068 1.092-2.01-.051-4.023-.053-6.034-.008-.663.012-.87-.162-.825-.882.78-12.064 1.534-24.13 2.276-36.198.038-.606.219-.849.842-.844 3.29.022 6.58.027 9.871-.003.706-.008.82.41.972.942 2.312 8.067 4.86 16.07 6.411 24.345.044.246.124.486.269 1.059.265-1.01.47-1.709.63-2.417 1.78-7.839 4.353-15.44 6.708-23.103.206-.67.551-.832 1.185-.826 3.072.027 6.145.045 9.216-.01.886-.014 1.093.316 1.133 1.144.53 10.44 1.089 20.877 1.636 31.315.084 1.56.15 3.12.248 4.68.038.558-.117.803-.715.795a209.803 209.803 0 0 0-6.801.006c-.827.018-.742-.519-.764-1.017-.268-6.84-.535-13.677-.786-20.517-.088-2.452-.123-4.906-.182-7.36-.082-.111-.168-.132-.26-.012z" fill="#999" mask="url(#b)"/><path d="M31.657 12.118c-.003-.258-.068-.672.18-.646.225.024.183.406.077.662l-.256-.016m-22.597-.2c-.036-.312-.157-.64.093-.918.302.312.329.728.277 1.18l-.37-.26" fill="#999"/></g></svg>