<svg width="152" height="96" xmlns="http://www.w3.org/2000/svg" xmlns:xlink="http://www.w3.org/1999/xlink"><defs><path id="a" d="M0 .324h61.867v95.66H0z"/><path id="c" d="M.569.323h72.664v95.663H.569z"/><path id="e" d="M.058.588h46.25V67H.057z"/></defs><g fill="none" fill-rule="evenodd" opacity=".4"><mask id="b" fill="#fff"><use xlink:href="#a"/></mask><path d="M61.086.324H9.876C4.422.324 0 4.941 0 10.634v75.045c0 5.69 4.422 10.304 9.876 10.304h49.102l2.89-7.66C44.448 84.24 31.4 67.364 31.4 47.165c0-18.859 11.38-34.825 27.069-40.187L61.086.324" fill="#000" mask="url(#b)"/><g transform="translate(78)"><mask id="d" fill="#fff"><use xlink:href="#c"/></mask><path d="M2.92 89.11c21.184 0 38.356-18.413 38.356-41.13 0-22.715-17.172-41.133-38.355-41.133-.792 0-1.577.024-2.352.075l2.09-6.6h60.78c5.405 0 9.794 4.62 9.794 10.314v75.04c0 5.69-4.389 10.31-9.794 10.31H.569L2.92 89.11" fill="#000" mask="url(#d)"/></g><g transform="translate(63 29)"><mask id="f" fill="#fff"><use xlink:href="#e"/></mask><path d="M27.218 33.29h-5.102L31.7 6.143h5.102L27.218 33.29M40.031.588H23.507L.058 67.001h10.159l9.99-28.3h10.154c2.25 0 5.08-.682 6.255-4.06 1.167-3.381 7.516-21.108 9.278-26.437C47.65 2.878 43.448.588 40.03.588" fill="#000" mask="url(#f)"/></g><path d="M77.538 37.451L67.78 66h-9.814l10.733-31.412h-5.057L52.906 66H43L65.558 0h9.907L65.53 29.067h6.673c4.805 0 6.776 3.928 5.335 8.384" fill="#000"/></g></svg>