<svg width="78" height="140" xmlns="http://www.w3.org/2000/svg"><g fill="none" fill-rule="evenodd"><path d="M0 140h78V95.848H0V140zM21.356 38.434V17.846c3.007 0 4.24.817 4.24 3.544v13.492c0 2.735-1.233 3.552-4.24 3.552zm16.13-18c0-7.636-3.689-11.728-12.439-11.728H8.1v63.271h13.257V47.572h3.691c8.74 0 12.439-4.092 12.439-11.727V20.433zm32.667 24.545H57.575v15.954c0 1.635-.682 2.32-2.048 2.32s-2.05-.685-2.05-2.32V19.625c0-1.363.683-2.181 2.05-2.181 1.367 0 2.05.818 2.05 2.181v14.456H70.15V20.174c0-6.819-3.417-11.727-14.078-11.727-10.662 0-15.855 4.091-15.855 11.727v40.214c0 7.77 5.203 11.865 15.855 11.865 10.653 0 14.078-4.91 14.078-11.865v-15.41h.003zM0 94.615h77.997V0H0v94.615z" fill="#999"/><path d="M5.012 108.413c0-1.53.022-3.06-.011-4.594-.013-.58.122-.83.773-.819a204.2 204.2 0 0 0 6.454.002c.602-.007.835.154.818.783-.05 1.842.129 1.452-1.497 1.482-1.008.021-2.022.068-3.024-.015-.888-.074-.94.345-.964 1.046-.028.785.205 1.047 1.01.996 1.105-.069 2.22.028 3.326-.032.93-.05.74.567.71 1.057-.028.48.336 1.21-.697 1.167-1.141-.044-2.29.06-3.428-.031-.96-.076-.926.448-.902 1.09.021.586-.166 1.207.86 1.136 1.304-.091 2.623.023 3.93-.037.93-.044.74.566.709 1.053-.032.473.35 1.188-.692 1.168-2.22-.044-4.44-.03-6.657-.003-.59.007-.74-.205-.73-.755.032-1.564.012-3.128.012-4.694zm52.89 15.88c0-1.565.026-3.13-.01-4.692-.015-.61.175-.802.797-.792 2.15.034 4.301.03 6.45 0 .594-.007.837.128.814.772-.066 1.888.2 1.525-1.518 1.557-.975.016-1.953.06-2.92-.015-.852-.066-1.056.222-1.072 1.045-.017.902.342 1.041 1.118.997 1.073-.058 2.153.026 3.225-.027 1.02-.051.705.66.716 1.153.009.471.262 1.116-.687 1.072-1.207-.054-2.42.025-3.627-.025-1.034-.042-.67.683-.7 1.162-.03.493-.211 1.094.714 1.054 1.307-.06 2.623.039 3.928-.035.892-.053.906.423.852 1.038-.047.534.275 1.224-.793 1.195-2.148-.061-4.3-.04-6.449-.006-.664.009-.87-.205-.852-.863.046-1.53.015-3.06.015-4.59zm-37.905.093c0-1.53.026-3.063-.013-4.592-.014-.63.138-.892.832-.87 2.08.063 1.684-.21 1.701 1.689.023 2.502.006 2.502 2.582 2.502 2.385 0 2.385 0 2.385-2.388v-.201c0-1.596.476-1.942 2.095-1.591.432.09.415.361.415.66 0 3.194-.01 6.39.008 9.586.003.535-.217.66-.717.68-1.801.068-1.77.085-1.814-1.691-.023-.878.432-2.05-.225-2.555-.554-.423-1.679-.128-2.55-.132-2.172-.006-2.172-.001-2.172 2.101v.999c0 1.267-.004 1.203-1.316 1.287-.959.06-1.294-.205-1.233-1.19.088-1.425.022-2.86.022-4.294zm33.436-17.622c0 .369.003.733 0 1.1-.003.287.033.56.408.55.838-.023 1.681.11 2.512-.089.92-.224 1.197-.867 1.137-1.734-.06-.893-.578-1.32-1.428-1.371-.671-.042-1.346.007-2.017-.025-.513-.02-.64.23-.613.67.017.3.001.6.001.899zm6.484 6.958c-.163.07-.192.092-.22.094-2.412.157-2.462.18-3.64-2.198-.453-.914-.99-1.294-2.005-1.17-.484.055-.65.205-.622.662.023.363.006.73.006 1.095 0 1.646-.487 2.003-2.134 1.641-.375-.082-.39-.296-.39-.568-.002-3.225.004-6.449-.01-9.676-.002-.505.244-.606.682-.602 1.649.015 3.296-.014 4.94.019 1.726.036 2.944.929 3.418 2.437.512 1.624.031 3.402-1.31 4.286-.622.41-.588.683-.248 1.224.542.869 1.002 1.79 1.532 2.756h.001zm-20.11 10.755c.01-1.954-1.261-3.316-3.096-3.319-1.843-.005-3.15 1.345-3.164 3.262-.013 2.014 1.256 3.365 3.156 3.36 1.854-.01 3.097-1.33 3.105-3.303zM36.657 130c-3.456-.01-5.708-2.215-5.711-5.595-.005-3.294 2.38-5.611 5.76-5.597 3.372.015 5.703 2.323 5.699 5.648-.003 3.356-2.281 5.554-5.748 5.544zm-20.064-21.561v1.392c0 2.017 0 2.017 2.045 1.803 1.758-.186 2.616-1.16 2.652-3.013.041-2.078-.683-3.05-2.514-3.296-.527-.071-1.07-.024-1.603-.054-.437-.026-.593.16-.585.581.019.863.006 1.724.006 2.587h-.001zm-2.592.026c0-1.53.037-3.062-.018-4.59-.025-.724.237-.9.918-.872 1.175.052 2.352.003 3.527.027 4.53.083 5.958 2.935 5.372 6.717-.384 2.487-2.214 3.89-5.11 4.072-1.337.084-2.686.007-4.03.046-.555.014-.675-.218-.668-.71.022-1.564.009-3.128.009-4.69zm29.645-3.109c-1.876.005-3.121 1.314-3.119 3.274.003 1.93 1.295 3.322 3.104 3.345 1.835.025 3.187-1.416 3.171-3.378-.017-1.959-1.268-3.242-3.156-3.24zm-5.715 3.196c.01-3.344 2.319-5.564 5.77-5.552 3.425.013 5.7 2.258 5.693 5.626-.004 3.314-2.365 5.594-5.77 5.574-3.415-.023-5.704-2.295-5.693-5.648z" fill="#FFF"/><path d="M72.973 104.968c.105 1.134-.065 2.365-1.525 3.046-.4.185-.673.272-.85-.231-.118-.337-.565-.678.102-.943.217-.088.409-.232.555-.415.255-.328.418-.75-.259-.685-.826.082-.82-.346-.809-.945.038-1.796.02-1.76 1.823-1.794.737-.013 1.083.168.968.936-.039.26-.005.53-.005 1.031m-48.901 3.505c0-1.494.05-2.992-.019-4.483-.039-.827.27-1.078 1.036-.96.032.003.067 0 .101 0 1.61.016 1.41-.187 1.417 1.357.008 2.825-.02 5.651.018 8.473.01.743-.144 1.148-.984 1.004a1.574 1.574 0 0 0-.504 0c-.813.128-1.13-.14-1.085-1.007.076-1.456.021-2.923.02-4.385m18.052 15.812c0-1.528.035-3.058-.014-4.583-.023-.707.22-.982.918-.88.066.01.135 0 .202.002 1.626.017 1.41-.175 1.417 1.36.01 2.857-.027 5.716.022 8.572.014.797-.223 1.105-1.019.982a1.757 1.757 0 0 0-.504 0c-.767.108-1.08-.138-1.042-.968.072-1.492.02-2.99.02-4.485m-9.003-21.26c1.385 0 2.77.022 4.156-.012.581-.014.745.194.757.749.027 1.518.053 1.518-1.474 1.518-2.194 0-2.194 0-2.194 2.198 0 1.83-.029 3.66.015 5.49.017.68-.157.921-.891.905-1.728-.032-1.73.006-1.73-1.668 0-2.063-.013-4.125.012-6.19.006-.55-.15-.78-.742-.745-.706.042-1.42-.022-2.128.021-.591.033-.914-.118-.82-.766a1.7 1.7 0 0 0 0-.498c-.107-.752.144-1.067.984-1.021 1.348.071 2.702.018 4.055.018M13.45 129.995c-3.503 0-5.675-2.385-5.43-5.859.25-3.564 2.835-5.723 6.31-5.278 1.238.16 2.343.581 3.251 1.47.41.402.585.709-.024 1.062a2.798 2.798 0 0 0-.55.438c-.497.494-.852.513-1.471.01-1.9-1.547-4.409-.564-4.85 1.821-.464 2.492.91 4.26 3.172 4.092.86-.064 1.608-.389 2.03-1.133.349-.61.682-.52 1.2-.26 1.472.742 1.511.845.37 2.038-1.112 1.162-2.5 1.661-4.008 1.599m37.998-.006c-3.43-.007-5.527-2.366-5.32-5.985.189-3.332 2.79-5.517 6.15-5.167 1.387.147 2.613.618 3.593 1.646.302.316.347.525-.037.781-.28.187-.562.385-.786.63-.464.5-.792.438-1.31-.016-1.07-.94-2.723-.985-3.764-.233-1.179.854-1.63 2.87-.983 4.38.55 1.282 1.721 1.908 3.211 1.702.776-.107 1.434-.463 1.827-1.13.306-.522.568-.564 1.108-.285 1.557.804 1.59.89.347 2.158-1.105 1.13-2.477 1.563-4.036 1.52m12.603-26.98c1.425-.01 2.666.238 3.816.879.449.25.58.505.172.898a1.624 1.624 0 0 0-.292.408c-.384.729-.819.905-1.652.484-.897-.449-1.937-.561-2.965-.336-.464.1-.854.321-.901.818-.052.548.314.894.806 1.007 1.115.258 2.26.399 3.366.68 1.785.456 2.577 1.557 2.44 3.275-.093 1.17-.728 2.036-1.79 2.47-2.616 1.067-5.14.81-7.531-.703-.52-.329-.426-.58-.095-1.007.568-.736.984-1.224 2.05-.52 1.104.734 2.472.84 3.814.535.532-.121.961-.368.961-.983 0-.566-.403-.845-.882-.954-.985-.22-1.992-.346-2.975-.578-1.925-.457-2.75-1.448-2.72-3.18.023-1.4.803-2.438 2.199-2.905a5.889 5.889 0 0 1 2.179-.287" fill="#FFF"/><path d="M27.646 86.43c-.188 1.158-.397 2.315-.558 3.474-.093.67-.289 1.09-1.107 1.092-.821.002-.966-.41-1.096-1.082-.252-1.323-.218-2.717-.956-4.325 0 1.702-.028 3.02.011 4.337.022.734-.164 1.07-.998 1.073-.889.003-.946-.448-.941-1.123.018-2.88.02-5.76 0-8.64-.006-.727.01-1.339 1.013-1.222.77.091 1.743-.342 1.912.999.224 1.783.556 3.55 1.144 5.378.323-1.711.777-3.411.93-5.138.136-1.555 1.141-1.197 2.053-1.237 1.25-.054.9.864.906 1.504.022 2.76-.012 5.521.016 8.28.006.778-.115 1.224-1.069 1.199-.885-.024-.951-.475-.934-1.151.025-1.129.005-2.258.005-3.387l-.331-.03" fill="#FEFCFC"/><path d="M66.603 86.23c-.19 1.215-.393 2.432-.566 3.651-.091.645-.24 1.111-1.067 1.111-.787 0-.966-.355-1.098-1.049-.254-1.33-.238-2.718-.962-4.418 0 1.648.003 2.852 0 4.06-.004.69.212 1.442-.987 1.414-1.06-.025-.913-.67-.913-1.314-.001-2.805.013-5.612-.01-8.418-.006-.735.035-1.324 1.011-1.214.768.084 1.721-.32 1.891.998.234 1.772.56 3.532 1.178 5.356.259-1.517.581-3.028.754-4.556.151-1.323.59-1.978 2.094-1.83 1.613.154.92 1.281.945 1.985.084 2.384.074 4.778.004 7.164-.02.665.614 1.79-.91 1.812-1.644.024-.932-1.185-1.01-1.91-.097-.934-.023-1.883-.023-2.824l-.33-.019" fill="#FEFBFB"/><path d="M58.452 85.127c-.082-1.16-.147-2.356-.26-3.548-.05-.525-.272-1.01-.879-1.031-.519-.016-.791.409-.843.852-.291 2.38-.29 4.787.006 7.165.057.45.345.858.85.84.598-.023.831-.487.88-1.032.096-1.066.164-2.134.246-3.246zm1.831 3.963c-.828 1.608-2.124 2.164-3.838 1.806-1.74-.366-2.108-1.772-2.282-3.254-.203-1.75-.232-3.519 0-5.272.198-1.5.624-2.882 2.31-3.263 1.719-.385 2.994.278 3.81 1.87.955 2.703.957 5.41 0 8.115v-.002z" fill="#FEFCFC"/><path d="M39.202 84.993c0 .948-.039 1.896.015 2.838.04.677.078 1.467.903 1.6.45.074.786-.281.889-.73.175-.754.586-1.77-.165-2.193-.712-.403-.906-.933-.598-1.432.48-.775 1.357-.283 2.059-.354.696-.071.65.52.652 1.03.002.57.048 1.143-.01 1.702-.112 1.087.331 2.233-.273 3.269-.982-.816-1.8.302-2.712.277-1.37-.04-2.287-.745-2.593-2.257a17.97 17.97 0 0 1 .055-7.504c.373-1.702 1.69-2.494 3.32-2.166 1.546.308 1.962 1.53 2.037 3.048.038.754-.126 1.18-.925 1.184-.711.003-1.057-.177-1.009-1.046.036-.673.08-1.631-.735-1.648-.933-.022-.85 1.018-.9 1.734-.065.878-.016 1.764-.016 2.648h.006z" fill="#FEFCFB"/><path d="M49.111 85.202c.059.957.116 2.022.195 3.085.037.541.244 1.034.789 1.074.668.05.86-.537.93-1.114.06-.495.04-1.003.04-1.504-.002-.52.142-.875.702-.756.46.1 1.014-.125 1.161.756.334 2.002-.518 3.815-2.086 4.16-1.984.436-3.283-.612-3.627-2.944a19.726 19.726 0 0 1 .092-6.373c.346-1.937 1.687-2.856 3.458-2.517 1.486.287 2.254 1.666 2.113 3.56-.058.777-.363.937-.981.92-.56-.014-1.077.008-.995-.856a3.455 3.455 0 0 0-.018-.75c-.07-.609-.05-1.4-.848-1.35-.637.038-.706.735-.744 1.303-.072 1.065-.118 2.131-.181 3.306" fill="#FDFAFA"/><path d="M17.234 84.983c0 1.07-.019 2.142.007 3.212.015.614.27 1.208.867 1.214.61.004.807-.608.857-1.218.01-.127 0-.256.025-.377.152-.745-.564-2.095 1.09-1.783 1.505.286.713 1.458.702 2.227-.024 1.714-.907 2.666-2.494 2.737-1.596.075-2.692-.69-3.001-2.451-.404-2.313-.367-4.656.02-6.961.33-1.96 1.495-2.783 3.253-2.542 1.575.217 2.283 1.371 2.22 3.427-.025.79-.217 1.091-.985 1.103-.82.015-.989-.384-.91-1.133.013-.125.01-.253-.006-.378-.08-.615-.063-1.467-.776-1.48-.838-.016-.84.894-.87 1.569-.046.941-.012 1.89-.012 2.834h.013" fill="#FEFCFC"/><path d="M33.43 87.359h1.034l-.562-3.139-.471 3.139zm2.722 3.6c-.661.018-1.249.082-1.3-.813-.035-.593-.066-1.2-.894-1.242-.853-.042-.888.572-.941 1.162-.096 1.081-.834.979-1.495.868-.875-.146-.401-.86-.332-1.274.491-2.872 1.075-5.726 1.546-8.6.136-.848.485-1.054 1.227-1.06.78-.006 1.094.316 1.239 1.103a387.77 387.77 0 0 0 1.725 8.745c.175.837.08 1.297-.775 1.111z" fill="#FEFCFB"/><path d="M10.133 83.309c.422.544-.625 1.739.652 1.797.849.038.86-.999.856-1.715-.004-.776.019-1.838-.995-1.779-.908.052-.215 1.1-.514 1.697h.001zm-.2-3.272c3.382.014 4.817 2.106 3.686 5.134-.387 1.035-1.16 1.568-2.204 1.58-1.098.006-1.322.512-1.226 1.439.062.59-.029 1.197.024 1.791.07.794-.273 1.05-1.052 1.016-.652-.031-1.175.009-1.16-.911.042-3.049.002-6.096.022-9.145.012-1.7 1.412-.493 1.91-.904z" fill="#FEFCFC"/><path d="M45.553 88.044c1.242-.222 1.454.408 1.447 1.435-.005.988-.138 1.516-1.406 1.52-1.292.008-1.6-.427-1.594-1.578.007-1.122.407-1.55 1.553-1.377" fill="#FFF"/></g></svg>