<svg width="230" height="32" xmlns="http://www.w3.org/2000/svg"><g fill="#999" fill-rule="evenodd"><path d="M6.402 18.258V9.404l-2.538 1.189s-.648 1.519-.535 3.726c.09 1.723 1.008 3.786 1.715 4.65l1.358-.71zM13.838.03a4.312 4.312 0 0 1 2.351 1.064c.787.8.966 2.016.689 3.122-.245.986-.52 1.496-1.477 2.178-.968.685-2.14.625-2.14.625v4.268l1.978 1.682-1.978 1.674v5.813s1.983-1.192 3.214-3.863c0 0 .05-.144.165-.419.11.715.047 2.162-.724 4.02-.581 1.4-1.638 2.747-2.964 3.515-2.351 1.368-4.113 1.498-6.002 1.086-2.212-.477-4.22-1.78-5.592-4.055-.964-1.597-1.395-3.46-1.356-5.464.077-3.936 2.868-7.329 6.09-8.594.392-.154.548-.255 1.105-.309-.257.183-.553.421-.918.673-1.036.713-1.925 2.137-2.305 3.234l6.253-2.926v9.167l-5.042 2.65c.574.836 2.32 2.101 3.813 2.28 2.54.294 4.031-.87 4.031-.87v-5.938l-1.97-1.674 1.972-1.676V7.02c-1.074-.131-2.379-.502-3.142-.7-1.121-.29-4.86-1.391-5.449-1.482-.586-.093-1.312-.063-1.75.347-.44.415-.71 1.144-.523 1.8.106.373.349.589.533.802 0 0-.215-.02-.606-.266C1.387 7.078.85 6.208.787 5.138c-.084-1.405.468-2.669 1.572-3.52C3.319.972 4.405.555 5.667.745c1.842.276 4.318 1.366 6.523 1.921.854.22 1.516.29 2.117-.078.279-.21.771-.757.37-1.481-.47-.85-1.37-.83-2.133-.981.657-.145.8-.145 1.294-.097zM184.89 12.102l.154.176 1.182-1.002 1.756 1.956v6.71l-.853.767 2.733 3.04 2.808-2.721-1.154-1.173v-8.12l.699-.547 1.939 2.227v6.694l-.729.716 2.575 2.85 2.753-2.712-1.01-1.044-.028-8.152.744-.593 2.023 2.192v6.656l-.666.654 2.844 3.05 3.815-3.468-.16-.172-.928.841-1.42-1.55v-7.6l1.37-1.025-.142-.185-1.374 1.025-2.597-2.865-3.713 2.888-2.602-2.784-3.585 2.761-2.624-2.748-3.81 3.258zm29.553 3.311l-2.914 2.098V10.53l2.914 4.882v.002zm-.085-6.709s-1.964 1.17-3.284 1.945c-1.322.77-3.091 1.62-3.091 1.62v8.123l-1.182.934.158.18 1.152-.913 3.612 3.212L218 18.913l-.15-.177-3.468 2.677-2.851-2.626v-.978l5.727-4.147-2.899-4.958h-.001zM79.486 23.864l-3.076-2.516-1.352.968-.138-.191 1.376-.989v-7.033c.066-2.896-2.698-2.177-2.548-5.25.066-1.35 1.396-2.372 2.065-2.71.718-.358 1.496-.358 1.496-.358s-1.261.774-.955 1.889c.472 1.718 3.456 1.871 3.513 4.159v7.98l2.204 1.737.58-.447v-8.637l-1.188-1.16 3.06-2.665 2.793 2.437-1.066 1.137v7.656l2.618 2.126.465-.294V12.49l-1.19-1.097 3.065-2.757 2.867 2.332 1.145-1 .154.177-2.577 2.228v7.51l-6.594 4-3.37-2.625-3.347 2.608zm-8.69-8.451l-2.912 2.098V10.53l2.913 4.882v.002zm-.083-6.709s-1.964 1.17-3.285 1.945c-1.32.77-3.092 1.62-3.092 1.62v8.123l-1.18.934.156.18 1.152-.913 3.612 3.212 6.277-4.892-.15-.177-3.468 2.677-2.85-2.626v-.978l5.726-4.147-2.898-4.958zM50.214 26.126c-1.617-.18-2.298-1.147-2.278-1.908.012-.488.46-1.444 1.445-1.573.984-.135 1.988.319 2.837 1.3l3.736-4.062-.18-.16-1.004 1.106c-1.02-1.143-2.466-1.862-3.907-2.07V6.384l9.705 17.395s.093.198.493.198c.343 0 .26-.274.26-.274V6.198c.786-.033 1.991-.46 2.575-1.05 1.87-1.889 1.106-3.95.902-4.148-.115.9-.819 1.805-1.994 1.81-1.54.004-2.481-1.114-2.481-1.114l-3.734 4.187.179.157 1.07-1.203c1.306 1.184 2.26 1.295 3.247 1.361l-.002 10.157-7.2-12.867c-.651-1.064-1.644-1.996-3.199-2.011-1.788-.01-3.068 1.542-3.221 2.877-.173 1.51.018 1.858.018 1.858s.263-1.68 1.321-1.667c.948.015 1.442.873 1.824 1.52V9.79c-.98.065-3.53.178-3.685 2.786-.01.97.601 1.986 1.137 2.33.691.445 1.23.436 1.23.436s-.827-.431-.58-1.286c.222-.765 1.84-.89 1.898-.571v5.26c-.778-.01-3.273.075-4.397 2.178-.678 1.27-.638 2.692.086 3.694.59.817 1.807 1.862 3.9 1.509zm-28.104.734c.826.198 2.278.311 4.031-.554 1.941-.955 2.917-2.984 2.904-5.063l.082-2.948v-6.438l1.241-.932-.144-.182-1.221.905-2.818-3.084-3.615 3.055V1.241l-4.517 3.435c.2.125.841.24.86 1.128v14.538L17 21.74l.13.195.924-.678 2.572 2.352 4.05-3.17-.148-.18-.95.742-1.008-.984.01-8.1 1.18-.99 1.758 2.151s-.003 5.244.002 6.986c-.014 1.856-.02 4.172-1.011 5.292-.992 1.123-1.388 1.21-2.4 1.504zm16.537-11.447l-2.912 2.098V10.53l2.912 4.882v.002zm-.084-6.709S36.6 9.874 35.28 10.65c-1.322.77-3.093 1.62-3.093 1.62v8.123l-1.18.934.156.18 1.152-.913 3.612 3.212 6.277-4.892-.15-.177-3.468 2.677-2.851-2.626v-.978l5.727-4.147-2.899-4.958z"/><path d="M178 12.116l.169.177 1.1-.854 1.72 1.828v7.706l-1.213.952.169.179 1.273-.975L183.991 24 188 20.79l-.169-.18-1.18.933-1.657-1.715v-7.535l1.397-1.088-.169-.177-1.328 1.026L181.976 9 178 12.114"/><path d="M223.538 10.281v4.066l1.372 1.18s2.978-2.355 4.06-4.534c0 0-1.338 1.79-3.14 1.243-1.51-.453-2.292-1.956-2.292-1.956v.001zm-3.327 10.783s1.304-2.13 3.547-1.671c2.148.44 2.895 2.681 2.895 2.681v-5.16l-1.5-1.288c-1.647 1.634-4.578 3.997-4.942 5.44v-.002zm2.136 3.917c-.418.121-2.234-.314-2.67-2.172-.425-1.812.85-3.037 2.774-4.965l-2.272-2.05V11.88s1.67-.824 2.977-1.629c1.309-.81 2.648-1.685 2.648-1.685s.975 1.216 2.078 1.12c1.729-.152 1.647-1.494 1.597-1.813.295.52 1.084 2.064-1.95 5.517L230 15.362v5.082s-2.871 1.474-5.587 3.43c0 0-1.515-1.871-2.832-.977-.889.603-.483 1.623.766 2.083v.001zM167.595 17.7V9.115l-2.615 1.153s-.667 1.472-.55 3.612c.09 1.67 1.038 3.67 1.766 4.507l1.399-.688zM175.253.027c.89.098 1.731.458 2.42 1.03.812.776.997 1.956.712 3.028-.252.955-.534 1.45-1.523 2.11-.996.665-2.204.607-2.204.607v4.138l2.04 1.63-2.039 1.623v5.635s2.043-1.156 3.31-3.744c0 0 .052-.14.17-.407.113.693.05 2.096-.746 3.898-.598 1.357-1.688 2.663-3.054 3.407-2.42 1.326-4.234 1.452-6.18 1.053-2.279-.463-4.347-1.726-5.76-3.931-.993-1.548-1.439-3.355-1.396-5.297.078-3.816 2.952-7.105 6.272-8.332.403-.149.564-.247 1.138-.299-.264.178-.57.408-.945.652-1.067.692-1.983 2.072-2.374 3.135l6.44-2.836v8.887l-5.194 2.569c.592.81 2.39 2.037 3.93 2.21 2.616.285 4.15-.844 4.15-.844v-5.756l-2.026-1.623 2.027-1.624V6.804c-1.107-.127-2.45-.487-3.235-.68-1.155-.28-5.007-1.348-5.612-1.436-.604-.09-1.351-.06-1.803.337-.453.402-.732 1.109-.54 1.746.11.36.36.57.55.776 0 0-.223-.018-.624-.258-.728-.429-1.282-1.272-1.348-2.31-.085-1.361.483-2.587 1.621-3.412.989-.626 2.107-1.03 3.407-.846 1.898.267 4.447 1.324 6.719 1.862.88.213 1.562.281 2.18-.075.288-.205.795-.734.38-1.437-.483-.823-1.41-.803-2.195-.949.677-.14.824-.14 1.332-.094V.027zm3.704 5.48l2.755-2.49 2.24 2.452-2.767 2.483-2.228-2.443v-.002zm-32.697 9.696l4.36-6.188s.574.663 1.576.922c1.361.346 2.55-.937 2.55-.937-.228 1.656-1.088 3.533-2.862 3.82-1.565.254-3.02-.932-3.02-.932l-.282.427 6.052 8.921 1.21-1.036.156.173-4.153 3.54-5.587-8.71zm-9.94-3.52l2.358-2.35s.323.277.627.423c.172.08.885.442 1.541.09.354-.192.405-.24.793-.6.08 1.827-.818 3.115-1.941 3.647-.46.218-1.8.636-3.204-1.032v8.447l1.494 1.288 1.246-1.005.144.177-3.901 3.177-2.97-2.637-1.068.983-.175-.183 1.627-1.432.014-7.293-1.249-1.613-1.072.922-.155-.168 3.78-3.315 2.11 2.475v-.001zm-13.767 7.716l3.137 2.77V13.69l-3.135-2.832v8.538l-.002.002zm6.467-6.92l1.095-.982.157.173-1.065.963v7.853s-2.024 1.046-3.436 1.823A98.053 98.053 0 0 0 122.853 24l-3.712-3.05-.982.831-.159-.172 1.032-.878v-8.443h.015s1.75-.773 3.226-1.586c1.322-.728 2.8-1.57 2.8-1.57l3.947 3.347z"/><path d="M111.891 11.824s-.536.597-1.378.597c-.845 0-1.397-.603-1.397-.603v2.594s.552-.602 1.396-.602c.843 0 1.38.57 1.38.57v-2.556zm0-5.556l-1.871-1.614-.904.698v6.079s.557.69 1.4.69c.845 0 1.375-.662 1.375-.662V6.267v.001zm-2.775 17.218s1.13.293 1.956-.369c.916-.74.82-1.782.82-1.782v-6.56s-.53-.67-1.376-.67c-.843 0-1.4.695-1.4.695v8.686zm-6.637-17.298c0-1.279-.53-1.992-1.387-2.01-1.234-.03-1.526 1.678-1.526 1.678s-.224-1.316.898-2.51c.631-.665 1.808-1.604 3.65-1.17 1.9.454 2.441 1.899 2.441 3.176v17.611c.786.094 1.563.247 2.325.458V2.185h.236V5.05l3.899-3.08 2.855 2.492 1.333-1.13.151.177-1.393 1.176V21.06c-.068 1.069-.244 2.156-1.272 2.781-2.294 1.334-5.061-.205-7.526-.556-1.831-.266-4.703-.605-5.424 1.04-.235.541-.22 1.376.612 1.922 1.665 1.092 9.081-1.833 11.625-.672 2.32 1.059 2.31 2.735 1.953 3.885-.602 2.162-3.382 2.54-3.382 2.54s1.36-.775.972-2.057c-.197-.65-.647-.832-2.102-.673-3.18.355-6.98 1.865-9.533.816-1.316-.535-2.247-2.15-2.156-3.735.065-2.283 2.751-3.182 2.751-3.182v-8.44c-.077-.336-1.51-.248-1.823.373-.477.938.59 1.367.59 1.367s-.885.132-1.627-.709c-.362-.411-1.116-1.847-.135-3.176.807-1.097 1.775-1.288 2.995-1.418V6.188zm40.581.311c0-1.37-.572-2.214-1.32-2.154L146.594 1v18.93l1.283 1.326.969-.826.154.178-3.913 3.35-2.65-2.441-1.06.914-.167-.177 1.85-1.581V6.499z"/></g></svg>