<svg width="104" height="105" xmlns="http://www.w3.org/2000/svg" xmlns:xlink="http://www.w3.org/1999/xlink"><defs><path id="a" d="M0 0h104v105H0z"/></defs><g fill="none" fill-rule="evenodd" opacity=".4"><mask id="b" fill="#fff"><use xlink:href="#a"/></mask><path d="M104 52.5C104 23.559 80.665 0 52 0 23.333 0 0 23.559 0 52.5 0 81.556 23.333 105 52 105c28.665 0 52-23.444 52-52.5zm-2.481 0c0 27.633-22.15 49.996-49.519 49.996-27.371 0-49.556-22.363-49.556-49.996C2.444 24.867 24.63 2.469 52 2.469c27.37 0 49.519 22.547 49.519 50.031zm-3.15 0C98.37 35.898 90 18.733 72 13.236c-3.74-1.159-6.89-1.906-10.517-1.906-8.334 0-8.63 4.787-12.519 4.787-2.15 0-3.594-1.57-3.594-3.479 0-3.327 3.89-5.945 10.075-5.945 5.777 0 10.223 1.46 11.075 1.871l.148-.412C65.11 7.552 59.629 5.647 52 5.647c-16.593 0-33.445 8.6-38.89 26.623-1.148 3.778-1.889 6.994-1.889 10.62 0 8.451 4.742 8.863 4.742 12.79 0 2.055-1.555 3.513-3.446 3.513-3.296 0-5.888-3.814-5.888-10.208 0-5.796 1.444-10.319 1.703-11.18l-.407-.15c-.444 1.758-2.333 7.143-2.333 14.845 0 16.864 8.518 33.877 26.371 39.413 3.74 1.157 6.925 1.87 10.518 1.87 8.369 0 8.63-4.937 12.519-4.937a3.6 3.6 0 0 1 3.629 3.628c0 3.215-3.777 5.833-10.11 5.833-5.742 0-10.371-1.458-11.075-1.758l-.148.45c1.592.708 7.073 2.318 14.704 2.318 16.556 0 33.556-8.45 38.888-26.626 1.148-3.626 1.852-6.955 1.852-10.468 0-8.564-4.74-8.863-4.74-12.79 0-2.168 1.444-3.626 3.444-3.626 3.333 0 5.927 3.927 5.927 10.32 0 5.684-1.446 10.17-1.742 11.181l.444.15c.556-1.722 2.296-7.104 2.296-14.958zM80.925 66.448c0 6.544-5.592 13.386-13.814 13.386-9.926 0-14.965-8.45-14.965-16.004 0-10.62 7.187-15.107 10.223-16.715-.592-.448-1.037-1.009-1.444-1.756-3.481 2.467-6.629 4.674-13.258 8.45-.298 4.636-.705 9.724-1.89 13.237-2.445 7.404-7.481 12.788-14.11 12.788-5.594 0-8.334-4.076-8.334-8.45 0-3.179 1.851-7.255 5.184-10.322 4.187-3.775 8.779-6.095 15.112-9.459.148-.86.296-1.721.444-2.768-1.592 1.458-3.888 2.058-5.777 2.058-3.002 0-5.481-2.619-6.038-5.385-4.037-.299-7.074-3.216-7.222-7.853 0-3.327 1.296-6.245 3.481-6.245.852 0 1.148.71 1.148 1.31 0 .56-.74 2.468-.74 4.337 0 1.906.888 4.375 3.186 4.375 0-7.553 5.481-17.314 11.962-17.314 4.296 0 4.89 3.216 4.89 4.676 0 6.842-6.779 14.395-12.26 16.266.149.598.741 2.205 2.482 2.205 2.148 0 4.74-2.056 6.036-3.665.556-3.028 2.74-7.403 5.629-7.403 1.15 0 1.704.86 1.704 1.906 0 2.17-2.295 4.936-4.035 6.805-.261 1.46-.41 3.067-.41 4.376 5.039-3.065 7.631-4.636 11.372-7.404-.297-1.009-.297-2.207-.297-3.365 0-6.806 4.481-14.397 10.372-14.397 3.332 0 5.036 2.356 5.036 4.973 0 4.936-4.185 9.274-10.073 13.799.444 1.159 1.148 2.17 2.294 2.768.15-.301 2.039-.598 3.594-.598 1.74 0 4.185.448 4.185 2.205 0 2.019-2.74 2.469-4.888 2.469-1.148.148-3.037-.3-3.037-.3-3.15.859-9.223 4.524-9.223 13.798 0 6.283 3.888 12.077 9.964 12.077 4.592 0 8.332-3.476 8.48-8.86.002-3.479-1.444-7.144-4.888-7.144-1.74 0-3.298 1.31-3.298 3.217-.146 2.915 2.002 3.214 2.002 5.085 0 1.309-1 1.908-2.002 1.908-2.887 0-5.074-2.917-5.074-6.543 0-4.377 3.778-8.005 8.668-8.005 6.333 0 9.629 5.536 9.629 11.481zM70.296 29.803c0-.712-.148-1.607-1.037-1.607-2.148 0-5.594 4.672-5.594 10.618 4.298-3.778 6.631-6.992 6.631-9.01zm-25.52-.598c0-.712-.407-1.01-1-1.01-3.036 0-7.332 8.002-7.332 12.789 4.74-2.619 8.333-8.564 8.333-11.779zm-1.703 27.22c-6.48 3.18-14.704 8.865-14.704 15.11 0 2.317 1.148 3.774 3.298 3.774 6.333 0 10.221-10.169 11.406-18.882v-.002z" fill="#000" mask="url(#b)"/></g></svg>