<svg width="182" height="134" xmlns="http://www.w3.org/2000/svg" xmlns:xlink="http://www.w3.org/1999/xlink"><defs><path id="a" d="M0 .055h15.88v21.606H0z"/><path id="c" d="M.314.321H21.31V25H.314z"/></defs><g fill="none" fill-rule="evenodd" opacity=".4"><path d="M102.063 25c.608-3.898.937-7.789.937-11.613 0-7.686-1.829-10.329-2.9-11.33A44.62 44.62 0 0 0 86.689 0C73.402 0 61.435 5.823 53 15.137c2.23-1.236 6.312-2.533 11.956-2.533 14.215 0 27.016 5.18 37.107 12.396M95 47.864C82.651 38.549 67.034 31 52.277 31c-6.38 0-9.995 2.01-11.457 3.202A47.601 47.601 0 0 0 39 47.227C39 63.896 47.579 78.544 60.541 87 70.316 86.805 85.693 69.474 95 47.864m22.122-8.324c7.13 9.019 11.219 18.663 11.219 25.67 0 1.009-.11 2.019-.235 2.79A46.906 46.906 0 0 0 133 47.094c0-14.984-7.023-28.346-18-37.094 1.16 1.738 3.19 5.771 3.19 16.234a83.12 83.12 0 0 1-1.068 13.305M109.589 63C101.171 80.676 87.813 92.386 77 94.236c2.697.493 5.469.764 8.304.764 12.64 0 24.101-5.118 32.521-13.423.096-.397.175-.912.175-1.56-.005-4.342-3.235-10.576-8.411-17.017" fill="#000"/><g transform="translate(0 110)"><mask id="b" fill="#fff"><use xlink:href="#a"/></mask><path d="M0 20.227V8.204c0-2.242.023-4.54 1.63-6.35C3.214.083 5.424.058 7.607.058h7.296c.621-.024.93.141.97.467.03.246-.063.567-.1.814-.031.215-.06.431-.092.649-.06.44-.084.91-.284 1.318-.079.165-.18.299-.306.4-.306.246-.66.194-1.026.194H9.067c-.73 0-1.508-.064-2.222.11-.426.105-.775.286-1.031.552-.537.556-.478 1.225-.478 1.927v3.153h8.273c.646.017 1.081.255 1.059.968v2.171c-.034.546-.352.772-.862.777h-8.48c-.002 2.131-.002 4.265-.002 6.4.028 1.066-.272 1.665-.97 1.704H1.451c-1.014.005-1.465-.51-1.451-1.434" fill="#000" mask="url(#b)"/></g><path d="M60.884 108h5.23c.486 0 .886.296.886.656v20.688c0 .36-.4.656-.887.656h-5.229c-.487 0-.884-.296-.884-.656v-20.688c0-.36.397-.656.884-.656M19 109.048v11.835c0 1.093-.016 2.148.24 3.223a7.54 7.54 0 0 0 .703 1.855c1.776 3.286 5.275 4.094 8.715 4.036 3.062-.056 6.138-1.093 7.955-3.76a7.92 7.92 0 0 0 1.047-2.23c.31-1.047.339-1.984.339-3.06V109.85c0-.374.02-.735-.102-1.095-.154-.448-.47-.72-1.001-.755h-2.848c-.65.027-1.05.323-1.105 1.003v12.783a4.514 4.514 0 0 1-.581 2.238c-.913 1.619-2.165 2.172-3.955 2.172-1.872 0-2.956-.589-3.736-2.367a6.07 6.07 0 0 1-.484-1.998v-12.653c-.06-.81-.418-1.149-.978-1.171h-3.106c-.694.013-1.062.36-1.103 1.041m28.6.058v14.226c.01.8-.122 1.424-.398 1.875-.655 1.064-1.799.844-2.865.777-.68-.043-1.407-.163-2.083-.157-.542.007-.814.213-.889.576-.1.571-.203 1.142-.306 1.716-.19.836.09 1.29.685 1.465 1.08.264 2.2.403 3.357.415 2.35.024 4.758-.256 6.374-2.082.394-.443.711-.954.947-1.527.415-1.015.496-2.062.545-3.137.039-.905.033-1.81.033-2.715v-11.394c.006-.41-.107-.703-.334-.89-.381-.31-.942-.241-1.405-.241h-1.989c-.357 0-.773-.056-1.118.067a.803.803 0 0 0-.353.24c-.15.183-.216.448-.201.786m112.4 9.893c0 6.32-4.553 11.001-10.987 11.001-6.558 0-11.013-4.48-11.013-10.994 0-6.165 4.394-11.006 11.013-11.006 6.431 0 10.987 4.682 10.987 10.999m-5.68.002c0-3.694-1.453-6.971-5.304-6.971-3.854 0-5.339 3.277-5.339 6.971s1.485 6.974 5.339 6.974c3.851 0 5.305-3.28 5.305-6.974m-34.391-1.973c-.278-2.857-1.402-5.157-3.277-6.714-1.808-1.503-4.233-2.314-7.232-2.314-2.21 0-5.007.71-7.067 2.294-2.454 1.888-4.354 4.843-4.354 8.82 0 3.426 1.187 6.184 3.33 8.055 2.096 1.831 5.061 2.831 8.74 2.831 2.961 0 6.54-1.046 8.072-1.931.536-.311.706-.446.567-.952l-.958-2.536c-.112-.414-.605-.522-1.007-.336-.673.31-1.176.553-1.86.786-1.323.46-2.696.773-4.002.773-2.75 0-4.316-.7-5.512-1.989-.76-.818-1.206-1.857-1.343-3.055H119.2c.552 0 .799-.359.799-.961v-1.024a22.213 22.213 0 0 0-.07-1.747zm-5.437-.086h-10.476c.114-.71.332-1.384.673-2.025.933-1.763 2.714-2.885 4.92-2.885 3.03 0 4.883 1.924 4.883 4.78v.13zm11.841-5.889c1.475-2.099 3.777-3.053 7.544-3.053.887 0 1.972.11 2.657.289.45.114.517.502.435 1l-.447 2.425c-.105.453-.217.583-.54.583-.051 0-.146-.012-.263-.027-.31-.043-1.2-.148-1.572-.148-1.874 0-2.767.513-3.43 1.301-.774.916-.801 2.27-.801 4.698v10.772c0 .71-.281 1.107-.97 1.107h-2.983c-.638 0-.915-.352-.964-1.107v-10.575c-.002-3.855.203-5.654 1.334-7.265m-41.069 4.286c.787-.776 2.615-2.922 4.646-6.564.338-.623.643-.773 1.101-.773l3.77-.002c.34 0 .746.155.524.775-1.494 4.225-4.915 7.923-6.804 9.84 2.061 1.856 5.716 6.248 7.434 10.554.155.387.078.831-.783.831h-4.504c-.467 0-.83-.045-1.142-.775-1.117-2.646-2.863-5.421-4.855-7.245-2.175 2.194-3.83 4.9-4.948 7.245-.274.573-.547.775-1.14.775h-4.132c-.276 0-.556-.31-.374-.78 1.227-3.203 3.676-7.19 7.176-10.19-2.746-3.16-5.397-7.009-6.44-10.255-.157-.486.116-.775.498-.775h4.852c.525 0 .798.202 1.056.775 1.194 2.646 2.824 5.163 4.065 6.564" fill="#000"/><g transform="translate(160 109)"><mask id="d" fill="#fff"><use xlink:href="#c"/></mask><path d="M11.067 8.553c.75-.868 2.497-3.275 4.435-7.361.321-.7.614-.87 1.05-.87h3.598c.322 0 .711.172.5.87-1.426 4.738-4.69 8.888-6.492 11.036 1.964 2.082 5.453 7.01 7.095 11.839.145.436.072.932-.75.932h-4.297c-.447 0-.79-.048-1.094-.869-1.067-2.968-2.728-6.08-4.633-8.127-2.074 2.462-3.658 5.496-4.723 8.127-.26.646-.52.869-1.087.869H.727c-.262 0-.53-.344-.359-.873 1.173-3.593 3.507-8.066 6.849-11.43C4.597 9.151 2.067 4.83 1.07 1.192c-.15-.546.114-.87.475-.87h4.631c.5 0 .761.229 1.008.87 1.141 2.963 2.697 5.793 3.883 7.361" fill="#000" mask="url(#d)"/></g><path d="M121.539 79.9c.332-.374.461-2.169.461-2.438C122 61.455 92.058 26 55.512 26c-8.264 0-11.895 2.95-12.833 3.719-.2.637-.45 1.248-.679 1.837.904-.694 4.79-3.707 12.663-3.707 35.242 0 66.3 35.197 66.3 51.03 0 .603-.13 1.545-.419 2.121.336-.361.67-.727.995-1.1" fill="#000"/><path d="M47 21.155a70.72 70.72 0 0 1 1.472-2.083C49.955 17.99 53.337 16 61.809 16 98.472 16 127 49.725 127 69.366c0 .759-.027 2.173-.519 3.06-.199.356-.636 1.03-.976 1.574.415-.97.517-2.193.517-2.691 0-19.25-28.85-53.574-65.443-53.574-7.872 0-12.342 2.234-13.579 3.42" fill="#000"/><path d="M45.112 24.232c1.455-1.205 4.986-3.23 13.095-3.232 39.173 0 65.78 37.133 65.78 52.44 0 .501.129 2.192-.443 3-.263.38-.669.916-1.164 1.56.39-.683.5-1.876.5-2.634 0-15.632-27.115-52.454-66.254-52.454-7.854 0-11.552 2.65-12.626 3.466.22-.536 1.112-2.174 1.112-2.146" fill="#000"/><path d="M104.124 3.703C105.07 4.708 107 9.028 107 15.495 107 50.687 82.416 85.99 63.556 90A37.799 37.799 0 0 1 62 89.172c14.308-1.638 43.412-35.716 43.412-74.335 0-5.972-1.67-10.511-3.054-11.837.538.201 1.227.477 1.766.703" fill="#000"/><path d="M109.906 7c.692.602 3.4 5.562 3.4 13.183 0 38.567-21.944 69.308-43.306 73.204.767.233 1.267.41 1.979.613C94.765 90.71 115 56.898 115 21.978c0-8.042-2.55-12.97-3.43-13.889-.532-.36-1.047-.677-1.664-1.089" fill="#000"/><path d="M106.08 5c.619.624 3.275 5.497 3.275 13.557 0 36.159-24.295 69.108-43.355 72.745.608.27 1.11.486 1.633.698C89.35 87.764 111 53.468 111 19.278c0-6.742-2.248-12.472-3.237-13.417A46.02 46.02 0 0 0 106.08 5" fill="#000"/></g></svg>