<svg version="1.1" id="Layer_1" xmlns="http://www.w3.org/2000/svg" xmlns:xlink="http://www.w3.org/1999/xlink" x="0" y="0" viewBox="0 0 96.7 59" xml:space="preserve"><style>.st0{fill-rule:evenodd;clip-rule:evenodd;fill:#3c4862}.st21{fill:#fff}</style><g id="LastPass-Streamline-Icon-Pack-v1" transform="translate(-798 -2285)"><g id="Group-40" transform="translate(691 2286)"><g id="Group-69"><g id="lp-enterprise-icon-b-4" transform="translate(108)"><path id="Fill-3" class="st0" d="M7.8 4c-.7 0-1.2.6-1.2 1.2 0 .7.6 1.2 1.3 1.2s1.3-.6 1.3-1.2C9.1 4.6 8.5 4 7.8 4"/><path id="Fill-5" class="st0" d="M12.9 4c-.7 0-1.3.6-1.3 1.2 0 .7.6 1.2 1.3 1.2s1.3-.6 1.3-1.2c-.1-.6-.6-1.2-1.3-1.2"/><path id="Fill-7" class="st0" d="M17.9 4c-.7 0-1.3.6-1.3 1.2 0 .7.6 1.2 1.3 1.2.7 0 1.3-.6 1.3-1.2S18.6 4 17.9 4"/><path id="Combined-Shape" d="M5 35h17.8c.6 0 1 .4 1 1v4H4c-.3 0-.5 0-.8-.1-.2.1-.5.1-.7.1C1.1 40 0 38.9 0 37.5V6c0-2.8 2.2-5 5-5v34z" fill-rule="evenodd" clip-rule="evenodd" fill="#eff9ff"/><path id="Stroke-9" d="M23 40.2H5.3c-2.8 0-5-2.2-5-5v-30c0-2.8 2.3-5 5-5h40.4c2.8 0 5 2.2 5 5v20" fill="none" stroke="#3b4763" stroke-width="2" stroke-linecap="round" stroke-linejoin="round"/><path id="Stroke-11" fill-rule="evenodd" clip-rule="evenodd" fill="#fff" stroke="#d32d27" stroke-width="2" stroke-linecap="round" stroke-linejoin="round" d="M35.9 27.7h8.9L43 35.2h6.7L35.1 57 38 42.7h-6.9z"/><path id="Stroke-1" d="M.3 10.1h49.8" fill="none" stroke="#3c4862" stroke-width="1.944" stroke-linecap="round" stroke-linejoin="round"/></g></g></g></g><defs><path id="SVGID_1_" d="M449.2-687h39.1c1.2 0 2.2 1 2.2 2.2v18.4c0 1.2-1 2.2-2.2 2.2h-39.1c-1.2 0-2.2-1-2.2-2.2v-18.4c0-1.2 1-2.2 2.2-2.2z"/></defs><clipPath id="SVGID_2_"><use xlink:href="#SVGID_1_" overflow="visible"/></clipPath><g clip-path="url(#SVGID_2_)"><defs><path id="SVGID_3_" d="M-935-3157H985v6369H-935z"/></defs><clipPath id="SVGID_4_"><use xlink:href="#SVGID_3_" overflow="visible"/></clipPath><path clip-path="url(#SVGID_4_)" fill="#d32d27" d="M442-692h53.5v32.8H442z"/></g><defs><path id="SVGID_5_" d="M-935-3157H985v6369H-935z"/></defs><clipPath id="SVGID_6_"><use xlink:href="#SVGID_5_" overflow="visible"/></clipPath><g clip-path="url(#SVGID_6_)"><text transform="translate(454.716 -672.4)" class="st21" font-family="Helvetica-Bold" font-size="12">NEW</text></g><defs><path id="SVGID_7_" d="M449.2-687h39.1c1.2 0 2.2 1 2.2 2.2v18.4c0 1.2-1 2.2-2.2 2.2h-39.1c-1.2 0-2.2-1-2.2-2.2v-18.4c0-1.2 1-2.2 2.2-2.2z"/></defs><clipPath id="SVGID_8_"><use xlink:href="#SVGID_7_" overflow="visible"/></clipPath><g clip-path="url(#SVGID_8_)"><defs><path id="SVGID_9_" d="M-935-3157H985v6369H-935z"/></defs><clipPath id="SVGID_10_"><use xlink:href="#SVGID_9_" overflow="visible"/></clipPath><path clip-path="url(#SVGID_10_)" fill="#d32d27" d="M442-692h53.5v32.8H442z"/></g><defs><path id="SVGID_11_" d="M-935-3157H985v6369H-935z"/></defs><clipPath id="SVGID_12_"><use xlink:href="#SVGID_11_" overflow="visible"/></clipPath><g clip-path="url(#SVGID_12_)"><text transform="translate(454.716 -672.4)" class="st21" font-family="Helvetica-Bold" font-size="12">NEW</text></g><defs><path id="SVGID_13_" d="M449.2-654h39.1c1.2 0 2.2 1 2.2 2.2v18.4c0 1.2-1 2.2-2.2 2.2h-39.1c-1.2 0-2.2-1-2.2-2.2v-18.4c0-1.2 1-2.2 2.2-2.2z"/></defs><clipPath id="SVGID_14_"><use xlink:href="#SVGID_13_" overflow="visible"/></clipPath><g clip-path="url(#SVGID_14_)"><defs><path id="SVGID_15_" d="M-935-3124H985v6302H-935z"/></defs><clipPath id="SVGID_16_"><use xlink:href="#SVGID_15_" overflow="visible"/></clipPath><path clip-path="url(#SVGID_16_)" fill="#d32d27" d="M442-659h53.5v32.8H442z"/></g><defs><path id="SVGID_17_" d="M-935-3124H985v6302H-935z"/></defs><clipPath id="SVGID_18_"><use xlink:href="#SVGID_17_" overflow="visible"/></clipPath><g clip-path="url(#SVGID_18_)"><text transform="translate(454.716 -639.4)" class="st21" font-family="Helvetica-Bold" font-size="12">NEW</text></g><defs><path id="SVGID_19_" d="M449.2-654h39.1c1.2 0 2.2 1 2.2 2.2v18.4c0 1.2-1 2.2-2.2 2.2h-39.1c-1.2 0-2.2-1-2.2-2.2v-18.4c0-1.2 1-2.2 2.2-2.2z"/></defs><clipPath id="SVGID_20_"><use xlink:href="#SVGID_19_" overflow="visible"/></clipPath><g clip-path="url(#SVGID_20_)"><defs><path id="SVGID_21_" d="M-935-3124H985v6302H-935z"/></defs><clipPath id="SVGID_22_"><use xlink:href="#SVGID_21_" overflow="visible"/></clipPath><path clip-path="url(#SVGID_22_)" fill="#d32d27" d="M442-659h53.5v32.8H442z"/></g><defs><path id="SVGID_23_" d="M-935-3124H985v6302H-935z"/></defs><clipPath id="SVGID_24_"><use xlink:href="#SVGID_23_" overflow="visible"/></clipPath><g clip-path="url(#SVGID_24_)"><text transform="translate(454.716 -639.4)" class="st21" font-family="Helvetica-Bold" font-size="12">NEW</text></g><defs><path id="SVGID_25_" d="M449.2-654h39.1c1.2 0 2.2 1 2.2 2.2v18.4c0 1.2-1 2.2-2.2 2.2h-39.1c-1.2 0-2.2-1-2.2-2.2v-18.4c0-1.2 1-2.2 2.2-2.2z"/></defs><clipPath id="SVGID_26_"><use xlink:href="#SVGID_25_" overflow="visible"/></clipPath><g clip-path="url(#SVGID_26_)"><defs><path id="SVGID_27_" d="M-935-3124H985v6302H-935z"/></defs><clipPath id="SVGID_28_"><use xlink:href="#SVGID_27_" overflow="visible"/></clipPath><path clip-path="url(#SVGID_28_)" fill="#d32d27" d="M442-659h53.5v32.8H442z"/></g><defs><path id="SVGID_29_" d="M-935-3124H985v6302H-935z"/></defs><clipPath id="SVGID_30_"><use xlink:href="#SVGID_29_" overflow="visible"/></clipPath><g clip-path="url(#SVGID_30_)"><text transform="translate(454.716 -639.4)" class="st21" font-family="Helvetica-Bold" font-size="12">NEW</text></g><path fill="#d32d27" stroke="#d32d27" stroke-width="1.844" stroke-linecap="round" stroke-linejoin="round" d="M56.3 6.3h38.3v19.5H56.3z"/><defs><path id="SVGID_31_" d="M-891-3115h1920v6302H-891z"/></defs><clipPath id="SVGID_32_"><use xlink:href="#SVGID_31_" overflow="visible"/></clipPath><g clip-path="url(#SVGID_32_)"><text transform="translate(808.716 -635.4)" class="st21" font-family="Helvetica-Bold" font-size="12">NEW</text></g><path class="st21" d="M62.6 11.7h1.9l3.4 6v-6h1.7v8.6h-1.8l-3.5-6.1v6.1h-1.7v-8.6zm15.1 1.5h-4.6V15h4.2v1.5h-4.2v2.2h4.8v1.6h-6.5v-8.6h6.3v1.5zm2.8-1.5l1.1 4.9.2 1.4.2-1.3 1-5h2l1 4.9.3 1.4.3-1.3 1.2-5h1.8l-2.4 8.6h-1.7l-1-5.1-.3-1.7-.3 1.7-1 5.1H81l-2.4-8.6h1.9z"/></svg>