<svg version="1.1" id="Layer_1" xmlns="http://www.w3.org/2000/svg" x="0" y="0" viewBox="0 0 99.4 58" xml:space="preserve"><style>.st0{fill-rule:evenodd;clip-rule:evenodd}.st1{fill:none;stroke:#3b4763;stroke-width:2;stroke-linecap:round;stroke-linejoin:round}.st2{fill-rule:evenodd;clip-rule:evenodd;fill:#fff}.st3{fill:none;stroke:#d32d27;stroke-width:2;stroke-linecap:round;stroke-linejoin:round}</style><g id="_icons" transform="translate(-957 -163)"><g id="i_secure-devices" transform="translate(957 164)"><g id="Group-9" transform="translate(.829 10)"><g id="Stroke-11"><path id="path-1" class="st0" d="M22.2 45.5h17"/><path class="st1" d="M22.2 45.5h17"/></g><g id="Stroke-13"><path id="path-3" class="st0" d="M30.7 39v5"/><path class="st1" d="M30.7 39v5"/></g><g id="Stroke-21"><path id="path-5" class="st2" d="M46.2 12c2.2 0 4 1.8 4 4v19c0 2.2-1.8 4-4 4h-32c-2.2 0-4-1.8-4-4V16c0-2.2 1.8-4 4-4h32z"/><path class="st1" d="M46.2 12c2.2 0 4 1.8 4 4v19c0 2.2-1.8 4-4 4h-32c-2.2 0-4-1.8-4-4V16c0-2.2 1.8-4 4-4h32z"/></g><g id="Group-12" transform="translate(5 .843)"><path id="Path-2" class="st3" d="M10.7.7H.7v5"/><path class="st3" d="M36.7.7h10v5"/></g><g id="Stroke-15"><path id="path-7" class="st0" d="M10.5 32h39"/><path class="st1" d="M10.5 32h39"/></g><g id="Stroke-3"><path id="path-9" class="st2" d="M56.2 30.7c0-.9-.8-1.7-1.8-1.7H47c-1 0-1.8.8-1.8 1.7v13.6c0 .9.8 1.7 1.8 1.7h7.3c1 0 1.8-.8 1.8-1.7V30.7z"/><path class="st1" d="M56.2 30.7c0-.9-.8-1.7-1.8-1.7H47c-1 0-1.8.8-1.8 1.7v13.6c0 .9.8 1.7 1.8 1.7h7.3c1 0 1.8-.8 1.8-1.7V30.7z"/></g><g id="Stroke-5"><path id="path-11" class="st0" d="M45.2 43h11"/><path class="st1" d="M45.2 43h11"/></g><g id="Stroke-1"><path id="path-13" class="st2" d="M2.2 46V29c0-1.1.7-2 1.6-2h18.9c.9 0 1.6.9 1.6 2v17"/><path class="st1" d="M2.2 46V29c0-1.1.7-2 1.6-2h18.9c.9 0 1.6.9 1.6 2v17"/></g><path id="path-15" class="st2" d="M16 42v1.3h-5.7V42H.2v2.7c0 .7.5 1.3 1.1 1.3H25c.6 0 1.1-.6 1.1-1.3V42H16z"/><path class="st1" d="M16 42v1.3h-5.7V42H.2v2.7c0 .7.5 1.3 1.1 1.3H25c.6 0 1.1-.6 1.1-1.3V42H16z"/></g><path id="path-17" class="st2" d="M22.8 17.2h13.4V6.5H22.8z"/><path class="st1" d="M22.8 17.2h13.4V6.5H22.8z"/><path class="st3" d="M29.5 14.2v-3.1"/><path id="Stroke-4" class="st1" d="M25 6.5V4.9c0-2.6 2-4.6 4.5-4.6S34 2.4 34 4.9v1.5"/><path id="Stroke-6" class="st3" d="M30.3 10.3c0 .4-.3.8-.8.8-.4 0-.8-.3-.8-.8 0-.4.3-.8.8-.8.4 0 .8.4.8.8z"/></g></g><path fill="#d32d27" stroke="#d32d27" stroke-width="1.844" stroke-linecap="round" stroke-linejoin="round" d="M59.3 6.3h38.3v19.5H59.3z"/><path d="M65.6 11.7h1.9l3.4 6v-6h1.7v8.6h-1.8l-3.5-6.1v6.1h-1.7v-8.6zm15.1 1.5h-4.6V15h4.2v1.5h-4.2v2.2h4.8v1.6h-6.5v-8.6h6.3v1.5zm2.8-1.5l1.1 4.9.2 1.4.2-1.3 1-5h2l1 4.9.3 1.4.3-1.3 1.2-5h1.8l-2.4 8.6h-1.7l-1-5.1-.3-1.7-.3 1.7-1 5.1H84l-2.4-8.6h1.9z" fill="#fff"/></svg>